<svg width="184" height="45" viewBox="0 0 184 45" fill="none" xmlns="http://www.w3.org/2000/svg">
<path d="M46.2373 6.44971H55.8067C58.0942 6.44971 60.1158 6.87775 61.8713 7.73693C63.6268 8.5961 64.9912 9.80325 65.9644 11.3615C66.9376 12.9197 67.4227 14.7366 67.4227 16.806C67.4227 18.8754 66.9376 20.6923 65.9644 22.2505C64.9912 23.8087 63.6268 25.0189 61.8713 25.875C60.1158 26.7342 58.0942 27.1622 55.8067 27.1622H46.2373V6.44971ZM55.5658 23.2297C57.6718 23.2297 59.3522 22.6539 60.6071 21.4991C61.8619 20.3474 62.4878 18.783 62.4878 16.809C62.4878 14.8351 61.8619 13.2707 60.6071 12.119C59.3522 10.9642 57.6718 10.3883 55.5658 10.3883H51.1128V23.2328H55.5658V23.2297Z" fill="white"/>
<path d="M86.5333 20.5078H74.2853C74.5075 21.4933 75.0269 22.2724 75.8499 22.8451C76.6729 23.4179 77.6962 23.7043 78.9197 23.7043C79.7615 23.7043 80.5094 23.5811 81.1603 23.3348C81.8112 23.0884 82.4183 22.6973 82.9815 22.1646L85.4787 24.8283C83.9548 26.5436 81.7267 27.4028 78.7977 27.4028C76.9733 27.4028 75.3555 27.0517 73.9536 26.3527C72.5485 25.6536 71.4658 24.6805 70.7022 23.4364C69.9387 22.1923 69.5601 20.7819 69.5601 19.2052C69.5601 17.647 69.9356 16.2428 70.6897 14.9894C71.4408 13.7361 72.4766 12.7599 73.7909 12.0608C75.1051 11.3618 76.5728 11.0107 78.2 11.0107C79.7834 11.0107 81.2198 11.3464 82.5028 12.0177C83.7858 12.6891 84.7934 13.6498 85.5257 14.9032C86.2579 16.1565 86.624 17.61 86.624 19.2668C86.624 19.3222 86.5927 19.738 86.5333 20.5078ZM75.5495 15.3867C74.8266 15.9779 74.3854 16.7878 74.2258 17.8133H82.1992C82.0396 16.8063 81.5984 16.0026 80.8755 15.4021C80.1527 14.7985 79.2702 14.4998 78.2282 14.4998C77.1642 14.4998 76.2692 14.7954 75.5495 15.3867Z" fill="white"/>
<path d="M92.9262 26.3523C91.5525 25.6533 90.4791 24.6802 89.7062 23.4361C88.9332 22.192 88.5483 20.7816 88.5483 19.2049C88.5483 17.6282 88.9332 16.2178 89.7062 14.9737C90.4791 13.7296 91.5525 12.7595 92.9262 12.0574C94.3 11.3584 95.849 11.0073 97.5764 11.0073C99.2818 11.0073 100.771 11.3584 102.045 12.0574C103.319 12.7565 104.248 13.7573 104.83 15.0599L101.188 16.9846C100.346 15.5249 99.1316 14.7951 97.5451 14.7951C96.3215 14.7951 95.3076 15.1892 94.5065 15.9776C93.7054 16.769 93.3017 17.8437 93.3017 19.2049C93.3017 20.566 93.7023 21.6407 94.5065 22.4322C95.3076 23.2205 96.3215 23.6147 97.5451 23.6147C99.1504 23.6147 100.365 22.8848 101.188 21.4252L104.83 23.3776C104.248 24.6401 103.322 25.6256 102.045 26.3369C100.771 27.0483 99.2818 27.4024 97.5764 27.4024C95.8521 27.4024 94.3031 27.0544 92.9262 26.3523Z" fill="white"/>
<path d="M110.444 26.3523C109.089 25.6533 108.032 24.6802 107.268 23.4361C106.505 22.192 106.126 20.7816 106.126 19.2049C106.126 17.6282 106.508 16.2178 107.268 14.9737C108.032 13.7296 109.089 12.7595 110.444 12.0574C111.799 11.3584 113.33 11.0073 115.035 11.0073C116.741 11.0073 118.265 11.3584 119.61 12.0574C120.953 12.7565 122.007 13.7296 122.771 14.9737C123.534 16.2178 123.913 17.6282 123.913 19.2049C123.913 20.7816 123.531 22.192 122.771 23.4361C122.007 24.6802 120.956 25.6502 119.61 26.3523C118.268 27.0544 116.741 27.4024 115.035 27.4024C113.326 27.4024 111.796 27.0544 110.444 26.3523ZM117.995 22.4137C118.768 21.6161 119.153 20.5444 119.153 19.2049C119.153 17.8653 118.765 16.7936 117.995 15.993C117.222 15.1954 116.234 14.7951 115.032 14.7951C113.827 14.7951 112.835 15.1923 112.053 15.993C111.271 16.7936 110.879 17.8622 110.879 19.2049C110.879 20.5475 111.271 21.6161 112.053 22.4137C112.835 23.2143 113.827 23.6116 115.032 23.6116C116.237 23.6147 117.226 23.2143 117.995 22.4137Z" fill="white"/>
<path d="M47.6153 40.2666C47.1053 39.9832 46.7078 39.5921 46.4137 39.0933C46.1227 38.5944 45.9756 38.0278 45.9756 37.3965C45.9756 36.7652 46.1227 36.2017 46.4137 35.6997C46.7047 35.2008 47.1053 34.8097 47.6153 34.5326C48.1223 34.2523 48.695 34.1138 49.3271 34.1138C49.9592 34.1138 50.5319 34.2523 51.0388 34.5326C51.5458 34.8097 51.9463 35.2008 52.2311 35.6997C52.519 36.2017 52.6629 36.7652 52.6629 37.3965C52.6629 38.0278 52.519 38.5944 52.2311 39.0933C51.9432 39.5921 51.5458 39.9832 51.0388 40.2666C50.5319 40.5499 49.9592 40.6915 49.3271 40.6915C48.6918 40.6915 48.1223 40.5499 47.6153 40.2666ZM50.5819 39.6014C50.9543 39.392 51.2422 39.0964 51.4519 38.7114C51.6584 38.3265 51.7648 37.8861 51.7648 37.3965C51.7648 36.9038 51.6615 36.4665 51.4519 36.0816C51.2453 35.6966 50.9543 35.3979 50.5819 35.1885C50.2095 34.9791 49.7933 34.8744 49.3271 34.8744C48.8608 34.8744 48.4415 34.9791 48.0691 35.1885C47.6967 35.3979 47.4057 35.6935 47.1929 36.0816C46.9801 36.4665 46.8737 36.9038 46.8737 37.3965C46.8737 37.8892 46.9801 38.3265 47.1929 38.7114C47.4057 39.0964 47.6967 39.3951 48.0691 39.6014C48.4415 39.8108 48.8577 39.9155 49.3271 39.9155C49.7933 39.9155 50.2127 39.8108 50.5819 39.6014Z" fill="white"/>
<path d="M59.7009 34.9386H55.9395V40.6295H55.0508V34.1626H59.7009V34.9386Z" fill="white"/>
<path d="M62.1759 40.2666C61.6658 39.9832 61.2684 39.5921 60.9742 39.0933C60.6832 38.5944 60.5361 38.0278 60.5361 37.3965C60.5361 36.7652 60.6832 36.2017 60.9742 35.6997C61.2653 35.2008 61.6658 34.8097 62.1759 34.5326C62.6828 34.2523 63.2555 34.1138 63.8876 34.1138C64.5197 34.1138 65.0924 34.2523 65.5993 34.5326C66.1063 34.8097 66.5068 35.2008 66.7916 35.6997C67.0795 36.2017 67.2234 36.7652 67.2234 37.3965C67.2234 38.0278 67.0795 38.5944 66.7916 39.0933C66.5037 39.5921 66.1063 39.9832 65.5993 40.2666C65.0924 40.5499 64.5197 40.6915 63.8876 40.6915C63.2555 40.6915 62.686 40.5499 62.1759 40.2666ZM65.1456 39.6014C65.518 39.392 65.8059 39.0964 66.0155 38.7114C66.2221 38.3265 66.3285 37.8861 66.3285 37.3965C66.3285 36.9038 66.2252 36.4665 66.0155 36.0816C65.809 35.6966 65.518 35.3979 65.1456 35.1885C64.7732 34.9791 64.357 34.8744 63.8907 34.8744C63.4245 34.8744 63.0052 34.9791 62.6328 35.1885C62.2604 35.3979 61.9694 35.6935 61.7566 36.0816C61.5438 36.4665 61.4374 36.9038 61.4374 37.3965C61.4374 37.8892 61.5438 38.3265 61.7566 38.7114C61.9694 39.0964 62.2604 39.3951 62.6328 39.6014C63.0052 39.8108 63.4213 39.9155 63.8907 39.9155C64.357 39.9155 64.7732 39.8108 65.1456 39.6014Z" fill="white"/>
<path d="M69.6143 34.1626H70.503V37.0265H74.6399V34.1626H75.5286V40.6295H74.6399V37.7779H70.503V40.6295H69.6143V34.1626Z" fill="white"/>
<path d="M83.2456 36.9896C83.6743 37.3406 83.8902 37.8487 83.8902 38.5139C83.8902 39.2037 83.6587 39.7303 83.1955 40.0998C82.7324 40.4694 82.0627 40.648 81.1896 40.6418L78.5391 40.6295V34.1626H79.4278V36.426L81.3649 36.4506C82.1879 36.4568 82.8169 36.6385 83.2456 36.9896ZM82.5196 39.6133C82.8325 39.3638 82.989 38.9974 82.989 38.5139C82.989 38.0397 82.8356 37.6855 82.5258 37.4576C82.216 37.2298 81.756 37.1097 81.1395 37.1004L79.4278 37.0758V39.952L81.1395 39.9766C81.7466 39.9859 82.2066 39.8658 82.5196 39.6133Z" fill="white"/>
<path d="M92.2143 37.7533H90.7154V40.6295H89.8267V34.1626H90.7154V37.0019H92.2268L94.5394 34.1626H95.5032L92.9153 37.2975L95.691 40.6295H94.6395L92.2143 37.7533Z" fill="white"/>
<path d="M101.69 34.7478C102.146 35.1697 102.378 35.7948 102.378 36.6232V40.6296H101.527V39.6226C101.327 39.9583 101.032 40.22 100.647 40.4079C100.259 40.5957 99.7994 40.6912 99.2674 40.6912C98.5351 40.6912 97.95 40.5187 97.5181 40.1738C97.0862 39.8289 96.8672 39.3762 96.8672 38.8096C96.8672 38.2615 97.0706 37.818 97.4743 37.4824C97.878 37.1467 98.5226 36.9773 99.4051 36.9773H101.492V36.5832C101.492 36.0258 101.333 35.6008 101.017 35.3113C100.701 35.0219 100.238 34.8741 99.6304 34.8741C99.2142 34.8741 98.8137 34.9418 98.4288 35.0773C98.047 35.2128 97.7153 35.3976 97.443 35.6347L97.0424 34.9849C97.3773 34.7047 97.7747 34.4922 98.2441 34.3382C98.7104 34.1873 99.2017 34.1104 99.7181 34.1104C100.572 34.1134 101.233 34.3259 101.69 34.7478ZM100.691 39.6626C101.048 39.4378 101.317 39.1114 101.492 38.6864V37.6302H99.427C98.3036 37.6302 97.7403 38.0151 97.7403 38.785C97.7403 39.1607 97.8874 39.4594 98.1784 39.675C98.4694 39.8905 98.8794 40.0014 99.4051 40.0014C99.9027 40.0014 100.331 39.8905 100.691 39.6626Z" fill="white"/>
<path d="M107.617 37.7533H106.118V40.6295H105.229V34.1626H106.118V37.0019H107.629L109.942 34.1626H110.905L108.318 37.2975L111.093 40.6295H110.045L107.617 37.7533Z" fill="white"/>
<path d="M116.741 34.1626H117.63V39.3022L122.017 34.1626H122.806V40.6295H121.917V35.4898L117.542 40.6295H116.741V34.1626Z" fill="white"/>
<path d="M126.834 40.2727C126.32 39.9956 125.92 39.6045 125.626 39.0995C125.335 38.5944 125.188 38.0278 125.188 37.3965C125.188 36.7652 125.335 36.2017 125.626 35.6997C125.917 35.2008 126.32 34.8097 126.834 34.5326C127.347 34.2523 127.929 34.1138 128.577 34.1138C129.143 34.1138 129.65 34.2216 130.094 34.4402C130.539 34.6558 130.892 34.976 131.149 35.3918L130.485 35.8352C130.269 35.5149 129.994 35.2747 129.659 35.1146C129.324 34.9545 128.965 34.8744 128.573 34.8744C128.098 34.8744 127.672 34.9791 127.29 35.1885C126.912 35.3979 126.614 35.6935 126.402 36.0816C126.189 36.4665 126.082 36.9038 126.082 37.3965C126.082 37.8954 126.189 38.3357 126.402 38.7176C126.614 39.0995 126.909 39.3951 127.29 39.6014C127.669 39.8108 128.098 39.9155 128.573 39.9155C128.965 39.9155 129.328 39.8385 129.659 39.6815C129.994 39.5244 130.266 39.2873 130.485 38.967L131.149 39.4105C130.889 39.8293 130.535 40.1465 130.088 40.3621C129.637 40.5776 129.134 40.6885 128.577 40.6885C127.929 40.6916 127.347 40.553 126.834 40.2727Z" fill="white"/>
<path d="M135.74 37.7533H134.241V40.6295H133.352V34.1626H134.241V37.0019H135.752L138.065 34.1626H139.028L136.441 37.2975L139.216 40.6295H138.168L135.74 37.7533Z" fill="white"/>
<path d="M146.316 34.1627L143.028 41.4026C142.762 42.0092 142.452 42.4404 142.101 42.6929C141.751 42.9454 141.331 43.0747 140.837 43.0747C140.521 43.0747 140.224 43.0255 139.948 42.9269C139.673 42.8284 139.435 42.6806 139.235 42.4835L139.648 41.8337C139.983 42.1601 140.38 42.3264 140.846 42.3264C141.147 42.3264 141.403 42.2433 141.616 42.0801C141.829 41.9169 142.026 41.6366 142.211 41.2425L142.499 40.6142L139.56 34.1597H140.487L142.962 39.6534L145.437 34.1597H146.316V34.1627Z" fill="white"/>
<path d="M149.011 40.2727C148.498 39.9956 148.097 39.6045 147.803 39.0995C147.512 38.5944 147.365 38.0278 147.365 37.3965C147.365 36.7652 147.512 36.2017 147.803 35.6997C148.094 35.2008 148.498 34.8097 149.011 34.5326C149.524 34.2523 150.106 34.1138 150.754 34.1138C151.32 34.1138 151.827 34.2216 152.271 34.4402C152.716 34.6558 153.069 34.976 153.326 35.3918L152.663 35.8352C152.447 35.5149 152.171 35.2747 151.837 35.1146C151.502 34.9545 151.142 34.8744 150.751 34.8744C150.275 34.8744 149.849 34.9791 149.468 35.1885C149.089 35.3979 148.792 35.6935 148.579 36.0816C148.366 36.4665 148.26 36.9038 148.26 37.3965C148.26 37.8954 148.366 38.3357 148.579 38.7176C148.792 39.0995 149.086 39.3951 149.468 39.6014C149.846 39.8108 150.275 39.9155 150.751 39.9155C151.142 39.9155 151.505 39.8385 151.837 39.6815C152.171 39.5244 152.444 39.2873 152.663 38.967L153.326 39.4105C153.066 39.8293 152.713 40.1465 152.265 40.3621C151.815 40.5776 151.311 40.6885 150.754 40.6885C150.103 40.6916 149.524 40.553 149.011 40.2727Z" fill="white"/>
<path d="M156.424 40.2727C155.911 39.9956 155.511 39.6045 155.216 39.0995C154.925 38.5944 154.778 38.0278 154.778 37.3965C154.778 36.7652 154.925 36.2017 155.216 35.6997C155.507 35.2008 155.911 34.8097 156.424 34.5326C156.938 34.2523 157.52 34.1138 158.167 34.1138C158.734 34.1138 159.241 34.2216 159.685 34.4402C160.129 34.6558 160.483 34.976 160.74 35.3918L160.076 35.8352C159.86 35.5149 159.585 35.2747 159.25 35.1146C158.915 34.9545 158.555 34.8744 158.164 34.8744C157.689 34.8744 157.263 34.9791 156.881 35.1885C156.503 35.3979 156.205 35.6935 155.993 36.0816C155.78 36.4665 155.673 36.9038 155.673 37.3965C155.673 37.8954 155.78 38.3357 155.993 38.7176C156.205 39.0995 156.499 39.3951 156.881 39.6014C157.26 39.8108 157.689 39.9155 158.164 39.9155C158.555 39.9155 158.918 39.8385 159.25 39.6815C159.585 39.5244 159.857 39.2873 160.076 38.967L160.74 39.4105C160.48 39.8293 160.126 40.1465 159.679 40.3621C159.228 40.5776 158.724 40.6885 158.167 40.6885C157.516 40.6916 156.934 40.553 156.424 40.2727Z" fill="white"/>
<path d="M167.442 34.939H164.955V40.6299H164.066V34.939H161.578V34.166H167.442V34.939Z" fill="white"/>
<path d="M174.743 38.8711C174.743 39.4377 174.53 39.8719 174.105 40.1737C173.679 40.4755 173.047 40.6295 172.205 40.6295H169.217V34.1626H172.118C172.869 34.1626 173.457 34.3073 173.879 34.5937C174.305 34.8801 174.518 35.2897 174.518 35.8224C174.518 36.1735 174.421 36.4753 174.224 36.7247C174.027 36.9742 173.754 37.162 173.404 37.2821C174.296 37.4915 174.743 38.0181 174.743 38.8711ZM170.077 37.0388H172.052C172.559 37.0388 172.95 36.9464 173.222 36.7555C173.491 36.5677 173.629 36.2936 173.629 35.9333C173.629 35.573 173.495 35.302 173.222 35.1234C172.95 34.9448 172.562 34.8524 172.052 34.8524H170.077V37.0388ZM173.441 39.6687C173.726 39.4901 173.867 39.2068 173.867 38.8218C173.867 38.4369 173.739 38.1536 173.479 37.9688C173.219 37.7841 172.812 37.6917 172.255 37.6917H170.08V39.9428H172.168C172.734 39.9397 173.16 39.8504 173.441 39.6687Z" fill="white"/>
<path d="M178.304 40.2666C177.794 39.9832 177.397 39.5921 177.103 39.0933C176.812 38.5944 176.665 38.0278 176.665 37.3965C176.665 36.7652 176.812 36.2017 177.103 35.6997C177.394 35.2008 177.794 34.8097 178.304 34.5326C178.811 34.2523 179.384 34.1138 180.016 34.1138C180.648 34.1138 181.221 34.2523 181.728 34.5326C182.235 34.8097 182.635 35.2008 182.92 35.6997C183.208 36.2017 183.352 36.7652 183.352 37.3965C183.352 38.0278 183.208 38.5944 182.92 39.0933C182.632 39.5921 182.235 39.9832 181.728 40.2666C181.221 40.5499 180.648 40.6915 180.016 40.6915C179.384 40.6915 178.814 40.5499 178.304 40.2666ZM181.274 39.6014C181.646 39.392 181.934 39.0964 182.144 38.7114C182.35 38.3265 182.457 37.8861 182.457 37.3965C182.457 36.9038 182.354 36.4665 182.144 36.0816C181.937 35.6966 181.646 35.3979 181.274 35.1885C180.902 34.9791 180.485 34.8744 180.019 34.8744C179.553 34.8744 179.134 34.9791 178.761 35.1885C178.389 35.3979 178.098 35.6935 177.885 36.0816C177.672 36.4665 177.566 36.9038 177.566 37.3965C177.566 37.8892 177.672 38.3265 177.885 38.7114C178.098 39.0964 178.389 39.3951 178.761 39.6014C179.134 39.8108 179.55 39.9155 180.019 39.9155C180.485 39.9155 180.902 39.8108 181.274 39.6014Z" fill="white"/>
<path d="M132.042 10.296V15.7713H141.793V19.6206H132.042V27.1653H127.167V6.44971H143.089V10.296H132.042Z" fill="#DCDCDC"/>
<path d="M146.008 8.2848C145.467 7.79209 145.195 7.17927 145.195 6.44944C145.195 5.7196 145.467 5.10679 146.008 4.61407C146.55 4.12136 147.251 3.875 148.114 3.875C148.975 3.875 149.679 4.11212 150.22 4.58636C150.762 5.0606 151.034 5.65185 151.034 6.36321C151.034 7.13308 150.762 7.76745 150.22 8.2694C149.679 8.77444 148.975 9.02387 148.114 9.02387C147.251 9.02387 146.55 8.77752 146.008 8.2848ZM145.767 11.2442H150.461V27.165H145.767V11.2442Z" fill="#DCDCDC"/>
<path d="M161.58 11.5986C162.531 11.2044 163.63 11.0073 164.875 11.0073V15.2693C164.352 15.2324 164.002 15.2108 163.82 15.2108C162.478 15.2108 161.423 15.5803 160.66 16.3225C159.896 17.0616 159.518 18.1702 159.518 19.6514V27.1684H154.824V11.2475H159.308V13.3477C159.871 12.5748 160.629 11.9958 161.58 11.5986Z" fill="#DCDCDC"/>
<path d="M183.294 20.5073H171.046C171.268 21.4928 171.788 22.2719 172.611 22.8447C173.434 23.4174 174.457 23.7038 175.681 23.7038C176.522 23.7038 177.27 23.5807 177.921 23.3343C178.572 23.0879 179.179 22.6968 179.742 22.1641L182.24 24.8278C180.716 26.5431 178.488 27.4023 175.558 27.4023C173.734 27.4023 172.116 27.0512 170.714 26.3522C169.309 25.6531 168.227 24.68 167.463 23.4359C166.699 22.1918 166.321 20.7814 166.321 19.2047C166.321 17.6465 166.696 16.2423 167.45 14.9889C168.201 13.7356 169.237 12.7594 170.552 12.0604C171.866 11.3613 173.334 11.0103 174.961 11.0103C176.544 11.0103 177.981 11.3459 179.264 12.0172C180.547 12.6886 181.554 13.6494 182.286 14.9027C183.019 16.156 183.385 17.6096 183.385 19.2663C183.385 19.3217 183.354 19.7375 183.294 20.5073ZM172.31 15.3862C171.587 15.9774 171.146 16.7873 170.987 17.8128H178.96C178.8 16.8058 178.359 16.0021 177.636 15.4016C176.913 14.798 176.031 14.4993 174.989 14.4993C173.925 14.4993 173.033 14.7949 172.31 15.3862Z" fill="#DCDCDC"/>
<path d="M21.0626 0C21.0626 0 12.1867 7.07898 10.3149 14.9344C8.44299 22.7897 11.7226 25.4539 12.7243 27.0676C13.7298 28.6813 17.2106 31.4139 18.9703 32.7003C20.73 33.9867 25.2163 37.294 24.9649 41.4615C34.8308 35.7412 34.096 26.1047 30.155 22.0895C30.155 22.0895 31.7755 27.6537 29.7528 29.7393C30.5727 25.9182 28.5152 21.1113 26.2025 17.9829C23.8897 14.8544 19.3067 8.36537 21.0626 0Z" fill="#DCDCDC"/>
<path d="M8.05617 15.3457C8.05617 15.3457 0.321205 21.3057 0.487507 30.5579C0.653809 39.81 11.3049 48.2097 22.4896 43.399C23.2245 39.909 18.7072 36.2211 17.4348 35.2658C16.0116 34.204 3.86769 26.9727 8.05617 15.3457Z" fill="#DCDCDC"/>
</svg>
