<svg width="76" height="441" viewBox="0 0 76 441" fill="none" xmlns="http://www.w3.org/2000/svg">
<path d="M8.26074 440.937L8.26074 410.234C8.26074 402.894 9.6341 396.408 12.3907 390.776C15.1473 385.143 19.0204 380.766 24.0198 377.643C29.0193 374.521 34.8487 372.964 41.4882 372.964C48.1278 372.964 53.9572 374.521 58.9566 377.643C63.9561 380.766 67.839 385.143 70.5858 390.776C73.3424 396.408 74.7157 402.894 74.7157 410.234L74.7157 440.937L8.26074 440.937ZM62.0986 411.007C62.0986 404.25 60.2509 398.858 56.5458 394.832C52.8506 390.806 47.8314 388.798 41.4981 388.798C35.1648 388.798 30.1456 390.806 26.4504 394.832C22.7453 398.858 20.8977 404.25 20.8977 411.007L20.8977 425.294L62.1084 425.294L62.1084 411.007L62.0986 411.007Z" fill="#FF6610"/>
<path d="M53.3654 311.647L53.3654 350.944C56.5271 350.231 59.0268 348.564 60.8646 345.924C62.7023 343.283 63.6212 340 63.6212 336.074C63.6212 333.374 63.226 330.974 62.4355 328.886C61.6451 326.797 60.3903 324.85 58.681 323.042L67.2275 315.03C72.7308 319.92 75.4874 327.068 75.4874 336.466C75.4874 342.319 74.3611 347.51 72.1183 352.008C69.8754 356.516 66.7532 359.99 62.7616 362.44C58.7699 364.89 54.2448 366.104 49.186 366.104C44.1866 366.104 39.6812 364.9 35.6599 362.48C31.6386 360.07 28.5065 356.747 26.2637 352.53C24.0209 348.313 22.8945 343.605 22.8945 338.384C22.8945 333.303 23.9715 328.695 26.1254 324.578C28.2793 320.462 31.362 317.229 35.3832 314.88C39.4045 312.53 44.068 311.356 49.3836 311.356C49.5615 311.356 50.8953 311.456 53.3654 311.647ZM36.9345 346.888C38.8315 349.207 41.43 350.623 44.7201 351.135L44.7201 325.552C41.4893 326.064 38.9105 327.48 36.9839 329.799C35.0473 332.119 34.0889 334.95 34.0889 338.293C34.0889 341.707 35.0374 344.578 36.9345 346.888Z" fill="#FF6610"/>
<path d="M72.1169 291.136C69.8741 295.544 66.7519 298.988 62.7603 301.468C58.7686 303.948 54.2434 305.183 49.1847 305.183C44.126 305.183 39.6008 303.948 35.6091 301.468C31.6175 298.988 28.5052 295.544 26.2525 291.136C24.0097 286.729 22.8833 281.759 22.8833 276.217C22.8833 270.745 24.0097 265.966 26.2525 261.879C28.4953 257.793 31.7064 254.811 35.8858 252.944L42.061 264.63C37.3777 267.331 35.0361 271.227 35.0361 276.317C35.0361 280.243 36.3008 283.496 38.8301 286.066C41.3694 288.636 44.8176 289.932 49.1847 289.932C53.5518 289.932 57 288.646 59.5393 286.066C62.0686 283.496 63.3333 280.243 63.3333 276.317C63.3333 271.166 60.9917 267.271 56.3084 264.63L62.5725 252.944C66.6235 254.811 69.7852 257.783 72.0675 261.879C74.3499 265.966 75.4861 270.745 75.4861 276.217C75.4861 281.749 74.3696 286.719 72.1169 291.136Z" fill="#FF6610"/>
<path d="M72.1169 234.932C69.8741 239.279 66.7519 242.673 62.7603 245.122C58.7686 247.572 54.2434 248.787 49.1847 248.787C44.126 248.787 39.6008 247.562 35.6091 245.122C31.6175 242.673 28.5052 239.279 26.2525 234.932C24.0097 230.584 22.8833 225.675 22.8833 220.203C22.8833 214.731 24.0097 209.841 26.2525 205.524C28.4953 201.217 31.6175 197.833 35.6091 195.383C39.6008 192.934 44.126 191.719 49.1847 191.719C54.2434 191.719 58.7686 192.944 62.7603 195.383C66.7519 197.833 69.8642 201.207 72.1169 205.524C74.3696 209.831 75.4861 214.731 75.4861 220.203C75.4861 225.685 74.3696 230.594 72.1169 234.932ZM59.48 210.705C56.921 208.225 53.4826 206.99 49.1847 206.99C44.8868 206.99 41.4484 208.235 38.8795 210.705C36.3205 213.185 35.0361 216.357 35.0361 220.213C35.0361 224.078 36.3106 227.261 38.8795 229.771C41.4484 232.281 44.8769 233.536 49.1847 233.536C53.4925 233.536 56.921 232.281 59.48 229.771C62.0489 227.261 63.3234 224.078 63.3234 220.213C63.3333 216.347 62.0489 213.175 59.48 210.705Z" fill="#FF6610"/>
<path d="M20.6013 165.636L38.1684 165.636L38.1684 134.35L50.5188 134.35L50.5188 165.636L74.7256 165.636L74.7256 181.278L8.26074 181.278L8.26074 130.194L20.6012 130.194L20.6013 165.636Z" fill="#FF6610"/>
<path d="M14.1486 120.825C12.5678 122.562 10.6016 123.436 8.25994 123.436C5.91831 123.436 3.95213 122.562 2.37128 120.825C0.790425 119.088 -2.88336e-07 116.839 -4.09464e-07 114.068C-5.30152e-07 111.307 0.760784 109.048 2.28235 107.311C3.80392 105.574 5.70094 104.701 7.98329 104.701C10.4534 104.701 12.4887 105.574 14.0992 107.311C15.7196 109.048 16.5199 111.307 16.5199 114.068C16.5199 116.839 15.7295 119.088 14.1486 120.825ZM23.6436 121.598L23.6436 106.538L74.7248 106.538L74.7248 121.598L23.6436 121.598Z" fill="#FF6610"/>
<path d="M24.7803 70.8671C23.5156 67.8149 22.8833 64.2908 22.8833 60.2948L36.5577 60.2948C36.4391 61.9715 36.3699 63.0961 36.3699 63.6784C36.3699 67.9856 37.5556 71.3692 39.9367 73.819C42.308 76.2688 45.8649 77.4837 50.6173 77.4837L74.7352 77.4837L74.7352 92.5439L23.654 92.5439L23.654 78.1563L30.3923 78.1563C27.9124 76.3491 26.0549 73.9194 24.7803 70.8671Z" fill="#FF6610"/>
<path d="M53.364 1.19536L53.364 40.4926C56.5257 39.7798 59.0254 38.1131 60.8631 35.4725C62.7009 32.832 63.6197 29.5489 63.6197 25.6232C63.6197 22.9224 63.2245 20.5227 62.4341 18.4344C61.6437 16.346 60.3889 14.3982 58.6796 12.591L67.226 4.57893C72.7294 9.4685 75.486 16.6171 75.486 26.0147C75.486 31.8682 74.3596 37.0589 72.1168 41.5569C69.874 46.065 66.7518 49.5388 62.7601 51.9887C58.7685 54.4385 54.2433 55.6533 49.1846 55.6533C44.1851 55.6533 39.6797 54.4485 35.6584 52.0289C31.6371 49.6192 28.5051 46.2959 26.2623 42.079C24.0194 37.8621 22.8931 33.1533 22.8931 27.9324C22.8931 22.8521 23.97 18.2436 26.1239 14.1272C28.2778 10.0107 31.3605 6.77773 35.3818 4.42833C39.4031 2.07892 44.0666 0.904212 49.3822 0.904212C49.56 0.904212 50.8939 1.0046 53.364 1.19536ZM36.933 36.4364C38.83 38.7557 41.4285 40.1714 44.7187 40.6834L44.7187 15.101C41.4878 15.6131 38.9091 17.0288 36.9824 19.3481C35.0459 21.6673 34.0875 24.4986 34.0875 27.842C34.0875 31.2557 35.036 34.1171 36.933 36.4364Z" fill="#FF6610"/>
</svg>
