<svg width="698" height="1002" viewBox="0 0 698 1002" fill="none" xmlns="http://www.w3.org/2000/svg">
<mask id="mask0_45_1381" style="mask-type:alpha" maskUnits="userSpaceOnUse" x="4" y="0" width="739" height="994">
<rect x="4.07812" width="738.922" height="994" fill="#C4C4C4"/>
</mask>
<g mask="url(#mask0_45_1381)">
<path d="M225.634 -77.2373C225.634 -77.2373 -20.4284 114.769 -72.3213 327.834C-124.214 540.899 -33.2944 613.159 -5.5252 656.929C22.3512 700.698 118.846 774.816 167.63 809.708C216.414 844.599 340.785 934.305 333.816 1047.34C607.327 892.188 586.955 630.812 477.701 521.905C477.701 521.905 522.625 672.826 466.551 729.395C489.281 625.753 432.241 495.375 368.126 410.521C304.01 325.666 176.958 149.66 225.634 -77.2373Z" fill="#181818"/>
<path d="M-91.0094 295.624C-91.0094 295.624 -305.443 457.281 -300.833 708.231C-296.223 959.181 -0.947113 1187.01 309.124 1056.53C329.496 961.865 204.266 861.836 168.992 835.925C129.536 807.125 -207.125 610.989 -91.0094 295.624Z" fill="#181818"/>
</g>
</svg>
