<svg width="164" height="44" viewBox="0 0 164 44" fill="none" xmlns="http://www.w3.org/2000/svg">
<path d="M40.7686 7.30371H49.2061C51.223 7.30371 53.0055 7.69108 54.5534 8.4686C56.1013 9.24612 57.3043 10.3385 58.1624 11.7487C59.0205 13.1588 59.4481 14.803 59.4481 16.6758C59.4481 18.5485 59.0205 20.1927 58.1624 21.6028C57.3043 23.013 56.1013 24.1082 54.5534 24.8829C53.0055 25.6604 51.223 26.0478 49.2061 26.0478H40.7686V7.30371ZM48.9936 22.489C50.8506 22.489 52.3322 21.9679 53.4387 20.9229C54.5451 19.8806 55.0969 18.4649 55.0969 16.6785C55.0969 14.8922 54.5451 13.4765 53.4387 12.4342C52.3322 11.3892 50.8506 10.868 48.9936 10.868H45.0673V22.4918H48.9936V22.489Z" fill="white"/>
<path d="M76.2987 20.0262H65.4993C65.6952 20.9179 66.1532 21.623 66.8789 22.1414C67.6046 22.6597 68.5068 22.9189 69.5856 22.9189C70.3278 22.9189 70.9873 22.8074 71.5612 22.5845C72.1351 22.3615 72.6704 22.0076 73.167 21.5255L75.3688 23.9361C74.0251 25.4883 72.0606 26.2658 69.478 26.2658C67.8694 26.2658 66.443 25.9481 65.2069 25.3155C63.968 24.6829 63.0133 23.8023 62.3401 22.6764C61.6669 21.5506 61.333 20.2742 61.333 18.8473C61.333 17.4372 61.6641 16.1664 62.3291 15.0322C62.9913 13.898 63.9045 13.0145 65.0634 12.3819C66.2222 11.7493 67.5163 11.4316 68.951 11.4316C70.3472 11.4316 71.6136 11.7354 72.7449 12.3429C73.8761 12.9505 74.7646 13.8199 75.4102 14.9542C76.0558 16.0884 76.3787 17.4038 76.3787 18.9031C76.3787 18.9532 76.3511 19.3295 76.2987 20.0262ZM66.614 15.3917C65.9767 15.9268 65.5876 16.6597 65.4469 17.5877H72.4772C72.3365 16.6764 71.9475 15.9491 71.3101 15.4056C70.6727 14.8594 69.8947 14.5891 68.9759 14.5891C68.0377 14.5891 67.2486 14.8566 66.614 15.3917Z" fill="white"/>
<path d="M81.9353 25.3154C80.724 24.6828 79.7776 23.8022 79.0961 22.6763C78.4146 21.5504 78.0752 20.274 78.0752 18.8472C78.0752 17.4204 78.4146 16.144 79.0961 15.0181C79.7776 13.8923 80.724 13.0144 81.9353 12.379C83.1466 11.7464 84.5123 11.4287 86.0354 11.4287C87.5391 11.4287 88.8525 11.7464 89.9755 12.379C91.0985 13.0116 91.918 13.9173 92.4312 15.0962L89.2195 16.8379C88.4773 15.517 87.4067 14.8565 86.0078 14.8565C84.929 14.8565 84.035 15.2132 83.3287 15.9266C82.6223 16.6428 82.2664 17.6154 82.2664 18.8472C82.2664 20.079 82.6196 21.0516 83.3287 21.7678C84.035 22.4812 84.929 22.8379 86.0078 22.8379C87.4233 22.8379 88.4938 22.1774 89.2195 20.8565L92.4312 22.6233C91.918 23.7659 91.1012 24.6577 89.9755 25.3015C88.8525 25.9452 87.5391 26.2657 86.0354 26.2657C84.5151 26.2657 83.1493 25.9508 81.9353 25.3154Z" fill="white"/>
<path d="M97.3819 25.3154C96.1871 24.6828 95.2546 23.8022 94.5813 22.6763C93.9081 21.5504 93.5742 20.274 93.5742 18.8472C93.5742 17.4204 93.9108 16.144 94.5813 15.0181C95.2546 13.8923 96.1871 13.0144 97.3819 12.379C98.5766 11.7464 99.9258 11.4287 101.43 11.4287C102.933 11.4287 104.277 11.7464 105.463 12.379C106.647 13.0116 107.577 13.8923 108.25 15.0181C108.923 16.144 109.257 17.4204 109.257 18.8472C109.257 20.274 108.921 21.5504 108.25 22.6763C107.577 23.8022 106.65 24.68 105.463 25.3154C104.28 25.9508 102.933 26.2657 101.43 26.2657C99.9231 26.2657 98.5738 25.9508 97.3819 25.3154ZM104.04 21.7511C104.721 21.0293 105.061 20.0595 105.061 18.8472C105.061 17.6349 104.718 16.6651 104.04 15.9406C103.358 15.2188 102.486 14.8565 101.427 14.8565C100.365 14.8565 99.4899 15.216 98.8001 15.9406C98.1103 16.6651 97.7654 17.6322 97.7654 18.8472C97.7654 20.0623 98.1103 21.0293 98.8001 21.7511C99.4899 22.4756 100.365 22.8351 101.427 22.8351C102.489 22.8379 103.361 22.4756 104.04 21.7511Z" fill="white"/>
<path d="M41.9829 37.9059C41.5332 37.6496 41.1828 37.2956 40.9234 36.8442C40.6668 36.3927 40.5371 35.8799 40.5371 35.3086C40.5371 34.7373 40.6668 34.2273 40.9234 33.7731C41.18 33.3216 41.5332 32.9677 41.9829 32.7169C42.4299 32.4633 42.9348 32.3379 43.4922 32.3379C44.0495 32.3379 44.5545 32.4633 45.0014 32.7169C45.4484 32.9677 45.8016 33.3216 46.0527 33.7731C46.3065 34.2273 46.4335 34.7373 46.4335 35.3086C46.4335 35.8799 46.3065 36.3927 46.0527 36.8442C45.7988 37.2956 45.4484 37.6496 45.0014 37.9059C44.5545 38.1623 44.0495 38.2905 43.4922 38.2905C42.9321 38.2905 42.4299 38.1623 41.9829 37.9059ZM44.5986 37.304C44.9269 37.1145 45.1808 36.847 45.3657 36.4986C45.5478 36.1502 45.6416 35.7517 45.6416 35.3086C45.6416 34.8627 45.5505 34.467 45.3657 34.1187C45.1836 33.7703 44.9269 33.5 44.5986 33.3105C44.2703 33.121 43.9033 33.0262 43.4922 33.0262C43.0811 33.0262 42.7113 33.121 42.383 33.3105C42.0547 33.5 41.7981 33.7675 41.6104 34.1187C41.4228 34.467 41.329 34.8627 41.329 35.3086C41.329 35.7545 41.4228 36.1502 41.6104 36.4986C41.7981 36.847 42.0547 37.1173 42.383 37.304C42.7113 37.4935 43.0783 37.5882 43.4922 37.5882C43.9033 37.5882 44.273 37.4935 44.5986 37.304Z" fill="white"/>
<path d="M52.6392 33.0841H49.3227V38.2341H48.5391V32.3818H52.6392V33.0841Z" fill="white"/>
<path d="M54.8208 37.9059C54.3711 37.6496 54.0206 37.2956 53.7613 36.8442C53.5047 36.3927 53.375 35.8799 53.375 35.3086C53.375 34.7373 53.5047 34.2273 53.7613 33.7731C54.0179 33.3216 54.3711 32.9677 54.8208 32.7169C55.2678 32.4633 55.7727 32.3379 56.3301 32.3379C56.8874 32.3379 57.3924 32.4633 57.8393 32.7169C58.2863 32.9677 58.6395 33.3216 58.8906 33.7731C59.1444 34.2273 59.2713 34.7373 59.2713 35.3086C59.2713 35.8799 59.1444 36.3927 58.8906 36.8442C58.6367 37.2956 58.2863 37.6496 57.8393 37.9059C57.3924 38.1623 56.8874 38.2905 56.3301 38.2905C55.7727 38.2905 55.2706 38.1623 54.8208 37.9059ZM57.4393 37.304C57.7676 37.1145 58.0214 36.847 58.2063 36.4986C58.3884 36.1503 58.4822 35.7517 58.4822 35.3086C58.4822 34.8627 58.3912 34.467 58.2063 34.1187C58.0242 33.7703 57.7676 33.5 57.4393 33.3105C57.1109 33.121 56.7439 33.0262 56.3328 33.0262C55.9217 33.0262 55.552 33.121 55.2236 33.3105C54.8953 33.5 54.6387 33.7675 54.4511 34.1187C54.2635 34.467 54.1696 34.8627 54.1696 35.3086C54.1696 35.7545 54.2635 36.1503 54.4511 36.4986C54.6387 36.847 54.8953 37.1173 55.2236 37.304C55.552 37.4935 55.919 37.5882 56.3328 37.5882C56.7439 37.5882 57.1109 37.4935 57.4393 37.304Z" fill="white"/>
<path d="M61.3789 32.3818H62.1625V34.9736H65.8101V32.3818H66.5937V38.2341H65.8101V35.6536H62.1625V38.2341H61.3789V32.3818Z" fill="white"/>
<path d="M73.3979 34.9401C73.7759 35.2578 73.9663 35.7176 73.9663 36.3196C73.9663 36.9438 73.7621 37.4204 73.3537 37.7548C72.9454 38.0892 72.3549 38.2509 71.5851 38.2453L69.248 38.2341V32.3818H70.0317V34.4301L71.7396 34.4524C72.4653 34.458 73.0199 34.6224 73.3979 34.9401ZM72.7577 37.3145C73.0336 37.0888 73.1716 36.7571 73.1716 36.3196C73.1716 35.8904 73.0364 35.5699 72.7632 35.3637C72.4901 35.1575 72.0845 35.0488 71.5409 35.0405L70.0317 35.0182V37.621L71.5409 37.6433C72.0762 37.6517 72.4818 37.543 72.7577 37.3145Z" fill="white"/>
<path d="M81.3064 35.6313H79.9848V38.2341H79.2012V32.3818H79.9848V34.9513H81.3175L83.3565 32.3818H84.2063L81.9245 35.2188L84.3719 38.2341H83.4448L81.3064 35.6313Z" fill="white"/>
<path d="M89.6622 32.9118C90.065 33.2936 90.2692 33.8593 90.2692 34.609V38.2346H89.5187V37.3234C89.3421 37.6271 89.0827 37.864 88.7433 38.034C88.4012 38.204 87.9956 38.2904 87.5265 38.2904C86.8808 38.2904 86.3649 38.1343 85.9841 37.8222C85.6033 37.5101 85.4102 37.1004 85.4102 36.5876C85.4102 36.0916 85.5895 35.6903 85.9455 35.3865C86.3014 35.0828 86.8698 34.9295 87.6479 34.9295H89.4883V34.5728C89.4883 34.0684 89.3476 33.6838 89.0689 33.4218C88.7902 33.1599 88.3819 33.0261 87.8466 33.0261C87.4796 33.0261 87.1264 33.0874 86.787 33.21C86.4504 33.3326 86.1579 33.4998 85.9179 33.7144L85.5647 33.1264C85.8599 32.8728 86.2103 32.6805 86.6242 32.5412C87.0354 32.4046 87.4686 32.335 87.9238 32.335C88.6771 32.3377 89.2593 32.53 89.6622 32.9118ZM88.782 37.3596C89.0965 37.1561 89.3338 36.8607 89.4883 36.4762V35.5203H87.6672C86.6767 35.5203 86.18 35.8686 86.18 36.5653C86.18 36.9053 86.3097 37.1757 86.5663 37.3707C86.8229 37.5658 87.1844 37.6661 87.6479 37.6661C88.0866 37.6661 88.4646 37.5658 88.782 37.3596Z" fill="white"/>
<path d="M94.8874 35.6313H93.5658V38.2341H92.7822V32.3818H93.5658V34.9513H94.8985L96.9374 32.3818H97.7872L95.5055 35.2188L97.9528 38.2341H97.0285L94.8874 35.6313Z" fill="white"/>
<path d="M102.932 32.3818H103.715V37.033L107.584 32.3818H108.279V38.2341H107.495V33.583L103.638 38.2341H102.932V32.3818Z" fill="white"/>
<path d="M111.832 37.9115C111.38 37.6607 111.027 37.3068 110.767 36.8498C110.511 36.3927 110.381 35.8799 110.381 35.3086C110.381 34.7373 110.511 34.2274 110.767 33.7731C111.024 33.3216 111.38 32.9677 111.832 32.7169C112.285 32.4633 112.798 32.3379 113.369 32.3379C113.868 32.3379 114.315 32.4354 114.707 32.6333C115.099 32.8284 115.411 33.1182 115.637 33.4944L115.052 33.8957C114.862 33.6059 114.619 33.3885 114.324 33.2436C114.028 33.0987 113.711 33.0262 113.366 33.0262C112.947 33.0262 112.572 33.121 112.235 33.3105C111.901 33.5 111.639 33.7675 111.451 34.1187C111.264 34.467 111.17 34.8628 111.17 35.3086C111.17 35.7601 111.264 36.1586 111.451 36.5042C111.639 36.8498 111.898 37.1173 112.235 37.304C112.569 37.4935 112.947 37.5883 113.366 37.5883C113.711 37.5883 114.031 37.5186 114.324 37.3765C114.619 37.2343 114.859 37.0198 115.052 36.7299L115.637 37.1312C115.408 37.5102 115.096 37.7973 114.702 37.9924C114.304 38.1874 113.86 38.2878 113.369 38.2878C112.798 38.2906 112.285 38.1651 111.832 37.9115Z" fill="white"/>
<path d="M119.683 35.6313H118.362V38.2341H117.578V32.3818H118.362V34.9513H119.694L121.733 32.3818H122.583L120.301 35.2188L122.749 38.2341H121.824L119.683 35.6313Z" fill="white"/>
<path d="M129.01 32.3827L126.11 38.9345C125.875 39.4835 125.602 39.8736 125.293 40.1021C124.984 40.3307 124.614 40.4477 124.178 40.4477C123.9 40.4477 123.638 40.4031 123.395 40.3139C123.152 40.2248 122.942 40.091 122.766 39.9126L123.13 39.3246C123.425 39.62 123.775 39.7705 124.187 39.7705C124.451 39.7705 124.678 39.6953 124.865 39.5476C125.053 39.3999 125.227 39.1463 125.39 38.7895L125.643 38.221L123.053 32.3799H123.869L126.052 37.3516L128.234 32.3799H129.01V32.3827Z" fill="white"/>
<path d="M131.385 37.9115C130.932 37.6607 130.579 37.3068 130.32 36.8498C130.063 36.3927 129.934 35.8799 129.934 35.3086C129.934 34.7373 130.063 34.2274 130.32 33.7731C130.576 33.3216 130.932 32.9677 131.385 32.7169C131.837 32.4633 132.351 32.3379 132.922 32.3379C133.421 32.3379 133.868 32.4354 134.26 32.6333C134.652 32.8284 134.964 33.1182 135.19 33.4944L134.605 33.8957C134.414 33.6059 134.172 33.3885 133.876 33.2436C133.581 33.0987 133.264 33.0262 132.919 33.0262C132.5 33.0262 132.124 33.121 131.788 33.3105C131.454 33.5 131.192 33.7675 131.004 34.1187C130.817 34.467 130.723 34.8628 130.723 35.3086C130.723 35.7601 130.817 36.1586 131.004 36.5042C131.192 36.8498 131.451 37.1173 131.788 37.304C132.122 37.4935 132.5 37.5883 132.919 37.5883C133.264 37.5883 133.584 37.5186 133.876 37.3765C134.172 37.2343 134.412 37.0198 134.605 36.7299L135.19 37.1312C134.961 37.5102 134.649 37.7973 134.254 37.9924C133.857 38.1874 133.413 38.2878 132.922 38.2878C132.348 38.2906 131.837 38.1651 131.385 37.9115Z" fill="white"/>
<path d="M137.922 37.9115C137.47 37.6607 137.116 37.3068 136.857 36.8498C136.6 36.3927 136.471 35.8799 136.471 35.3086C136.471 34.7373 136.6 34.2274 136.857 33.7731C137.114 33.3216 137.47 32.9677 137.922 32.7169C138.375 32.4633 138.888 32.3379 139.459 32.3379C139.958 32.3379 140.405 32.4354 140.797 32.6333C141.189 32.8284 141.501 33.1182 141.727 33.4944L141.142 33.8957C140.952 33.6059 140.709 33.3885 140.414 33.2436C140.118 33.0987 139.801 33.0262 139.456 33.0262C139.037 33.0262 138.661 33.121 138.325 33.3105C137.991 33.5 137.729 33.7675 137.541 34.1187C137.354 34.467 137.26 34.8628 137.26 35.3086C137.26 35.7601 137.354 36.1586 137.541 36.5042C137.729 36.8498 137.988 37.1173 138.325 37.304C138.659 37.4935 139.037 37.5883 139.456 37.5883C139.801 37.5883 140.121 37.5186 140.414 37.3765C140.709 37.2343 140.949 37.0198 141.142 36.7299L141.727 37.1312C141.498 37.5102 141.186 37.7973 140.792 37.9924C140.394 38.1874 139.95 38.2878 139.459 38.2878C138.885 38.2906 138.372 38.1651 137.922 37.9115Z" fill="white"/>
<path d="M147.637 33.0843H145.444V38.2343H144.66V33.0843H142.467V32.3848H147.637V33.0843Z" fill="white"/>
<path d="M154.074 36.6429C154.074 37.1556 153.886 37.5486 153.511 37.8217C153.136 38.0948 152.578 38.2341 151.836 38.2341H149.201V32.3818H151.759C152.421 32.3818 152.94 32.5128 153.312 32.772C153.688 33.0312 153.875 33.4018 153.875 33.8839C153.875 34.2016 153.79 34.4747 153.616 34.7005C153.442 34.9262 153.202 35.0962 152.893 35.2049C153.679 35.3944 154.074 35.8709 154.074 36.6429ZM149.96 34.9847H151.701C152.148 34.9847 152.493 34.9011 152.733 34.7283C152.97 34.5583 153.092 34.3103 153.092 33.9843C153.092 33.6582 152.973 33.413 152.733 33.2513C152.493 33.0897 152.151 33.0061 151.701 33.0061H149.96V34.9847ZM152.926 37.3647C153.177 37.203 153.301 36.9466 153.301 36.5983C153.301 36.2499 153.188 35.9935 152.959 35.8263C152.73 35.6591 152.371 35.5755 151.88 35.5755H149.963V37.6127H151.803C152.302 37.6099 152.678 37.5291 152.926 37.3647Z" fill="white"/>
<path d="M157.213 37.9059C156.764 37.6496 156.413 37.2956 156.154 36.8442C155.897 36.3927 155.768 35.8799 155.768 35.3086C155.768 34.7373 155.897 34.2273 156.154 33.7731C156.41 33.3216 156.764 32.9677 157.213 32.7169C157.66 32.4633 158.165 32.3379 158.723 32.3379C159.28 32.3379 159.785 32.4633 160.232 32.7169C160.679 32.9677 161.032 33.3216 161.283 33.7731C161.537 34.2273 161.664 34.7373 161.664 35.3086C161.664 35.8799 161.537 36.3927 161.283 36.8442C161.029 37.2956 160.679 37.6496 160.232 37.9059C159.785 38.1623 159.28 38.2905 158.723 38.2905C158.165 38.2905 157.663 38.1623 157.213 37.9059ZM159.832 37.304C160.16 37.1145 160.414 36.847 160.599 36.4986C160.781 36.1503 160.875 35.7517 160.875 35.3086C160.875 34.8627 160.784 34.467 160.599 34.1187C160.417 33.7703 160.16 33.5 159.832 33.3105C159.503 33.121 159.136 33.0262 158.725 33.0262C158.314 33.0262 157.945 33.121 157.616 33.3105C157.288 33.5 157.031 33.7675 156.844 34.1187C156.656 34.467 156.562 34.8627 156.562 35.3086C156.562 35.7545 156.656 36.1503 156.844 36.4986C157.031 36.847 157.288 37.1173 157.616 37.304C157.945 37.4935 158.312 37.5882 158.725 37.5882C159.136 37.5882 159.503 37.4935 159.832 37.304Z" fill="white"/>
<path d="M116.425 10.7844V15.7394H125.022V19.2229H116.425V26.0506H112.126V7.30368H126.165V10.7844H116.425Z" fill="#FF5710"/>
<path d="M128.739 8.96435C128.262 8.51846 128.021 7.96388 128.021 7.30341C128.021 6.64293 128.262 6.08836 128.739 5.64247C129.216 5.19658 129.834 4.97363 130.596 4.97363C131.355 4.97363 131.975 5.18822 132.453 5.61739C132.93 6.04656 133.17 6.58162 133.17 7.22538C133.17 7.92208 132.93 8.49616 132.453 8.95041C131.975 9.40745 131.355 9.63318 130.596 9.63318C129.834 9.63318 129.216 9.41024 128.739 8.96435ZM128.526 11.6425H132.665V26.0503H128.526V11.6425Z" fill="#FF5710"/>
<path d="M142.468 11.9628C143.307 11.6061 144.275 11.4277 145.373 11.4277V15.2847C144.912 15.2512 144.603 15.2317 144.443 15.2317C143.26 15.2317 142.33 15.5662 141.657 16.2378C140.983 16.9066 140.649 17.9099 140.649 19.2503V26.0529H136.511V11.6451H140.465V13.5457C140.961 12.8462 141.629 12.3223 142.468 11.9628Z" fill="#FF5710"/>
<path d="M161.615 20.0252H150.816C151.012 20.917 151.47 21.622 152.195 22.1404C152.921 22.6587 153.823 22.9179 154.902 22.9179C155.644 22.9179 156.304 22.8064 156.878 22.5835C157.452 22.3605 157.987 22.0066 158.483 21.5245L160.685 23.9351C159.342 25.4873 157.377 26.2649 154.794 26.2649C153.186 26.2649 151.759 25.9472 150.523 25.3146C149.284 24.682 148.33 23.8013 147.657 22.6755C146.983 21.5496 146.649 20.2732 146.649 18.8464C146.649 17.4362 146.981 16.1655 147.645 15.0312C148.308 13.897 149.221 13.0136 150.38 12.381C151.539 11.7484 152.833 11.4307 154.267 11.4307C155.664 11.4307 156.93 11.7344 158.061 12.342C159.193 12.9495 160.081 13.819 160.727 14.9532C161.372 16.0874 161.695 17.4028 161.695 18.9021C161.695 18.9523 161.668 19.3285 161.615 20.0252ZM151.93 15.3907C151.293 15.9258 150.904 16.6587 150.763 17.5867H157.794C157.653 16.6754 157.264 15.9481 156.627 15.4047C155.989 14.8584 155.211 14.5881 154.292 14.5881C153.354 14.5881 152.568 14.8557 151.93 15.3907Z" fill="#FF5710"/>
<path d="M18.572 1.4668C18.572 1.4668 10.7459 7.87302 9.09547 14.9819C7.44501 22.0907 10.3367 24.5017 11.2199 25.962C12.1065 27.4223 15.1756 29.8953 16.7271 31.0594C18.2787 32.2236 22.2343 35.2166 22.0127 38.988C30.7117 33.8113 30.0638 25.0906 26.589 21.457C26.589 21.457 28.0178 26.4924 26.2343 28.3798C26.9572 24.9218 25.1431 20.5718 23.1039 17.7407C21.0647 14.9095 17.0238 9.03716 18.572 1.4668Z" fill="#FF5710"/>
<path d="M7.10351 15.3545C7.10351 15.3545 0.283434 20.7481 0.430065 29.121C0.576697 37.4939 9.96795 45.0952 19.8298 40.7417C20.4777 37.5834 16.4948 34.246 15.3729 33.3815C14.118 32.4205 3.41044 25.8765 7.10351 15.3545Z" fill="#FF5710"/>
</svg>
