<svg width="184" height="46" viewBox="0 0 184 46" fill="none" xmlns="http://www.w3.org/2000/svg">
<path d="M46.2373 6.94965H55.8067C58.0942 6.94965 60.1158 7.37769 61.8713 8.23686C63.6268 9.09604 64.9912 10.3032 65.9644 11.8614C66.9376 13.4196 67.4227 15.2365 67.4227 17.3059C67.4227 19.3753 66.9376 21.1922 65.9644 22.7504C64.9912 24.3086 63.6268 25.5188 61.8713 26.3749C60.1158 27.2341 58.0942 27.6622 55.8067 27.6622H46.2373V6.94965ZM55.5658 23.7297C57.6718 23.7297 59.3522 23.1538 60.6071 21.999C61.8619 20.8473 62.4878 19.2829 62.4878 17.309C62.4878 15.335 61.8619 13.7707 60.6071 12.6189C59.3522 11.4641 57.6718 10.8883 55.5658 10.8883H51.1128V23.7328H55.5658V23.7297Z" fill="white"/>
<path d="M86.5333 21.0076H74.2853C74.5075 21.9931 75.0269 22.7722 75.8499 23.345C76.6729 23.9177 77.6962 24.2041 78.9197 24.2041C79.7615 24.2041 80.5094 24.081 81.1603 23.8346C81.8112 23.5882 82.4183 23.1971 82.9815 22.6644L85.4787 25.3281C83.9548 27.0434 81.7267 27.9026 78.7977 27.9026C76.9733 27.9026 75.3555 27.5515 73.9536 26.8525C72.5485 26.1534 71.4658 25.1803 70.7022 23.9362C69.9387 22.6921 69.5601 21.2817 69.5601 19.705C69.5601 18.1468 69.9356 16.7426 70.6897 15.4892C71.4408 14.2359 72.4766 13.2597 73.7909 12.5607C75.1051 11.8616 76.5728 11.5106 78.2 11.5106C79.7834 11.5106 81.2198 11.8462 82.5028 12.5175C83.7858 13.1889 84.7934 14.1497 85.5257 15.403C86.2579 16.6564 86.624 18.1099 86.624 19.7666C86.624 19.822 86.5927 20.2378 86.5333 21.0076ZM75.5495 15.8865C74.8266 16.4777 74.3854 17.2876 74.2258 18.3131H82.1992C82.0396 17.3061 81.5984 16.5024 80.8755 15.9019C80.1527 15.2983 79.2702 14.9996 78.2282 14.9996C77.1642 14.9996 76.2692 15.2952 75.5495 15.8865Z" fill="white"/>
<path d="M92.9262 26.8523C91.5525 26.1533 90.4791 25.1802 89.7062 23.9361C88.9332 22.692 88.5483 21.2816 88.5483 19.7049C88.5483 18.1282 88.9332 16.7178 89.7062 15.4737C90.4791 14.2296 91.5525 13.2595 92.9262 12.5574C94.3 11.8584 95.849 11.5073 97.5764 11.5073C99.2818 11.5073 100.771 11.8584 102.045 12.5574C103.319 13.2565 104.248 14.2573 104.83 15.5599L101.188 17.4846C100.346 16.0249 99.1316 15.2951 97.5451 15.2951C96.3215 15.2951 95.3076 15.6892 94.5065 16.4776C93.7054 17.269 93.3017 18.3437 93.3017 19.7049C93.3017 21.066 93.7023 22.1407 94.5065 22.9322C95.3076 23.7205 96.3215 24.1147 97.5451 24.1147C99.1504 24.1147 100.365 23.3848 101.188 21.9252L104.83 23.8776C104.248 25.1401 103.322 26.1256 102.045 26.8369C100.771 27.5483 99.2818 27.9024 97.5764 27.9024C95.8521 27.9024 94.3031 27.5544 92.9262 26.8523Z" fill="white"/>
<path d="M110.444 26.8523C109.089 26.1533 108.032 25.1802 107.268 23.9361C106.505 22.692 106.126 21.2816 106.126 19.7049C106.126 18.1282 106.508 16.7178 107.268 15.4737C108.032 14.2296 109.089 13.2595 110.444 12.5574C111.799 11.8584 113.33 11.5073 115.035 11.5073C116.741 11.5073 118.265 11.8584 119.61 12.5574C120.953 13.2565 122.007 14.2296 122.771 15.4737C123.534 16.7178 123.913 18.1282 123.913 19.7049C123.913 21.2816 123.531 22.692 122.771 23.9361C122.007 25.1802 120.956 26.1502 119.61 26.8523C118.268 27.5544 116.741 27.9024 115.035 27.9024C113.326 27.9024 111.796 27.5544 110.444 26.8523ZM117.995 22.9137C118.768 22.1161 119.153 21.0444 119.153 19.7049C119.153 18.3653 118.765 17.2936 117.995 16.493C117.222 15.6954 116.234 15.2951 115.032 15.2951C113.827 15.2951 112.835 15.6923 112.053 16.493C111.271 17.2936 110.879 18.3622 110.879 19.7049C110.879 21.0475 111.271 22.1161 112.053 22.9137C112.835 23.7143 113.827 24.1116 115.032 24.1116C116.237 24.1147 117.226 23.7143 117.995 22.9137Z" fill="white"/>
<path d="M47.6153 40.7661C47.1053 40.4828 46.7078 40.0917 46.4137 39.5929C46.1227 39.094 45.9756 38.5274 45.9756 37.8961C45.9756 37.2648 46.1227 36.7012 46.4137 36.1993C46.7047 35.7004 47.1053 35.3093 47.6153 35.0322C48.1223 34.7519 48.695 34.6134 49.3271 34.6134C49.9592 34.6134 50.5319 34.7519 51.0388 35.0322C51.5458 35.3093 51.9463 35.7004 52.2311 36.1993C52.519 36.7012 52.6629 37.2648 52.6629 37.8961C52.6629 38.5274 52.519 39.094 52.2311 39.5929C51.9432 40.0917 51.5458 40.4828 51.0388 40.7661C50.5319 41.0495 49.9592 41.1911 49.3271 41.1911C48.6918 41.1911 48.1223 41.0495 47.6153 40.7661ZM50.5819 40.101C50.9543 39.8916 51.2422 39.5959 51.4519 39.211C51.6584 38.8261 51.7648 38.3857 51.7648 37.8961C51.7648 37.4034 51.6615 36.9661 51.4519 36.5811C51.2453 36.1962 50.9543 35.8975 50.5819 35.6881C50.2095 35.4787 49.7933 35.374 49.3271 35.374C48.8608 35.374 48.4415 35.4787 48.0691 35.6881C47.6967 35.8975 47.4057 36.1931 47.1929 36.5811C46.9801 36.9661 46.8737 37.4034 46.8737 37.8961C46.8737 38.3888 46.9801 38.8261 47.1929 39.211C47.4057 39.5959 47.6967 39.8947 48.0691 40.101C48.4415 40.3104 48.8577 40.4151 49.3271 40.4151C49.7933 40.4151 50.2127 40.3104 50.5819 40.101Z" fill="white"/>
<path d="M59.7009 35.4384H55.9395V41.1293H55.0508V34.6624H59.7009V35.4384Z" fill="white"/>
<path d="M62.1759 40.7663C61.6658 40.483 61.2684 40.0919 60.9742 39.593C60.6832 39.0941 60.5361 38.5275 60.5361 37.8962C60.5361 37.2649 60.6832 36.7014 60.9742 36.1994C61.2653 35.7006 61.6658 35.3095 62.1759 35.0323C62.6828 34.7521 63.2555 34.6135 63.8876 34.6135C64.5197 34.6135 65.0924 34.7521 65.5993 35.0323C66.1063 35.3095 66.5068 35.7006 66.7916 36.1994C67.0795 36.7014 67.2234 37.2649 67.2234 37.8962C67.2234 38.5275 67.0795 39.0941 66.7916 39.593C66.5037 40.0919 66.1063 40.483 65.5993 40.7663C65.0924 41.0496 64.5197 41.1913 63.8876 41.1913C63.2555 41.1913 62.686 41.0496 62.1759 40.7663ZM65.1456 40.1011C65.518 39.8917 65.8059 39.5961 66.0155 39.2112C66.2221 38.8262 66.3285 38.3859 66.3285 37.8962C66.3285 37.4035 66.2252 36.9662 66.0155 36.5813C65.809 36.1964 65.518 35.8976 65.1456 35.6882C64.7732 35.4788 64.357 35.3741 63.8907 35.3741C63.4245 35.3741 63.0052 35.4788 62.6328 35.6882C62.2604 35.8976 61.9694 36.1933 61.7566 36.5813C61.5438 36.9662 61.4374 37.4035 61.4374 37.8962C61.4374 38.3889 61.5438 38.8262 61.7566 39.2112C61.9694 39.5961 62.2604 39.8948 62.6328 40.1011C63.0052 40.3105 63.4213 40.4152 63.8907 40.4152C64.357 40.4152 64.7732 40.3105 65.1456 40.1011Z" fill="white"/>
<path d="M69.6143 34.6624H70.503V37.5263H74.6399V34.6624H75.5286V41.1293H74.6399V38.2777H70.503V41.1293H69.6143V34.6624Z" fill="white"/>
<path d="M83.2456 37.4893C83.6743 37.8404 83.8902 38.3485 83.8902 39.0137C83.8902 39.7035 83.6587 40.2301 83.1955 40.5996C82.7324 40.9691 82.0627 41.1478 81.1896 41.1416L78.5391 41.1293V34.6624H79.4278V36.9258L81.3649 36.9504C82.1879 36.9566 82.8169 37.1383 83.2456 37.4893ZM82.5196 40.113C82.8325 39.8636 82.989 39.4972 82.989 39.0137C82.989 38.5394 82.8356 38.1853 82.5258 37.9574C82.216 37.7295 81.756 37.6094 81.1395 37.6002L79.4278 37.5756V40.4518L81.1395 40.4764C81.7466 40.4857 82.2066 40.3656 82.5196 40.113Z" fill="white"/>
<path d="M92.2143 38.2531H90.7154V41.1293H89.8267V34.6624H90.7154V37.5017H92.2268L94.5394 34.6624H95.5032L92.9153 37.7973L95.691 41.1293H94.6395L92.2143 38.2531Z" fill="white"/>
<path d="M101.69 35.2476C102.146 35.6695 102.378 36.2946 102.378 37.123V41.1294H101.527V40.1224C101.327 40.4581 101.032 40.7198 100.647 40.9077C100.259 41.0955 99.7994 41.191 99.2674 41.191C98.5351 41.191 97.95 41.0185 97.5181 40.6736C97.0862 40.3287 96.8672 39.876 96.8672 39.3094C96.8672 38.7613 97.0706 38.3178 97.4743 37.9822C97.878 37.6465 98.5226 37.4771 99.4051 37.4771H101.492V37.083C101.492 36.5256 101.333 36.1006 101.017 35.8111C100.701 35.5217 100.238 35.3739 99.6304 35.3739C99.2142 35.3739 98.8137 35.4416 98.4288 35.5771C98.047 35.7126 97.7153 35.8974 97.443 36.1345L97.0424 35.4847C97.3773 35.2045 97.7747 34.992 98.2441 34.838C98.7104 34.6871 99.2017 34.6101 99.7181 34.6101C100.572 34.6132 101.233 34.8257 101.69 35.2476ZM100.691 40.1624C101.048 39.9376 101.317 39.6112 101.492 39.1862V38.13H99.427C98.3036 38.13 97.7403 38.5149 97.7403 39.2848C97.7403 39.6605 97.8874 39.9592 98.1784 40.1747C98.4694 40.3903 98.8794 40.5012 99.4051 40.5012C99.9027 40.5012 100.331 40.3903 100.691 40.1624Z" fill="white"/>
<path d="M107.617 38.253H106.118V41.1293H105.229V34.6624H106.118V37.5017H107.629L109.942 34.6624H110.905L108.318 37.7973L111.093 41.1293H110.045L107.617 38.253Z" fill="white"/>
<path d="M116.741 34.6624H117.63V39.802L122.017 34.6624H122.806V41.1293H121.917V35.9896L117.542 41.1293H116.741V34.6624Z" fill="white"/>
<path d="M126.834 40.7725C126.32 40.4953 125.92 40.1042 125.626 39.5992C125.335 39.0942 125.188 38.5275 125.188 37.8962C125.188 37.2649 125.335 36.7014 125.626 36.1994C125.917 35.7006 126.32 35.3095 126.834 35.0323C127.347 34.7521 127.929 34.6135 128.577 34.6135C129.143 34.6135 129.65 34.7213 130.094 34.9399C130.539 35.1555 130.892 35.4758 131.149 35.8915L130.485 36.3349C130.269 36.0147 129.994 35.7745 129.659 35.6143C129.324 35.4542 128.965 35.3741 128.573 35.3741C128.098 35.3741 127.672 35.4788 127.29 35.6882C126.912 35.8977 126.614 36.1933 126.402 36.5813C126.189 36.9662 126.082 37.4035 126.082 37.8962C126.082 38.3951 126.189 38.8355 126.402 39.2173C126.614 39.5992 126.909 39.8948 127.29 40.1012C127.669 40.3106 128.098 40.4153 128.573 40.4153C128.965 40.4153 129.328 40.3383 129.659 40.1812C129.994 40.0242 130.266 39.787 130.485 39.4668L131.149 39.9102C130.889 40.329 130.535 40.6462 130.088 40.8618C129.637 41.0774 129.134 41.1882 128.577 41.1882C127.929 41.1913 127.347 41.0527 126.834 40.7725Z" fill="white"/>
<path d="M135.74 38.2531H134.241V41.1293H133.352V34.6624H134.241V37.5017H135.752L138.065 34.6624H139.028L136.441 37.7973L139.216 41.1293H138.168L135.74 38.2531Z" fill="white"/>
<path d="M146.316 34.6627L143.028 41.9025C142.762 42.5092 142.452 42.9403 142.101 43.1928C141.751 43.4453 141.331 43.5747 140.837 43.5747C140.521 43.5747 140.224 43.5254 139.948 43.4268C139.673 43.3283 139.435 43.1805 139.235 42.9834L139.648 42.3336C139.983 42.6601 140.38 42.8264 140.846 42.8264C141.147 42.8264 141.403 42.7432 141.616 42.58C141.829 42.4168 142.026 42.1366 142.211 41.7424L142.499 41.1142L139.56 34.6596H140.487L142.962 40.1534L145.437 34.6596H146.316V34.6627Z" fill="white"/>
<path d="M149.011 40.7725C148.498 40.4953 148.097 40.1042 147.803 39.5992C147.512 39.0942 147.365 38.5275 147.365 37.8962C147.365 37.2649 147.512 36.7014 147.803 36.1994C148.094 35.7006 148.498 35.3095 149.011 35.0323C149.524 34.7521 150.106 34.6135 150.754 34.6135C151.32 34.6135 151.827 34.7213 152.271 34.9399C152.716 35.1555 153.069 35.4758 153.326 35.8915L152.663 36.3349C152.447 36.0147 152.171 35.7745 151.837 35.6143C151.502 35.4542 151.142 35.3741 150.751 35.3741C150.275 35.3741 149.849 35.4788 149.468 35.6882C149.089 35.8977 148.792 36.1933 148.579 36.5813C148.366 36.9662 148.26 37.4035 148.26 37.8962C148.26 38.3951 148.366 38.8355 148.579 39.2173C148.792 39.5992 149.086 39.8948 149.468 40.1012C149.846 40.3106 150.275 40.4153 150.751 40.4153C151.142 40.4153 151.505 40.3383 151.837 40.1812C152.171 40.0242 152.444 39.787 152.663 39.4668L153.326 39.9102C153.066 40.329 152.713 40.6462 152.265 40.8618C151.815 41.0774 151.311 41.1882 150.754 41.1882C150.103 41.1913 149.524 41.0527 149.011 40.7725Z" fill="white"/>
<path d="M156.424 40.7725C155.911 40.4953 155.511 40.1042 155.216 39.5992C154.925 39.0942 154.778 38.5275 154.778 37.8962C154.778 37.2649 154.925 36.7014 155.216 36.1994C155.507 35.7006 155.911 35.3095 156.424 35.0323C156.938 34.7521 157.52 34.6135 158.167 34.6135C158.734 34.6135 159.241 34.7213 159.685 34.9399C160.129 35.1555 160.483 35.4758 160.74 35.8915L160.076 36.3349C159.86 36.0147 159.585 35.7745 159.25 35.6143C158.915 35.4542 158.555 35.3741 158.164 35.3741C157.689 35.3741 157.263 35.4788 156.881 35.6882C156.503 35.8977 156.205 36.1933 155.993 36.5813C155.78 36.9662 155.673 37.4035 155.673 37.8962C155.673 38.3951 155.78 38.8355 155.993 39.2173C156.205 39.5992 156.499 39.8948 156.881 40.1012C157.26 40.3106 157.689 40.4153 158.164 40.4153C158.555 40.4153 158.918 40.3383 159.25 40.1812C159.585 40.0242 159.857 39.787 160.076 39.4668L160.74 39.9102C160.48 40.329 160.126 40.6462 159.679 40.8618C159.228 41.0774 158.724 41.1882 158.167 41.1882C157.516 41.1913 156.934 41.0527 156.424 40.7725Z" fill="white"/>
<path d="M167.442 35.4386H164.955V41.1295H164.066V35.4386H161.578V34.6656H167.442V35.4386Z" fill="white"/>
<path d="M174.743 39.3709C174.743 39.9375 174.53 40.3717 174.105 40.6735C173.679 40.9753 173.047 41.1293 172.205 41.1293H169.217V34.6624H172.118C172.869 34.6624 173.457 34.8071 173.879 35.0935C174.305 35.3799 174.518 35.7895 174.518 36.3222C174.518 36.6733 174.421 36.9751 174.224 37.2245C174.027 37.4739 173.754 37.6618 173.404 37.7819C174.296 37.9913 174.743 38.5179 174.743 39.3709ZM170.077 37.5386H172.052C172.559 37.5386 172.95 37.4462 173.222 37.2553C173.491 37.0674 173.629 36.7934 173.629 36.4331C173.629 36.0728 173.495 35.8018 173.222 35.6232C172.95 35.4446 172.562 35.3522 172.052 35.3522H170.077V37.5386ZM173.441 40.1685C173.726 39.9899 173.867 39.7066 173.867 39.3216C173.867 38.9367 173.739 38.6534 173.479 38.4686C173.219 38.2838 172.812 38.1915 172.255 38.1915H170.08V40.4425H172.168C172.734 40.4395 173.16 40.3502 173.441 40.1685Z" fill="white"/>
<path d="M178.304 40.7663C177.794 40.483 177.397 40.0919 177.103 39.593C176.812 39.0941 176.665 38.5275 176.665 37.8962C176.665 37.2649 176.812 36.7014 177.103 36.1994C177.394 35.7006 177.794 35.3095 178.304 35.0323C178.811 34.7521 179.384 34.6135 180.016 34.6135C180.648 34.6135 181.221 34.7521 181.728 35.0323C182.235 35.3095 182.635 35.7006 182.92 36.1994C183.208 36.7014 183.352 37.2649 183.352 37.8962C183.352 38.5275 183.208 39.0941 182.92 39.593C182.632 40.0919 182.235 40.483 181.728 40.7663C181.221 41.0496 180.648 41.1913 180.016 41.1913C179.384 41.1913 178.814 41.0496 178.304 40.7663ZM181.274 40.1011C181.646 39.8917 181.934 39.5961 182.144 39.2112C182.35 38.8262 182.457 38.3859 182.457 37.8962C182.457 37.4035 182.354 36.9662 182.144 36.5813C181.937 36.1964 181.646 35.8976 181.274 35.6882C180.902 35.4788 180.485 35.3741 180.019 35.3741C179.553 35.3741 179.134 35.4788 178.761 35.6882C178.389 35.8976 178.098 36.1933 177.885 36.5813C177.672 36.9662 177.566 37.4035 177.566 37.8962C177.566 38.3889 177.672 38.8262 177.885 39.2112C178.098 39.5961 178.389 39.8948 178.761 40.1011C179.134 40.3105 179.55 40.4152 180.019 40.4152C180.485 40.4152 180.902 40.3105 181.274 40.1011Z" fill="white"/>
<path d="M132.042 10.7959V16.2712H141.793V20.1205H132.042V27.6652H127.167V6.94962H143.089V10.7959H132.042Z" fill="#FF5710"/>
<path d="M146.008 8.78469C145.467 8.29198 145.195 7.67916 145.195 6.94933C145.195 6.21949 145.467 5.60668 146.008 5.11396C146.55 4.62125 147.251 4.37489 148.114 4.37489C148.975 4.37489 149.679 4.61201 150.22 5.08625C150.762 5.56049 151.034 6.15175 151.034 6.8631C151.034 7.63297 150.762 8.26734 150.22 8.76929C149.679 9.27433 148.975 9.52377 148.114 9.52377C147.251 9.52377 146.55 9.27741 146.008 8.78469ZM145.767 11.7441H150.461V27.6649H145.767V11.7441Z" fill="#FF5710"/>
<path d="M161.58 12.0984C162.531 11.7042 163.63 11.5071 164.875 11.5071V15.7691C164.352 15.7322 164.002 15.7106 163.82 15.7106C162.478 15.7106 161.423 16.0802 160.66 16.8223C159.896 17.5614 159.518 18.67 159.518 20.1512V27.6682H154.824V11.7473H159.308V13.8475C159.871 13.0746 160.629 12.4957 161.58 12.0984Z" fill="#FF5710"/>
<path d="M183.294 21.007H171.046C171.268 21.9925 171.788 22.7716 172.611 23.3444C173.434 23.9171 174.457 24.2035 175.681 24.2035C176.522 24.2035 177.27 24.0803 177.921 23.834C178.572 23.5876 179.179 23.1965 179.742 22.6638L182.24 25.3275C180.716 27.0428 178.488 27.902 175.558 27.902C173.734 27.902 172.116 27.5509 170.714 26.8519C169.309 26.1528 168.227 25.1797 167.463 23.9356C166.699 22.6915 166.321 21.2811 166.321 19.7044C166.321 18.1462 166.696 16.742 167.45 15.4886C168.201 14.2353 169.237 13.2591 170.552 12.56C171.866 11.861 173.334 11.5099 174.961 11.5099C176.544 11.5099 177.981 11.8456 179.264 12.5169C180.547 13.1883 181.554 14.1491 182.286 15.4024C183.019 16.6557 183.385 18.1093 183.385 19.766C183.385 19.8214 183.354 20.2372 183.294 21.007ZM172.31 15.8859C171.587 16.4771 171.146 17.287 170.987 18.3125H178.96C178.8 17.3055 178.359 16.5018 177.636 15.9013C176.913 15.2977 176.031 14.999 174.989 14.999C173.925 14.999 173.033 15.2946 172.31 15.8859Z" fill="#FF5710"/>
<path d="M21.0626 0.5C21.0626 0.5 12.1867 7.57898 10.3149 15.4344C8.44299 23.2897 11.7226 25.9539 12.7243 27.5676C13.7298 29.1813 17.2106 31.9139 18.9703 33.2003C20.73 34.4867 25.2163 37.794 24.9649 41.9615C34.8308 36.2412 34.096 26.6047 30.155 22.5895C30.155 22.5895 31.7755 28.1537 29.7528 30.2393C30.5727 26.4182 28.5152 21.6113 26.2025 18.4829C23.8897 15.3544 19.3067 8.86537 21.0626 0.5Z" fill="#FF5710"/>
<path d="M8.05617 15.8457C8.05617 15.8457 0.321205 21.8057 0.487507 31.0579C0.653809 40.31 11.3049 48.7097 22.4896 43.899C23.2245 40.409 18.7072 36.7211 17.4348 35.7658C16.0116 34.7039 3.86769 27.4727 8.05617 15.8457Z" fill="#FF5710"/>
</svg>
