<svg width="111" height="28" viewBox="0 0 111 28" fill="none" xmlns="http://www.w3.org/2000/svg">
<path d="M27.8418 3.97957H33.604C34.9815 3.97957 36.1987 4.24368 37.2558 4.77381C38.3129 5.30394 39.1345 6.04878 39.7205 7.01022C40.3065 7.97167 40.5986 9.09273 40.5986 10.3696C40.5986 11.6465 40.3065 12.7675 39.7205 13.729C39.1345 14.6904 38.3129 15.4372 37.2558 15.9654C36.1987 16.4955 34.9815 16.7596 33.604 16.7596H27.8418V3.97957ZM33.4589 14.3332C34.7271 14.3332 35.7389 13.9779 36.4946 13.2653C37.2502 12.5547 37.627 11.5895 37.627 10.3715C37.627 9.15353 37.2502 8.18829 36.4946 7.47765C35.7389 6.76511 34.7271 6.40979 33.4589 6.40979H30.7776V14.3351H33.4589V14.3332Z" fill="white"/>
<path d="M52.1062 12.6537H44.731C44.8648 13.2617 45.1776 13.7424 45.6732 14.0958C46.1688 14.4492 46.7849 14.626 47.5217 14.626C48.0286 14.626 48.4789 14.55 48.8708 14.3979C49.2628 14.2459 49.6283 14.0046 49.9675 13.6759L51.4712 15.3195C50.5535 16.3778 49.2119 16.908 47.4482 16.908C46.3496 16.908 45.3755 16.6914 44.5313 16.26C43.6852 15.8287 43.0333 15.2283 42.5735 14.4606C42.1137 13.693 41.8857 12.8228 41.8857 11.8499C41.8857 10.8885 42.1119 10.022 42.566 9.24867C43.0182 8.47533 43.6419 7.873 44.4333 7.44168C45.2247 7.01036 46.1085 6.79375 47.0883 6.79375C48.0417 6.79375 48.9066 7.00086 49.6792 7.41508C50.4518 7.8293 51.0585 8.42213 51.4994 9.19547C51.9404 9.96881 52.1608 10.8657 52.1608 11.8879C52.1608 11.9221 52.142 12.1786 52.1062 12.6537ZM45.4923 9.49379C45.057 9.85861 44.7913 10.3583 44.6952 10.9911H49.4964C49.4003 10.3697 49.1346 9.87381 48.6994 9.50329C48.2641 9.13087 47.7327 8.94656 47.1053 8.94656C46.4646 8.94656 45.9257 9.12897 45.4923 9.49379Z" fill="white"/>
<path d="M55.9555 16.2599C55.1283 15.8286 54.482 15.2282 54.0165 14.4605C53.5511 13.6929 53.3193 12.8227 53.3193 11.8498C53.3193 10.877 53.5511 10.0067 54.0165 9.23908C54.482 8.47144 55.1283 7.87291 55.9555 7.43969C56.7827 7.00836 57.7154 6.79175 58.7556 6.79175C59.7825 6.79175 60.6795 7.00836 61.4464 7.43969C62.2133 7.87101 62.7729 8.48854 63.1234 9.29228L60.9301 10.4798C60.4232 9.5792 59.6921 9.12887 58.7367 9.12887C58 9.12887 57.3894 9.37209 56.9071 9.85851C56.4247 10.3468 56.1816 11.01 56.1816 11.8498C56.1816 12.6897 56.4228 13.3528 56.9071 13.8411C57.3894 14.3275 58 14.5708 58.7367 14.5708C59.7034 14.5708 60.4345 14.1204 60.9301 13.2198L63.1234 14.4244C62.7729 15.2035 62.2152 15.8115 61.4464 16.2504C60.6795 16.6894 59.7825 16.9079 58.7556 16.9079C57.7173 16.9079 56.7846 16.6932 55.9555 16.2599Z" fill="white"/>
<path d="M66.5042 16.2599C65.6882 15.8286 65.0514 15.2282 64.5916 14.4605C64.1318 13.6929 63.9038 12.8227 63.9038 11.8498C63.9038 10.877 64.1337 10.0067 64.5916 9.23907C65.0514 8.47143 65.6882 7.8729 66.5042 7.43968C67.3201 7.00836 68.2415 6.79175 69.2684 6.79175C70.2954 6.79175 71.213 7.00836 72.0233 7.43968C72.8317 7.871 73.4667 8.47143 73.9264 9.23907C74.3862 10.0067 74.6142 10.877 74.6142 11.8498C74.6142 12.8227 74.3843 13.6929 73.9264 14.4605C73.4667 15.2282 72.8335 15.8267 72.0233 16.2599C71.2149 16.6932 70.2954 16.9079 69.2684 16.9079C68.2396 16.9079 67.3182 16.6932 66.5042 16.2599ZM71.051 13.8297C71.5164 13.3376 71.7482 12.6764 71.7482 11.8498C71.7482 11.0233 71.5145 10.362 71.051 9.86801C70.5856 9.37588 69.9901 9.12887 69.2665 9.12887C68.5411 9.12887 67.9438 9.37398 67.4727 9.86801C67.0016 10.362 66.7661 11.0214 66.7661 11.8498C66.7661 12.6783 67.0016 13.3376 67.4727 13.8297C67.9438 14.3237 68.5411 14.5689 69.2665 14.5689C69.992 14.5708 70.5874 14.3237 71.051 13.8297Z" fill="white"/>
<path d="M28.6715 24.8452C28.3643 24.6704 28.125 24.4291 27.9479 24.1213C27.7726 23.8135 27.6841 23.4638 27.6841 23.0743C27.6841 22.6848 27.7726 22.3371 27.9479 22.0274C28.1231 21.7195 28.3643 21.4782 28.6715 21.3072C28.9767 21.1343 29.3215 21.0488 29.7022 21.0488C30.0828 21.0488 30.4276 21.1343 30.7329 21.3072C31.0382 21.4782 31.2794 21.7195 31.4508 22.0274C31.6242 22.3371 31.7109 22.6848 31.7109 23.0743C31.7109 23.4638 31.6242 23.8135 31.4508 24.1213C31.2775 24.4291 31.0382 24.6704 30.7329 24.8452C30.4276 25.02 30.0828 25.1074 29.7022 25.1074C29.3197 25.1074 28.9767 25.02 28.6715 24.8452ZM30.4578 24.4348C30.682 24.3056 30.8554 24.1232 30.9816 23.8857C31.106 23.6481 31.1701 23.3764 31.1701 23.0743C31.1701 22.7703 31.1079 22.5005 30.9816 22.263C30.8573 22.0255 30.682 21.8412 30.4578 21.7119C30.2336 21.5827 29.9829 21.5181 29.7022 21.5181C29.4214 21.5181 29.1689 21.5827 28.9447 21.7119C28.7205 21.8412 28.5452 22.0236 28.4171 22.263C28.2889 22.5005 28.2249 22.7703 28.2249 23.0743C28.2249 23.3783 28.2889 23.6481 28.4171 23.8857C28.5452 24.1232 28.7205 24.3075 28.9447 24.4348C29.1689 24.564 29.4195 24.6286 29.7022 24.6286C29.9829 24.6286 30.2354 24.564 30.4578 24.4348Z" fill="white"/>
<path d="M35.949 21.5577H33.6841V25.0691H33.1489V21.0789H35.949V21.5577Z" fill="white"/>
<path d="M37.439 24.8452C37.1319 24.6703 36.8926 24.429 36.7155 24.1212C36.5402 23.8134 36.4517 23.4638 36.4517 23.0743C36.4517 22.6847 36.5402 22.337 36.7155 22.0273C36.8907 21.7195 37.1319 21.4782 37.439 21.3072C37.7443 21.1343 38.0891 21.0488 38.4698 21.0488C38.8504 21.0488 39.1952 21.1343 39.5005 21.3072C39.8057 21.4782 40.0469 21.7195 40.2184 22.0273C40.3918 22.337 40.4784 22.6847 40.4784 23.0743C40.4784 23.4638 40.3918 23.8134 40.2184 24.1212C40.045 24.429 39.8057 24.6703 39.5005 24.8452C39.1952 25.02 38.8504 25.1074 38.4698 25.1074C38.0891 25.1074 37.7462 25.02 37.439 24.8452ZM39.2273 24.4347C39.4515 24.3055 39.6248 24.1231 39.7511 23.8856C39.8755 23.6481 39.9395 23.3764 39.9395 23.0743C39.9395 22.7702 39.8773 22.5004 39.7511 22.2629C39.6267 22.0254 39.4515 21.8411 39.2273 21.7119C39.003 21.5827 38.7524 21.5181 38.4716 21.5181C38.1909 21.5181 37.9384 21.5827 37.7141 21.7119C37.4899 21.8411 37.3147 22.0235 37.1865 22.2629C37.0584 22.5004 36.9943 22.7702 36.9943 23.0743C36.9943 23.3783 37.0584 23.6481 37.1865 23.8856C37.3147 24.1231 37.4899 24.3074 37.7141 24.4347C37.9384 24.5639 38.189 24.6285 38.4716 24.6285C38.7524 24.6285 39.003 24.5639 39.2273 24.4347Z" fill="white"/>
<path d="M41.918 21.0789H42.4531V22.846H44.9442V21.0789H45.4793V25.0691H44.9442V23.3096H42.4531V25.0691H41.918V21.0789Z" fill="white"/>
<path d="M50.126 22.8232C50.3842 23.0398 50.5142 23.3533 50.5142 23.7638C50.5142 24.1894 50.3747 24.5143 50.0959 24.7423C49.817 24.9703 49.4137 25.0805 48.888 25.0767L47.292 25.0691V21.0789H47.8271V22.4755L48.9935 22.4907C49.4891 22.4945 49.8679 22.6066 50.126 22.8232ZM49.6889 24.4421C49.8773 24.2882 49.9715 24.0621 49.9715 23.7638C49.9715 23.4711 49.8792 23.2526 49.6926 23.112C49.5061 22.9714 49.2291 22.8973 48.8579 22.8916L47.8271 22.8764V24.6511L48.8579 24.6663C49.2234 24.672 49.5004 24.5979 49.6889 24.4421Z" fill="white"/>
<path d="M55.5266 23.2944H54.624V25.0691H54.0889V21.0789H54.624V22.8308H55.5341L56.9266 21.0789H57.507L55.9487 23.0132L57.6201 25.0691H56.9869L55.5266 23.2944Z" fill="white"/>
<path d="M61.2324 21.44C61.5075 21.7003 61.647 22.086 61.647 22.5972V25.0692H61.1344V24.4479C61.0138 24.655 60.8367 24.8165 60.6049 24.9324C60.3713 25.0483 60.0943 25.1072 59.7739 25.1072C59.333 25.1072 58.9806 25.0008 58.7206 24.788C58.4605 24.5752 58.3286 24.2959 58.3286 23.9462C58.3286 23.608 58.4511 23.3344 58.6942 23.1273C58.9373 22.9202 59.3254 22.8157 59.8568 22.8157H61.1137V22.5725C61.1137 22.2285 61.0176 21.9663 60.8273 21.7877C60.637 21.6091 60.3581 21.5179 59.9925 21.5179C59.7419 21.5179 59.5007 21.5597 59.2689 21.6433C59.039 21.7269 58.8393 21.8409 58.6753 21.9872L58.4341 21.5863C58.6358 21.4134 58.8751 21.2823 59.1577 21.1873C59.4385 21.0942 59.7343 21.0467 60.0453 21.0467C60.5597 21.0486 60.9573 21.1797 61.2324 21.44ZM60.6313 24.4726C60.8461 24.3339 61.0082 24.1324 61.1137 23.8702V23.2185H59.87C59.1935 23.2185 58.8544 23.456 58.8544 23.931C58.8544 24.1628 58.9429 24.3472 59.1182 24.4802C59.2934 24.6132 59.5403 24.6816 59.8568 24.6816C60.1564 24.6816 60.4146 24.6132 60.6313 24.4726Z" fill="white"/>
<path d="M64.8015 23.2944H63.8989V25.0691H63.3638V21.0789H63.8989V22.8308H64.809L66.2015 21.0789H66.7818L65.2235 23.0132L66.8949 25.0691H66.2636L64.8015 23.2944Z" fill="white"/>
<path d="M70.2954 21.0789H70.8306V24.2502L73.4724 21.0789H73.9473V25.0691H73.4121V21.8979L70.7778 25.0691H70.2954V21.0789Z" fill="white"/>
<path d="M76.373 24.849C76.064 24.678 75.8228 24.4367 75.6456 24.125C75.4704 23.8134 75.3818 23.4638 75.3818 23.0743C75.3818 22.6848 75.4704 22.337 75.6456 22.0273C75.8209 21.7195 76.064 21.4782 76.373 21.3072C76.682 21.1343 77.0325 21.0488 77.4225 21.0488C77.7636 21.0488 78.0689 21.1153 78.3364 21.2502C78.604 21.3832 78.8169 21.5808 78.9715 21.8373L78.572 22.1109C78.442 21.9133 78.2761 21.7651 78.0745 21.6663C77.8729 21.5675 77.6562 21.5181 77.4207 21.5181C77.1342 21.5181 76.878 21.5827 76.6481 21.7119C76.4201 21.8411 76.2411 22.0235 76.1129 22.2629C75.9848 22.5004 75.9208 22.7703 75.9208 23.0743C75.9208 23.3821 75.9848 23.6538 76.1129 23.8894C76.2411 24.125 76.4182 24.3074 76.6481 24.4348C76.8761 24.564 77.1342 24.6286 77.4207 24.6286C77.6562 24.6286 77.8748 24.5811 78.0745 24.4842C78.2761 24.3873 78.4401 24.2409 78.572 24.0433L78.9715 24.3169C78.8151 24.5754 78.6021 24.7711 78.3327 24.9041C78.0613 25.0371 77.758 25.1055 77.4225 25.1055C77.0325 25.1074 76.682 25.0219 76.373 24.849Z" fill="white"/>
<path d="M81.7355 23.2944H80.833V25.0691H80.2979V21.0789H80.833V22.8308H81.7431L83.1356 21.0789H83.7159L82.1576 23.0132L83.829 25.0691H83.1977L81.7355 23.2944Z" fill="white"/>
<path d="M88.1045 21.0791L86.1241 25.5462C85.964 25.9205 85.7774 26.1866 85.5664 26.3424C85.3553 26.4982 85.1028 26.578 84.8051 26.578C84.6148 26.578 84.4358 26.5476 84.27 26.4868C84.1041 26.426 83.9609 26.3348 83.8403 26.2132L84.0891 25.8122C84.2907 26.0137 84.53 26.1163 84.8108 26.1163C84.9916 26.1163 85.1462 26.065 85.2743 25.9643C85.4024 25.8635 85.5211 25.6906 85.6323 25.4474L85.8057 25.0598L84.0363 21.0772H84.5941L86.0845 24.467L87.575 21.0772H88.1045V21.0791Z" fill="white"/>
<path d="M89.727 24.849C89.418 24.678 89.1768 24.4367 88.9996 24.125C88.8244 23.8134 88.7358 23.4638 88.7358 23.0743C88.7358 22.6848 88.8244 22.337 88.9996 22.0273C89.1749 21.7195 89.418 21.4782 89.727 21.3072C90.036 21.1343 90.3865 21.0488 90.7765 21.0488C91.1176 21.0488 91.4229 21.1153 91.6904 21.2502C91.958 21.3832 92.1709 21.5808 92.3254 21.8373L91.926 22.1109C91.7959 21.9133 91.6301 21.7651 91.4285 21.6663C91.2269 21.5675 91.0102 21.5181 90.7747 21.5181C90.4882 21.5181 90.232 21.5827 90.0021 21.7119C89.7741 21.8411 89.5951 22.0235 89.467 22.2629C89.3388 22.5004 89.2748 22.7703 89.2748 23.0743C89.2748 23.3821 89.3388 23.6538 89.467 23.8894C89.5951 24.125 89.7722 24.3074 90.0021 24.4348C90.2301 24.564 90.4882 24.6286 90.7747 24.6286C91.0102 24.6286 91.2288 24.5811 91.4285 24.4842C91.6301 24.3873 91.7941 24.2409 91.926 24.0433L92.3254 24.3169C92.169 24.5754 91.9561 24.7711 91.6866 24.9041C91.4153 25.0371 91.1119 25.1055 90.7765 25.1055C90.3846 25.1074 90.036 25.0219 89.727 24.849Z" fill="white"/>
<path d="M94.1909 24.849C93.8818 24.678 93.6406 24.4367 93.4635 24.125C93.2883 23.8134 93.1997 23.4638 93.1997 23.0743C93.1997 22.6848 93.2883 22.337 93.4635 22.0273C93.6388 21.7195 93.8818 21.4782 94.1909 21.3072C94.4999 21.1343 94.8504 21.0488 95.2404 21.0488C95.5815 21.0488 95.8867 21.1153 96.1543 21.2502C96.4219 21.3832 96.6348 21.5808 96.7893 21.8373L96.3899 22.1109C96.2598 21.9133 96.094 21.7651 95.8924 21.6663C95.6908 21.5675 95.4741 21.5181 95.2385 21.5181C94.9521 21.5181 94.6959 21.5827 94.466 21.7119C94.238 21.8411 94.059 22.0235 93.9308 22.2629C93.8027 22.5004 93.7386 22.7703 93.7386 23.0743C93.7386 23.3821 93.8027 23.6538 93.9308 23.8894C94.059 24.125 94.2361 24.3074 94.466 24.4348C94.694 24.564 94.9521 24.6286 95.2385 24.6286C95.4741 24.6286 95.6927 24.5811 95.8924 24.4842C96.094 24.3873 96.258 24.2409 96.3899 24.0433L96.7893 24.3169C96.6329 24.5754 96.42 24.7711 96.1505 24.9041C95.8792 25.0371 95.5758 25.1055 95.2404 25.1055C94.8485 25.1074 94.498 25.0219 94.1909 24.849Z" fill="white"/>
<path d="M100.826 21.5579H99.3276V25.0693H98.7925V21.5579H97.2944V21.0809H100.826V21.5579Z" fill="white"/>
<path d="M105.222 23.9842C105.222 24.3338 105.094 24.6017 104.837 24.7879C104.581 24.9741 104.2 25.0691 103.694 25.0691H101.894V21.0789H103.641C104.093 21.0789 104.447 21.1682 104.702 21.3449C104.958 21.5216 105.086 21.7744 105.086 22.1031C105.086 22.3197 105.028 22.5059 104.909 22.6598C104.79 22.8137 104.626 22.9296 104.415 23.0037C104.952 23.1329 105.222 23.4578 105.222 23.9842ZM102.412 22.8536H103.601C103.906 22.8536 104.142 22.7966 104.306 22.6788C104.468 22.5629 104.551 22.3938 104.551 22.1715C104.551 21.9492 104.47 21.782 104.306 21.6717C104.142 21.5615 103.908 21.5045 103.601 21.5045H102.412V22.8536ZM104.438 24.4763C104.609 24.3661 104.694 24.1913 104.694 23.9538C104.694 23.7163 104.617 23.5414 104.46 23.4274C104.304 23.3134 104.059 23.2564 103.724 23.2564H102.414V24.6454H103.671C104.012 24.6435 104.268 24.5884 104.438 24.4763Z" fill="white"/>
<path d="M107.366 24.8452C107.059 24.6703 106.819 24.429 106.642 24.1212C106.467 23.8134 106.378 23.4638 106.378 23.0743C106.378 22.6847 106.467 22.337 106.642 22.0273C106.817 21.7195 107.059 21.4782 107.366 21.3072C107.671 21.1343 108.016 21.0488 108.396 21.0488C108.777 21.0488 109.122 21.1343 109.427 21.3072C109.732 21.4782 109.974 21.7195 110.145 22.0273C110.318 22.337 110.405 22.6847 110.405 23.0743C110.405 23.4638 110.318 23.8134 110.145 24.1212C109.972 24.429 109.732 24.6703 109.427 24.8452C109.122 25.02 108.777 25.1074 108.396 25.1074C108.016 25.1074 107.673 25.02 107.366 24.8452ZM109.154 24.4347C109.378 24.3055 109.552 24.1231 109.678 23.8856C109.802 23.6481 109.866 23.3764 109.866 23.0743C109.866 22.7702 109.804 22.5004 109.678 22.2629C109.553 22.0254 109.378 21.8411 109.154 21.7119C108.93 21.5827 108.679 21.5181 108.398 21.5181C108.118 21.5181 107.865 21.5827 107.641 21.7119C107.417 21.8411 107.241 22.0235 107.113 22.2629C106.985 22.5004 106.921 22.7702 106.921 23.0743C106.921 23.3783 106.985 23.6481 107.113 23.8856C107.241 24.1231 107.417 24.3074 107.641 24.4347C107.865 24.5639 108.116 24.6285 108.398 24.6285C108.679 24.6285 108.93 24.5639 109.154 24.4347Z" fill="white"/>
<path d="M79.5095 6.35278V9.73115H85.381V12.1063H79.5095V16.7615H76.5737V3.97955H86.1611V6.35278H79.5095Z" fill="#FF5710"/>
<path d="M87.9191 5.11183C87.5931 4.80782 87.4292 4.4297 87.4292 3.97937C87.4292 3.52905 87.5931 3.15093 87.9191 2.84692C88.2451 2.5429 88.6672 2.39089 89.1873 2.39089C89.7054 2.39089 90.1294 2.5372 90.4554 2.82981C90.7814 3.12243 90.9453 3.48725 90.9453 3.92617C90.9453 4.4012 90.7814 4.79262 90.4554 5.10233C90.1294 5.41395 89.7054 5.56786 89.1873 5.56786C88.6672 5.56786 88.2451 5.41585 87.9191 5.11183ZM87.774 6.93783H90.6005V16.7613H87.774V6.93783Z" fill="#FF5710"/>
<path d="M97.2953 7.15646C97.8681 6.91325 98.5295 6.79164 99.2794 6.79164V9.42138C98.9648 9.39858 98.7537 9.38528 98.6444 9.38528C97.8361 9.38528 97.201 9.61329 96.7413 10.0712C96.2815 10.5272 96.0535 11.2113 96.0535 12.1252V16.7634H93.2271V6.93985H95.9273V8.23572C96.2664 7.75879 96.7224 7.40157 97.2953 7.15646Z" fill="#FF5710"/>
<path d="M110.371 12.6533H102.996C103.129 13.2613 103.442 13.742 103.938 14.0955C104.433 14.4489 105.05 14.6256 105.786 14.6256C106.293 14.6256 106.744 14.5496 107.136 14.3976C107.527 14.2456 107.893 14.0043 108.232 13.6755L109.736 15.3191C108.818 16.3775 107.477 16.9076 105.713 16.9076C104.614 16.9076 103.64 16.691 102.796 16.2597C101.95 15.8283 101.298 15.2279 100.838 14.4603C100.378 13.6926 100.15 12.8224 100.15 11.8495C100.15 10.8881 100.377 10.0216 100.831 9.2483C101.283 8.47496 101.907 7.87263 102.698 7.44131C103.489 7.00998 104.373 6.79337 105.353 6.79337C106.306 6.79337 107.171 7.00048 107.944 7.41471C108.716 7.82893 109.323 8.42176 109.764 9.1951C110.205 9.96844 110.426 10.8653 110.426 11.8875C110.426 11.9217 110.407 12.1783 110.371 12.6533ZM103.757 9.49341C103.322 9.85823 103.056 10.358 102.96 10.9907H107.761C107.665 10.3694 107.399 9.87343 106.964 9.50292C106.529 9.1305 105.997 8.94619 105.37 8.94619C104.729 8.94619 104.192 9.1286 103.757 9.49341Z" fill="#FF5710"/>
<path d="M12.6832 0C12.6832 0 7.33856 4.36788 6.21142 9.21482C5.08428 14.0618 7.0591 15.7056 7.66227 16.7013C8.26776 17.697 10.3637 19.3831 11.4233 20.1768C12.4829 20.9705 15.1843 23.0112 15.0329 25.5826C20.9737 22.0531 20.5313 16.1071 18.1582 13.6297C18.1582 13.6297 19.134 17.0629 17.916 18.3498C18.4097 15.9921 17.1708 13.0261 15.7782 11.0958C14.3855 9.16551 11.6259 5.16161 12.6832 0Z" fill="#FF5710"/>
<path d="M4.85106 9.46861C4.85106 9.46861 0.193445 13.1461 0.293584 18.8549C0.393723 24.5636 6.80726 29.7464 13.5422 26.7781C13.9846 24.6247 11.2646 22.3492 10.4984 21.7597C9.64142 21.1046 2.32896 16.6427 4.85106 9.46861Z" fill="#FF5710"/>
</svg>
