<svg width="260" height="260" viewBox="0 0 29 41" fill="none" xmlns="http://www.w3.org/2000/svg">
<path d="M18.1442 0C18.1442 0 10.3182 6.40623 8.66773 13.5151C7.01727 20.6239 9.90899 23.0349 10.7922 24.4952C11.6788 25.9555 14.7478 28.4285 16.2994 29.5926C17.851 30.7568 21.8066 33.7498 21.585 37.5212C30.284 32.3445 29.6361 23.6238 26.1612 19.9902C26.1612 19.9902 27.59 25.0256 25.8066 26.913C26.5295 23.455 24.7154 19.105 22.6762 16.2739C20.637 13.4427 16.5961 7.57037 18.1442 0Z" fill="#FF5710"/>
<path d="M6.67578 13.8877C6.67578 13.8877 -0.144301 19.2813 0.002331 27.6542C0.148963 36.0271 9.54021 43.6284 19.402 39.2749C20.05 36.1166 16.067 32.7792 14.9451 31.9147C13.6902 30.9537 2.98271 24.4097 6.67578 13.8877Z" fill="#FF5710"/>
</svg>
