<svg width="13" height="12" viewBox="0 0 13 12" fill="none" xmlns="http://www.w3.org/2000/svg">
<path d="M12.0678 5.54093L7.04138 0.624611C7.03494 0.618283 7.02826 0.612142 7.02146 0.606189C6.4726 0.127338 5.64322 0.125627 5.09226 0.602228C5.08541 0.608158 5.07875 0.614275 5.07226 0.620556L0 5.5395L0.681547 6.20309L1.06439 5.83182V11.7541H4.73069C4.99713 11.7541 5.2131 11.5442 5.2131 11.2853V7.46503H6.90153V11.2853C6.90153 11.5442 7.11751 11.7541 7.38394 11.7541H11.002C11.002 11.7541 11.002 10.913 11.002 9.8791C11.002 9.62021 10.786 9.41035 10.5196 9.41035C10.2532 9.41035 10.0372 9.62021 10.0372 9.8791C10.0372 10.396 10.0372 10.4414 10.0372 10.8166H7.86635V6.99628C7.86635 6.73739 7.65038 6.52753 7.38394 6.52753H4.73069C4.46426 6.52753 4.24829 6.73739 4.24829 6.99628V10.8166H2.0292V4.91035C2.0292 4.90566 2.02913 4.90099 2.02899 4.89635L5.74245 1.29516C5.92318 1.14603 6.18827 1.14659 6.3683 1.29645L10.0372 4.88496V10C10.0372 10.2589 10.2532 10.0041 10.5196 10.0041C10.786 10.0041 11.002 11.8519 11.002 11.593V5.82863L11.3834 6.20168L12.0678 5.54093Z" fill="#555555"/>
</svg>
