<svg width="12" height="14" viewBox="0 0 12 14" fill="none" xmlns="http://www.w3.org/2000/svg">
<path d="M10.9454 2.50569L6.20081 1.01565C6.13445 0.994782 6.0636 0.994782 5.99717 1.01565L1.25255 2.50569C1.10265 2.55276 1 2.69718 1 2.861V8.32446C1 9.03508 1.2748 9.76251 1.81677 10.4866C2.23072 11.0395 2.80338 11.5948 3.51888 12.137C4.72082 13.0478 5.90437 13.6065 5.95417 13.6298C6.00024 13.6514 6.04959 13.6622 6.09896 13.6622C6.14832 13.6622 6.19769 13.6515 6.24376 13.6298C6.29356 13.6065 7.47708 13.0478 8.67903 12.137C9.3945 11.5948 9.96716 11.0395 10.3811 10.4866C10.9231 9.76254 11.1979 9.0351 11.1979 8.32446V2.861C11.1979 2.69718 11.0953 2.55276 10.9454 2.50569ZM10.4892 8.32446C10.4892 9.58208 9.28377 10.7613 8.27257 11.5291C7.366 12.2175 6.4466 12.7059 6.09899 12.8814C5.75138 12.7059 4.83195 12.2175 3.92538 11.5291C2.91416 10.7613 1.70874 9.58208 1.70874 8.32446V3.137L6.09896 1.75825L10.4892 3.137V8.32446V8.32446Z" fill="#555555" stroke="#555555" stroke-width="0.1"/>
</svg>
