<svg width="50" height="50" viewBox="0 0 50 50" fill="none" xmlns="http://www.w3.org/2000/svg">
<rect width="50" height="50" rx="10" fill="#FF5710"/>
<path d="M22 18.0025C21.7348 18.0025 21.4804 18.1078 21.2929 18.2953C21.1054 18.4829 21 18.7372 21 19.0025C21 19.2677 21.1054 19.522 21.2929 19.7096C21.4804 19.8971 21.7348 20.0025 22 20.0025C22.2652 20.0025 22.5196 19.8971 22.7071 19.7096C22.8946 19.522 23 19.2677 23 19.0025C23 18.7372 22.8946 18.4829 22.7071 18.2953C22.5196 18.1078 22.2652 18.0025 22 18.0025ZM19.17 18.0025C19.3766 17.4169 19.7597 16.9099 20.2666 16.5512C20.7735 16.1926 21.3791 16 22 16C22.6209 16 23.2265 16.1926 23.7334 16.5512C24.2403 16.9099 24.6234 17.4169 24.83 18.0025H34C34.2652 18.0025 34.5196 18.1078 34.7071 18.2953C34.8946 18.4829 35 18.7372 35 19.0025C35 19.2677 34.8946 19.522 34.7071 19.7096C34.5196 19.8971 34.2652 20.0025 34 20.0025H24.83C24.6234 20.588 24.2403 21.095 23.7334 21.4537C23.2265 21.8123 22.6209 22.0049 22 22.0049C21.3791 22.0049 20.7735 21.8123 20.2666 21.4537C19.7597 21.095 19.3766 20.588 19.17 20.0025H16C15.7348 20.0025 15.4804 19.8971 15.2929 19.7096C15.1054 19.522 15 19.2677 15 19.0025C15 18.7372 15.1054 18.4829 15.2929 18.2953C15.4804 18.1078 15.7348 18.0025 16 18.0025H19.17ZM27 24.0025C26.7348 24.0025 26.4804 24.1078 26.2929 24.2953C26.1054 24.4829 26 24.7372 26 25.0025C26 25.2677 26.1054 25.522 26.2929 25.7096C26.4804 25.8971 26.7348 26.0025 27 26.0025C27.2652 26.0025 27.5196 25.8971 27.7071 25.7096C27.8946 25.522 28 25.2677 28 25.0025C28 24.7372 27.8946 24.4829 27.7071 24.2953C27.5196 24.1078 27.2652 24.0025 27 24.0025ZM24.17 24.0025C24.3766 23.4169 24.7597 22.9099 25.2666 22.5512C25.7735 22.1926 26.3791 22 27 22C27.6209 22 28.2265 22.1926 28.7334 22.5512C29.2403 22.9099 29.6234 23.4169 29.83 24.0025H34C34.2652 24.0025 34.5196 24.1078 34.7071 24.2953C34.8946 24.4829 35 24.7372 35 25.0025C35 25.2677 34.8946 25.522 34.7071 25.7096C34.5196 25.8971 34.2652 26.0025 34 26.0025H29.83C29.6234 26.588 29.2403 27.095 28.7334 27.4537C28.2265 27.8123 27.6209 28.0049 27 28.0049C26.3791 28.0049 25.7735 27.8123 25.2666 27.4537C24.7597 27.095 24.3766 26.588 24.17 26.0025H16C15.7348 26.0025 15.4804 25.8971 15.2929 25.7096C15.1054 25.522 15 25.2677 15 25.0025C15 24.7372 15.1054 24.4829 15.2929 24.2953C15.4804 24.1078 15.7348 24.0025 16 24.0025H24.17ZM22 30.0025C21.7348 30.0025 21.4804 30.1078 21.2929 30.2953C21.1054 30.4829 21 30.7372 21 31.0025C21 31.2677 21.1054 31.522 21.2929 31.7096C21.4804 31.8971 21.7348 32.0025 22 32.0025C22.2652 32.0025 22.5196 31.8971 22.7071 31.7096C22.8946 31.522 23 31.2677 23 31.0025C23 30.7372 22.8946 30.4829 22.7071 30.2953C22.5196 30.1078 22.2652 30.0025 22 30.0025ZM19.17 30.0025C19.3766 29.4169 19.7597 28.9099 20.2666 28.5512C20.7735 28.1926 21.3791 28 22 28C22.6209 28 23.2265 28.1926 23.7334 28.5512C24.2403 28.9099 24.6234 29.4169 24.83 30.0025H34C34.2652 30.0025 34.5196 30.1078 34.7071 30.2953C34.8946 30.4829 35 30.7372 35 31.0025C35 31.2677 34.8946 31.522 34.7071 31.7096C34.5196 31.8971 34.2652 32.0025 34 32.0025H24.83C24.6234 32.588 24.2403 33.095 23.7334 33.4537C23.2265 33.8123 22.6209 34.0049 22 34.0049C21.3791 34.0049 20.7735 33.8123 20.2666 33.4537C19.7597 33.095 19.3766 32.588 19.17 32.0025H16C15.7348 32.0025 15.4804 31.8971 15.2929 31.7096C15.1054 31.522 15 31.2677 15 31.0025C15 30.7372 15.1054 30.4829 15.2929 30.2953C15.4804 30.1078 15.7348 30.0025 16 30.0025H19.17Z" fill="white"/>
</svg>
