<svg width="18" height="19" viewBox="0 0 18 19" fill="none" xmlns="http://www.w3.org/2000/svg">
<path d="M9.00309 4.87841C6.45084 4.87841 4.38459 6.94687 4.38459 9.49683C4.38459 12.049 6.45309 14.1153 9.00309 14.1153C11.5553 14.1153 13.6216 12.0468 13.6216 9.49683C13.6216 6.94462 11.5531 4.87841 9.00309 4.87841ZM9.00309 12.4945C7.34634 12.4945 6.00534 11.1528 6.00534 9.49683C6.00534 7.84086 7.34709 6.49913 9.00309 6.49913C10.6591 6.49913 12.0008 7.84086 12.0008 9.49683C12.0016 11.1528 10.6598 12.4945 9.00309 12.4945Z" fill="#8D8D8D"/>
<path d="M12.7112 0.556539C11.0552 0.47929 6.95342 0.48304 5.29592 0.556539C3.83942 0.624788 2.55467 0.976531 1.51892 2.01226C-0.21208 3.74323 0.00917045 6.07569 0.00917045 9.49638C0.00917045 12.9973 -0.18583 15.2758 1.51892 16.9805C3.25667 18.7175 5.62292 18.4902 9.00317 18.4902C12.4712 18.4902 13.6682 18.4925 14.8944 18.0177C16.5617 17.3705 17.8202 15.8803 17.9432 13.2036C18.0212 11.5468 18.0167 7.44592 17.9432 5.78845C17.7947 2.62875 16.0989 0.712536 12.7112 0.556539ZM15.3324 15.8353C14.1977 16.97 12.6234 16.8688 8.98142 16.8688C5.23142 16.8688 3.72767 16.9243 2.63042 15.824C1.36667 14.5663 1.59542 12.5466 1.59542 9.48438C1.59542 5.3407 1.17017 2.35651 5.32892 2.14351C6.28442 2.10976 6.56567 2.09851 8.97092 2.09851L9.00467 2.12101C13.0014 2.12101 16.1372 1.70252 16.3254 5.86045C16.3682 6.80918 16.3779 7.09417 16.3779 9.49563C16.3772 13.2021 16.4477 14.7148 15.3324 15.8353Z" fill="#8D8D8D"/>
<path d="M13.8045 5.77541C14.4005 5.77541 14.8837 5.29222 14.8837 4.69618C14.8837 4.10014 14.4005 3.61695 13.8045 3.61695C13.2084 3.61695 12.7252 4.10014 12.7252 4.69618C12.7252 5.29222 13.2084 5.77541 13.8045 5.77541Z" fill="#8D8D8D"/>
</svg>
