<svg width="16" height="16" viewBox="0 0 16 16" fill="none" xmlns="http://www.w3.org/2000/svg">
<path fill-rule="evenodd" clip-rule="evenodd" d="M11.7348 6.91963C11.7348 8.19642 11.2276 9.42091 10.3248 10.3237C9.42198 11.2266 8.19749 11.7338 6.9207 11.7338C5.64391 11.7338 4.41942 11.2266 3.5166 10.3237C2.61377 9.42091 2.10657 8.19642 2.10657 6.91963C2.10657 5.64284 2.61377 4.41835 3.5166 3.51553C4.41942 2.6127 5.64391 2.1055 6.9207 2.1055C8.19749 2.1055 9.42198 2.6127 10.3248 3.51553C11.2276 4.41835 11.7348 5.64284 11.7348 6.91963V6.91963ZM10.8574 11.9916C9.56732 12.9932 7.94405 13.4654 6.31805 13.3122C4.69205 13.159 3.18555 12.3919 2.10524 11.1671C1.02492 9.9422 0.452019 8.35167 0.50315 6.71926C0.554281 5.08686 1.2256 3.5353 2.38045 2.38045C3.5353 1.2256 5.08686 0.554281 6.71926 0.50315C8.35167 0.452019 9.9422 1.02492 11.1671 2.10524C12.3919 3.18555 13.159 4.69205 13.3122 6.31805C13.4654 7.94405 12.9932 9.56732 11.9916 10.8574L15.2446 14.1103C15.3234 14.1838 15.3867 14.2724 15.4305 14.3708C15.4744 14.4693 15.498 14.5756 15.4999 14.6833C15.5018 14.7911 15.482 14.8981 15.4416 14.998C15.4012 15.098 15.3411 15.1887 15.2649 15.2649C15.1887 15.3411 15.098 15.4012 14.998 15.4416C14.8981 15.482 14.7911 15.5018 14.6833 15.4999C14.5756 15.498 14.4693 15.4744 14.3708 15.4305C14.2724 15.3867 14.1838 15.3234 14.1103 15.2446L10.8574 11.9916V11.9916Z" fill="#8D8D8D"/>
</svg>
