<svg width="14" height="14" viewBox="0 0 14 14" fill="none" xmlns="http://www.w3.org/2000/svg">
<path fill-rule="evenodd" clip-rule="evenodd" d="M2.33398 2.91667C2.01448 2.91667 1.75065 3.1805 1.75065 3.5V10.5C1.75065 10.8195 2.01448 11.0833 2.33398 11.0833H11.6673C11.9868 11.0833 12.2507 10.8195 12.2507 10.5V3.5C12.2507 3.1805 11.9868 2.91667 11.6673 2.91667H2.33398ZM0.583984 3.5C0.583984 2.53617 1.37015 1.75 2.33398 1.75H11.6673C12.6312 1.75 13.4173 2.53617 13.4173 3.5V10.5C13.4173 11.4638 12.6312 12.25 11.6673 12.25H2.33398C1.37015 12.25 0.583984 11.4638 0.583984 10.5V3.5Z" fill="#8B8B8B"/>
<path fill-rule="evenodd" clip-rule="evenodd" d="M0.689483 3.16549C0.874233 2.90156 1.23796 2.83737 1.50189 3.02212L7.0007 6.87129L12.4995 3.02212C12.7634 2.83737 13.1272 2.90156 13.3119 3.16549C13.4967 3.42942 13.4325 3.79314 13.1686 3.97789L7.33522 8.06123C7.13437 8.20182 6.86703 8.20182 6.66618 8.06123L0.832848 3.97789C0.568919 3.79314 0.504732 3.42942 0.689483 3.16549Z" fill="#8B8B8B"/>
</svg>
