<svg width="12" height="16" viewBox="0 0 12 16" fill="none" xmlns="http://www.w3.org/2000/svg">
<path d="M6.1313 4.00971C4.82005 4.00971 3.75326 5.17568 3.75326 6.60882C3.75326 8.04195 4.82005 9.20792 6.1313 9.20792C7.44254 9.20792 8.50934 8.04195 8.50934 6.60882C8.50934 5.17568 7.44257 4.00971 6.1313 4.00971ZM6.1313 8.11357C5.37215 8.11357 4.75453 7.43853 4.75453 6.60882C4.75453 5.7791 5.37215 5.10406 6.1313 5.10406C6.89045 5.10406 7.50807 5.7791 7.50807 6.60882C7.50807 7.43853 6.89045 8.11357 6.1313 8.11357Z" fill="#8B8B8B"/>
<path d="M6.13158 1C3.30201 1 1 3.51604 1 6.60861V6.76365C1 8.32771 1.82044 10.1503 3.43861 12.1808C4.61166 13.6528 5.76832 14.6791 5.81695 14.7221L6.13158 15L6.44621 14.7222C6.49487 14.6792 7.65153 13.6528 8.82455 12.1808C10.4427 10.1503 11.2632 8.32774 11.2632 6.76368V6.60864C11.2632 3.51604 8.96115 1 6.13158 1ZM10.2619 6.76368C10.2619 9.40686 7.14586 12.6065 6.13158 13.5778C5.11702 12.6062 2.00127 9.40667 2.00127 6.76368V6.60864C2.00127 4.11948 3.85414 2.09438 6.13158 2.09438C8.40902 2.09438 10.2619 4.11948 10.2619 6.60864V6.76368Z" fill="#8B8B8B"/>
<path d="M6.1313 4.00971C4.82005 4.00971 3.75326 5.17568 3.75326 6.60882C3.75326 8.04195 4.82005 9.20792 6.1313 9.20792C7.44254 9.20792 8.50934 8.04195 8.50934 6.60882C8.50934 5.17568 7.44257 4.00971 6.1313 4.00971ZM6.1313 8.11357C5.37215 8.11357 4.75453 7.43853 4.75453 6.60882C4.75453 5.7791 5.37215 5.10406 6.1313 5.10406C6.89045 5.10406 7.50807 5.7791 7.50807 6.60882C7.50807 7.43853 6.89045 8.11357 6.1313 8.11357Z" stroke="#8B8B8B" stroke-width="0.5"/>
<path d="M6.13158 1C3.30201 1 1 3.51604 1 6.60861V6.76365C1 8.32771 1.82044 10.1503 3.43861 12.1808C4.61166 13.6528 5.76832 14.6791 5.81695 14.7221L6.13158 15L6.44621 14.7222C6.49487 14.6792 7.65153 13.6528 8.82455 12.1808C10.4427 10.1503 11.2632 8.32774 11.2632 6.76368V6.60864C11.2632 3.51604 8.96115 1 6.13158 1ZM10.2619 6.76368C10.2619 9.40686 7.14586 12.6065 6.13158 13.5778C5.11702 12.6062 2.00127 9.40667 2.00127 6.76368V6.60864C2.00127 4.11948 3.85414 2.09438 6.13158 2.09438C8.40902 2.09438 10.2619 4.11948 10.2619 6.60864V6.76368Z" stroke="#8B8B8B" stroke-width="0.5"/>
</svg>
