<svg width="15" height="16" viewBox="0 0 15 16" fill="none" xmlns="http://www.w3.org/2000/svg">
<path d="M14.1689 11.28V13.28C14.1697 13.4657 14.1316 13.6494 14.0572 13.8195C13.9829 13.9897 13.8738 14.1424 13.737 14.2679C13.6001 14.3934 13.4386 14.489 13.2627 14.5485C13.0869 14.6079 12.9005 14.63 12.7156 14.6133C10.6641 14.3904 8.69357 13.6894 6.96223 12.5666C5.35145 11.5431 3.98579 10.1774 2.96223 8.56665C1.83555 6.82745 1.1344 4.84731 0.915567 2.78665C0.898908 2.60229 0.920817 2.41649 0.979901 2.24107C1.03898 2.06564 1.13395 1.90444 1.25874 1.76773C1.38354 1.63102 1.53544 1.52179 1.70476 1.447C1.87409 1.37221 2.05713 1.33349 2.24223 1.33332H4.24223C4.56577 1.33013 4.87943 1.4447 5.12474 1.65567C5.37006 1.86664 5.53029 2.15961 5.57557 2.47998C5.65998 3.12003 5.81653 3.74847 6.04223 4.35332C6.13193 4.59193 6.15134 4.85126 6.09817 5.10057C6.045 5.34988 5.92148 5.57872 5.74223 5.75998L4.89557 6.60665C5.8446 8.27568 7.22654 9.65761 8.89557 10.6066L9.74223 9.75998C9.92349 9.58074 10.1523 9.45722 10.4016 9.40405C10.651 9.35087 10.9103 9.37029 11.1489 9.45998C11.7537 9.68568 12.3822 9.84223 13.0222 9.92665C13.3461 9.97234 13.6418 10.1355 13.8533 10.385C14.0647 10.6345 14.177 10.953 14.1689 11.28Z" stroke="#8B8B8B" stroke-width="1.6" stroke-linecap="round" stroke-linejoin="round"/>
</svg>
