<svg width="11" height="12" viewBox="0 0 11 12" fill="none" xmlns="http://www.w3.org/2000/svg">
<path fill-rule="evenodd" clip-rule="evenodd" d="M1.83301 2.79167C1.58197 2.79167 1.37467 2.99896 1.37467 3.25V8.75C1.37467 9.00104 1.58197 9.20833 1.83301 9.20833H9.16634C9.41738 9.20833 9.62468 9.00104 9.62468 8.75V3.25C9.62468 2.99896 9.41738 2.79167 9.16634 2.79167H1.83301ZM0.458008 3.25C0.458008 2.4927 1.07571 1.875 1.83301 1.875H9.16634C9.92364 1.875 10.5413 2.4927 10.5413 3.25V8.75C10.5413 9.5073 9.92364 10.125 9.16634 10.125H1.83301C1.07571 10.125 0.458008 9.5073 0.458008 8.75V3.25Z" fill="#8C909D"/>
<path fill-rule="evenodd" clip-rule="evenodd" d="M0.540899 2.98716C0.68606 2.77979 0.971845 2.72936 1.17922 2.87452L5.49971 5.89886L9.82021 2.87452C10.0276 2.72936 10.3134 2.77979 10.4585 2.98716C10.6037 3.19453 10.5533 3.48032 10.3459 3.62548L5.76255 6.83381C5.60474 6.94428 5.39469 6.94428 5.23688 6.83381L0.653544 3.62548C0.446171 3.48032 0.395738 3.19453 0.540899 2.98716Z" fill="#8C909D"/>
</svg>
