<svg width="18" height="18" viewBox="0 0 18 18" fill="none" xmlns="http://www.w3.org/2000/svg">
<path fill-rule="evenodd" clip-rule="evenodd" d="M7.95349 1.25581C4.25447 1.25581 1.25581 4.25447 1.25581 7.95349C1.25581 11.6525 4.25447 14.6512 7.95349 14.6512C11.6525 14.6512 14.6512 11.6525 14.6512 7.95349C14.6512 4.25447 11.6525 1.25581 7.95349 1.25581ZM0 7.95349C0 3.5609 3.5609 0 7.95349 0C12.3461 0 15.907 3.5609 15.907 7.95349C15.907 9.92376 15.1906 11.7267 14.004 13.116L17.8161 16.9281C18.0613 17.1733 18.0613 17.5709 17.8161 17.8161C17.5709 18.0613 17.1733 18.0613 16.9281 17.8161L13.116 14.004C11.7267 15.1906 9.92376 15.907 7.95349 15.907C3.5609 15.907 0 12.3461 0 7.95349Z" fill="#8D8D8D"/>
</svg>
