<svg width="18" height="21" viewBox="0 0 18 21" fill="none" xmlns="http://www.w3.org/2000/svg">
<path d="M17.7013 11.8045C18.2833 6.90508 17.4216 3.81196 15.8673 2.41295L15.8682 2.41213C13.3595 0.0229914 4.88737 -0.330624 1.88611 2.51944C0.538306 3.91358 0.0635668 5.95967 0.0115405 8.4927C-0.0404857 11.0265 -0.102267 15.7731 4.32078 17.0608H4.32484L4.32078 19.0272C4.32078 19.0272 4.2907 19.8238 4.79958 19.984C5.38162 20.1726 5.64501 19.8027 7.45536 17.6404C10.4826 17.9029 12.8076 17.3014 13.0718 17.2136C13.6831 17.0087 17.142 16.5511 17.7013 11.8045ZM7.75369 16.2568C7.75369 16.2568 5.83767 18.6459 5.2418 19.2662C5.0467 19.4678 4.83291 19.4491 4.83616 19.0491C4.83616 18.7866 4.85079 15.7845 4.85079 15.7845C1.10084 14.7098 1.32195 10.668 1.3626 8.55367C1.40324 6.43847 1.79019 4.70616 2.93151 3.53964C5.56453 1.07083 12.9921 1.6228 14.8845 3.40144C17.1981 5.45241 16.3746 11.2468 16.3795 11.4444C15.9039 15.4065 13.101 15.6577 12.5856 15.8292C12.3653 15.9024 10.3209 16.4283 7.75369 16.2568Z" fill="#8D8D8D"/>
<path d="M8.81383 4.00383C8.50086 4.00383 8.50086 4.49158 8.81383 4.49564C11.242 4.51434 13.2417 6.20682 13.2637 9.31132C13.2637 9.63892 13.7433 9.63486 13.7392 9.30725H13.7384C13.7124 5.96213 11.5289 4.02253 8.81383 4.00383Z" fill="#8D8D8D"/>
<path d="M12.0078 8.7967C12.0005 9.12024 12.4793 9.13569 12.4834 8.80809C12.5232 6.96359 11.386 5.44427 9.24881 5.28412C8.93584 5.26136 8.90332 5.75317 9.21548 5.77593C11.0689 5.91657 12.0452 7.18145 12.0078 8.7967Z" fill="#8D8D8D"/>
<path d="M11.4957 10.8948C11.0941 10.6624 10.6853 10.807 10.5162 11.0355L10.1625 11.4931C9.9829 11.7256 9.64716 11.6947 9.64716 11.6947C7.19705 11.0469 6.54185 8.48294 6.54185 8.48294C6.54185 8.48294 6.51177 8.13583 6.73613 7.94967L7.17835 7.58386C7.39947 7.40827 7.53929 6.98556 7.31411 6.57016C6.71256 5.4833 6.30854 5.10855 6.10287 4.82078C5.88664 4.55008 5.56147 4.48912 5.2233 4.67202H5.21599C4.51282 5.08335 3.74299 5.85318 3.98931 6.64576C4.40958 7.48144 5.18184 10.1453 7.64334 12.1581C8.80011 13.11 10.6308 14.0855 11.4079 14.3107L11.4152 14.3221C12.181 14.5773 12.9256 13.7774 13.3231 13.0531V13.0474C13.4995 12.6971 13.441 12.3654 13.1833 12.1484C12.7265 11.7029 12.0371 11.2111 11.4957 10.8948Z" fill="#8D8D8D"/>
<path d="M9.58326 7.0985C10.3645 7.14403 10.7433 7.55211 10.7839 8.39022C10.7985 8.71782 11.2741 8.69506 11.2595 8.36746C11.2074 7.27328 10.6368 6.66359 9.60927 6.60669C9.2963 6.58799 9.26704 7.07981 9.58326 7.0985Z" fill="#8D8D8D"/>
</svg>
