<svg width="19" height="12" viewBox="0 0 19 12" fill="none" xmlns="http://www.w3.org/2000/svg">
<path d="M15.7666 6.80771C15.4594 6.42271 15.5473 6.25143 15.7666 5.90729C15.7705 5.90336 18.3063 2.42579 18.5676 1.24643L18.5692 1.24564C18.699 0.815857 18.5692 0.5 17.9414 0.5H15.864C15.3351 0.5 15.0913 0.771071 14.9606 1.07436C14.9606 1.07436 13.9029 3.58707 12.4066 5.21586C11.9237 5.6865 11.7004 5.83736 11.4368 5.83736C11.307 5.83736 11.1051 5.6865 11.1051 5.25671V1.24564C11.1051 0.730214 10.957 0.5 10.5192 0.5H7.25271C6.92099 0.5 6.72386 0.740429 6.72386 0.964357C6.72386 1.45307 7.47201 1.56543 7.5496 2.94043V5.92379C7.5496 6.5775 7.43005 6.69771 7.16483 6.69771C6.45864 6.69771 4.74462 4.17479 3.72888 1.28729C3.52383 0.727071 3.32353 0.500786 2.79072 0.500786H0.712525C0.119546 0.500786 0 0.771857 0 1.07514C0 1.611 0.706191 4.27536 3.28395 7.79536C5.00192 10.1981 7.42134 11.5 9.62225 11.5C10.9452 11.5 11.1067 11.2109 11.1067 10.7135C11.1067 8.41764 10.9871 8.20079 11.6498 8.20079C11.957 8.20079 12.4858 8.35164 13.7208 9.51057C15.1324 10.8848 15.3644 11.5 16.1545 11.5H18.2319C18.8241 11.5 19.1242 11.2109 18.9516 10.6404C18.5565 9.44064 15.8869 6.97271 15.7666 6.80771Z" fill="#8D8D8D"/>
</svg>
