<svg width="19" height="19" viewBox="0 0 19 19" fill="none" xmlns="http://www.w3.org/2000/svg">
<path fill-rule="evenodd" clip-rule="evenodd" d="M15.4453 3.12738C13.7457 1.43398 11.4855 0.500993 9.07751 0.5C4.1157 0.5 0.0775041 4.51876 0.0755083 9.45816C0.074843 11.0371 0.489307 12.5785 1.2771 13.9371L0 18.5794L4.7721 17.3336C6.08701 18.0474 7.56735 18.4236 9.07385 18.424H9.07762C14.0389 18.424 18.0775 14.4049 18.0794 9.46533C18.0804 7.07144 17.1449 4.82067 15.4453 3.12738ZM9.07751 16.9111H9.07441C7.73189 16.9105 6.41521 16.5514 5.26629 15.8731L4.99319 15.7117L2.16135 16.451L2.91721 13.7032L2.73925 13.4215C1.99027 12.2359 1.59477 10.8656 1.59543 9.45871C1.59698 5.35321 4.9535 2.01309 9.08051 2.01309C11.079 2.01375 12.9576 2.78928 14.3702 4.19677C15.7828 5.60425 16.5603 7.47509 16.5596 9.46478C16.5578 13.5706 13.2015 16.9111 9.07751 16.9111ZM13.1816 11.3342C12.9567 11.2221 11.8508 10.6807 11.6446 10.6059C11.4386 10.5312 11.2884 10.494 11.1386 10.718C10.9886 10.942 10.5576 11.4463 10.4264 11.5956C10.2951 11.745 10.164 11.7638 9.93904 11.6517C9.71407 11.5396 8.98936 11.3032 8.13017 10.5406C7.46157 9.947 7.01018 9.21396 6.8789 8.98995C6.74784 8.76572 6.87779 8.65626 6.97758 8.53311C7.22107 8.23219 7.4649 7.91671 7.53985 7.76741C7.61491 7.61799 7.57733 7.48723 7.521 7.37523C7.4649 7.26323 7.01506 6.1614 6.82768 5.71306C6.64495 5.27674 6.45967 5.33567 6.32152 5.32883C6.19046 5.32232 6.04044 5.32099 5.89042 5.32099C5.74051 5.32099 5.4968 5.37694 5.29057 5.60116C5.08444 5.82528 4.50344 6.36676 4.50344 7.46858C4.50344 8.57041 5.30942 9.63482 5.42185 9.78424C5.53428 9.93365 7.00797 12.1947 9.26423 13.1642C9.80088 13.395 10.2198 13.5326 10.5465 13.6358C11.0854 13.8062 11.5756 13.7821 11.9632 13.7245C12.3954 13.6602 13.2939 13.183 13.4815 12.6601C13.6689 12.1372 13.6689 11.6891 13.6126 11.5956C13.5565 11.5022 13.4064 11.4463 13.1816 11.3342Z" fill="#8D8D8D"/>
</svg>
