<svg width="46" height="46" viewBox="0 0 46 46" fill="none" xmlns="http://www.w3.org/2000/svg">
<circle cx="23" cy="23" r="22.5" stroke="#EFEFEF"/>
<path d="M31.8315 25.174C32.3554 20.7646 31.5799 17.9808 30.181 16.7217L30.1817 16.7209C27.924 14.5707 20.299 14.2524 17.5979 16.8175C16.3849 18.0722 15.9576 19.9137 15.9108 22.1934C15.864 24.4739 15.8084 28.7458 19.7891 29.9047H19.7927L19.7891 31.6745C19.7891 31.6745 19.762 32.3915 20.22 32.5356C20.7439 32.7053 20.9809 32.3724 22.6102 30.4263C25.3348 30.6626 27.4272 30.1212 27.665 30.0422C28.2151 29.8579 31.3282 29.446 31.8315 25.174ZM22.8787 29.1811C22.8787 29.1811 21.1543 31.3313 20.618 31.8896C20.4424 32.071 20.25 32.0542 20.2529 31.6942C20.2529 31.4579 20.2661 28.756 20.2661 28.756C16.8911 27.7888 17.0901 24.1512 17.1267 22.2483C17.1633 20.3446 17.5116 18.7855 18.5388 17.7357C20.9085 15.5137 27.5933 16.0105 29.2965 17.6113C31.3787 19.4572 30.6375 24.6722 30.6419 24.8499C30.2139 28.4158 27.6913 28.6419 27.2275 28.7963C27.0292 28.8621 25.1892 29.3355 22.8787 29.1811Z" fill="#8A8B90"/>
<path d="M23.8323 18.1535C23.5507 18.1535 23.5507 18.5925 23.8323 18.5961C26.0177 18.613 27.8175 20.1362 27.8372 22.9302C27.8372 23.2251 28.2689 23.2214 28.2652 22.9266H28.2645C28.2411 19.916 26.2759 18.1703 23.8323 18.1535Z" fill="#8A8B90"/>
<path d="M26.7058 22.4663C26.6992 22.7575 27.1301 22.7714 27.1338 22.4766C27.1696 20.8165 26.1461 19.4491 24.2227 19.305C23.941 19.2845 23.9117 19.7272 24.1927 19.7476C25.8608 19.8742 26.7394 21.0126 26.7058 22.4663Z" fill="#8A8B90"/>
<path d="M26.2472 24.3558C25.8858 24.1465 25.5178 24.2768 25.3656 24.4823L25.0474 24.8942C24.8857 25.1035 24.5835 25.0757 24.5835 25.0757C22.3784 24.4926 21.7887 22.1851 21.7887 22.1851C21.7887 22.1851 21.7617 21.8727 21.9636 21.7051L22.3616 21.3759C22.5606 21.2179 22.6864 20.8374 22.4838 20.4636C21.9424 19.4854 21.5788 19.1481 21.3937 18.8891C21.199 18.6455 20.9064 18.5906 20.602 18.7552H20.5955C19.9626 19.1254 19.2698 19.8183 19.4914 20.5316C19.8697 21.2837 20.5647 23.6812 22.7801 25.4927C23.8212 26.3494 25.4688 27.2274 26.1682 27.43L26.1748 27.4403C26.864 27.67 27.5341 26.9501 27.8919 26.2982V26.2931C28.0507 25.9778 27.998 25.6793 27.7661 25.4839C27.3549 25.083 26.7345 24.6404 26.2472 24.3558Z" fill="#8A8B90"/>
<path d="M24.5253 20.938C25.2284 20.979 25.5693 21.3463 25.6059 22.1006C25.619 22.3954 26.047 22.3749 26.0339 22.0801C25.987 21.0953 25.4734 20.5466 24.5487 20.4954C24.267 20.4786 24.2407 20.9212 24.5253 20.938Z" fill="#8A8B90"/>
</svg>
