<svg width="46" height="46" viewBox="0 0 46 46" fill="none" xmlns="http://www.w3.org/2000/svg">
<circle cx="23" cy="23" r="22.5" stroke="#EFEFEF"/>
<path d="M28.1899 24.1769C27.9135 23.8304 27.9926 23.6763 28.1899 23.3666C28.1935 23.363 30.4757 20.2332 30.7108 19.1718L30.7123 19.1711C30.8291 18.7843 30.7123 18.5 30.1472 18.5H28.2776C27.8016 18.5 27.5821 18.744 27.4646 19.0169C27.4646 19.0169 26.5126 21.2784 25.166 22.7443C24.7313 23.1678 24.5304 23.3036 24.2931 23.3036C24.1763 23.3036 23.9946 23.1678 23.9946 22.781V19.1711C23.9946 18.7072 23.8613 18.5 23.4673 18.5H20.5274C20.2289 18.5 20.0515 18.7164 20.0515 18.9179C20.0515 19.3578 20.7248 19.4589 20.7946 20.6964V23.3814C20.7946 23.9697 20.687 24.0779 20.4483 24.0779C19.8128 24.0779 18.2702 21.8073 17.356 19.2086C17.1714 18.7044 16.9912 18.5007 16.5116 18.5007H14.6413C14.1076 18.5007 14 18.7447 14 19.0176C14 19.4999 14.6356 21.8978 16.9556 25.0658C18.5017 27.2283 20.6792 28.4 22.66 28.4C23.8507 28.4 23.996 28.1398 23.996 27.6921C23.996 25.6259 23.8884 25.4307 24.4848 25.4307C24.7613 25.4307 25.2372 25.5665 26.3488 26.6095C27.6192 27.8463 27.828 28.4 28.5391 28.4H30.4087C30.9417 28.4 31.2117 28.1398 31.0564 27.6264C30.7009 26.5466 28.2982 24.3254 28.1899 24.1769Z" fill="#8A8B90"/>
</svg>
