<svg width="46" height="46" viewBox="0 0 46 46" fill="none" xmlns="http://www.w3.org/2000/svg">
<circle cx="23" cy="23" r="22.5" stroke="#EFEFEF"/>
<path fill-rule="evenodd" clip-rule="evenodd" d="M28.8011 17.2644C27.2715 15.7404 25.2373 14.9007 23.0702 14.8998C18.6045 14.8998 14.9701 18.5167 14.9683 22.9621C14.9677 24.3832 15.3408 25.7704 16.0498 26.9931L14.9004 31.1712L19.1953 30.05C20.3787 30.6925 21.711 31.031 23.0669 31.0314H23.0703C27.5354 31.0314 31.1702 27.4142 31.1719 22.9686C31.1728 20.8141 30.3308 18.7884 28.8011 17.2644ZM23.0702 29.6697H23.0674C21.8591 29.6692 20.6741 29.3461 19.64 28.7356L19.3943 28.5903L16.8456 29.2557L17.5259 26.7827L17.3657 26.5291C16.6916 25.4621 16.3357 24.2289 16.3363 22.9626C16.3377 19.2677 19.3585 16.2616 23.0728 16.2616C24.8715 16.2622 26.5622 16.9601 27.8336 18.2269C29.1049 19.4936 29.8046 21.1774 29.804 22.9681C29.8024 26.6633 26.7818 29.6697 23.0702 29.6697ZM26.7638 24.6505C26.5614 24.5496 25.5661 24.0624 25.3805 23.9951C25.1951 23.9278 25.06 23.8944 24.9252 24.096C24.7901 24.2976 24.4023 24.7514 24.2841 24.8858C24.166 25.0203 24.048 25.0372 23.8455 24.9363C23.6431 24.8355 22.9908 24.6226 22.2175 23.9363C21.6158 23.4021 21.2096 22.7423 21.0914 22.5407C20.9735 22.3389 21.0904 22.2404 21.1802 22.1296C21.3994 21.8588 21.6188 21.5748 21.6863 21.4404C21.7538 21.306 21.72 21.1883 21.6693 21.0875C21.6188 20.9867 21.2139 19.995 21.0453 19.5915C20.8808 19.1988 20.7141 19.2519 20.5898 19.2457C20.4718 19.2399 20.3368 19.2387 20.2018 19.2387C20.0669 19.2387 19.8475 19.289 19.6619 19.4908C19.4764 19.6925 18.9535 20.1799 18.9535 21.1715C18.9535 22.1631 19.6789 23.1211 19.7801 23.2556C19.8812 23.3901 21.2076 25.425 23.2382 26.2976C23.7212 26.5053 24.0982 26.6292 24.3923 26.722C24.8773 26.8754 25.3184 26.8537 25.6673 26.8019C26.0563 26.744 26.8649 26.3144 27.0337 25.8439C27.2024 25.3732 27.2024 24.9699 27.1517 24.8858C27.1012 24.8018 26.9662 24.7514 26.7638 24.6505Z" fill="#8A8B90"/>
</svg>
