<svg width="54" height="54" viewBox="0 0 54 54" fill="none" xmlns="http://www.w3.org/2000/svg">
<path fill-rule="evenodd" clip-rule="evenodd" d="M27 53.0357C41.3791 53.0357 53.0357 41.3791 53.0357 27C53.0357 12.6209 41.3791 0.964286 27 0.964286C12.6209 0.964286 0.964286 12.6209 0.964286 27C0.964286 41.3791 12.6209 53.0357 27 53.0357ZM27 54C41.9117 54 54 41.9117 54 27C54 12.0883 41.9117 0 27 0C12.0883 0 0 12.0883 0 27C0 41.9117 12.0883 54 27 54Z" fill="white"/>
<path d="M34.7144 26.9999L23.1429 33.6807L23.1429 20.3192L34.7144 26.9999Z" fill="white"/>
</svg>
