<svg width="311" height="519" viewBox="0 0 311 519" fill="none" xmlns="http://www.w3.org/2000/svg">
<path d="M101.912 147.557C101.912 147.557 -2.20288 227.781 0.0355848 352.318C2.27405 476.854 145.64 589.915 296.19 525.163C306.081 478.186 245.278 428.546 228.151 415.687C208.994 401.395 45.5338 304.06 101.912 147.557Z" fill="#FF6610"/>
<path d="M249.5 -65C249.5 -65 135.825 57.285 110.629 163.021C85.4336 268.756 129.578 304.616 143.061 326.337C156.596 348.058 203.448 384.84 227.134 402.155C250.82 419.47 311.206 463.988 307.823 520.083C440.621 443.087 430.73 313.376 377.684 259.33C377.684 259.33 399.496 334.226 372.27 362.299C383.306 310.866 423.13 16.1098 392 -26C360.87 -68.1098 225.866 47.6002 249.5 -65Z" fill="#FF6610"/>
</svg>
