<svg width="20" height="14" viewBox="0 0 20 14" fill="none" xmlns="http://www.w3.org/2000/svg">
<path d="M2.25 1.786C3.138 0.753999 4.56 0.237999 6.516 0.237999C8.472 0.237999 9.894 0.753999 10.782 1.786C11.67 2.806 12.114 4.444 12.114 6.7C12.114 8.956 11.67 10.6 10.782 11.632C9.894 12.652 8.472 13.162 6.516 13.162C4.56 13.162 3.138 12.652 2.25 11.632C1.362 10.6 0.918 8.956 0.918 6.7C0.918 4.444 1.362 2.806 2.25 1.786ZM3.816 3.244C3.252 3.964 2.97 5.116 2.97 6.7C2.97 8.284 3.252 9.436 3.816 10.156C4.392 10.876 5.292 11.236 6.516 11.236C7.776 11.236 8.682 10.882 9.234 10.174C9.786 9.454 10.062 8.296 10.062 6.7C10.062 5.104 9.786 3.952 9.234 3.244C8.682 2.524 7.776 2.164 6.516 2.164C5.292 2.164 4.392 2.524 3.816 3.244ZM13.6014 3.496L18.4974 0.399999H19.9014V13H17.8494V3.1L14.7174 5.152L13.6014 3.496Z" fill="#CDCED3"/>
</svg>
