<svg width="24" height="14" viewBox="0 0 24 14" fill="none" xmlns="http://www.w3.org/2000/svg">
<path d="M2.25 1.786C3.138 0.753999 4.56 0.237999 6.516 0.237999C8.472 0.237999 9.894 0.753999 10.782 1.786C11.67 2.806 12.114 4.444 12.114 6.7C12.114 8.956 11.67 10.6 10.782 11.632C9.894 12.652 8.472 13.162 6.516 13.162C4.56 13.162 3.138 12.652 2.25 11.632C1.362 10.6 0.918 8.956 0.918 6.7C0.918 4.444 1.362 2.806 2.25 1.786ZM3.816 3.244C3.252 3.964 2.97 5.116 2.97 6.7C2.97 8.284 3.252 9.436 3.816 10.156C4.392 10.876 5.292 11.236 6.516 11.236C7.776 11.236 8.682 10.882 9.234 10.174C9.786 9.454 10.062 8.296 10.062 6.7C10.062 5.104 9.786 3.952 9.234 3.244C8.682 2.524 7.776 2.164 6.516 2.164C5.292 2.164 4.392 2.524 3.816 3.244ZM15.8334 4.144H13.7994C13.7994 2.788 14.1954 1.798 14.9874 1.174C15.7794 0.549999 17.0334 0.237999 18.7494 0.237999C20.4534 0.237999 21.6894 0.549999 22.4574 1.174C23.2374 1.786 23.6274 2.782 23.6274 4.162C23.6274 5.074 23.4534 5.8 23.1054 6.34C22.7574 6.868 22.1994 7.258 21.4314 7.51L17.2014 8.896C16.8054 9.028 16.5174 9.22 16.3374 9.472C16.1694 9.712 16.0854 10.048 16.0854 10.48V11.092H23.6634V13H14.0334V10.678C14.0334 8.818 14.7834 7.648 16.2834 7.168L20.5134 5.782C20.8974 5.65 21.1734 5.464 21.3414 5.224C21.5094 4.984 21.5934 4.648 21.5934 4.216C21.5934 3.508 21.3594 2.992 20.8914 2.668C20.4354 2.332 19.7034 2.164 18.6954 2.164C17.7114 2.164 16.9854 2.326 16.5174 2.65C16.0614 2.962 15.8334 3.46 15.8334 4.144Z" fill="#CDCED3"/>
</svg>
