<svg width="24" height="14" viewBox="0 0 24 14" fill="none" xmlns="http://www.w3.org/2000/svg">
<path d="M2.25 1.786C3.138 0.753999 4.56 0.237999 6.516 0.237999C8.472 0.237999 9.894 0.753999 10.782 1.786C11.67 2.806 12.114 4.444 12.114 6.7C12.114 8.956 11.67 10.6 10.782 11.632C9.894 12.652 8.472 13.162 6.516 13.162C4.56 13.162 3.138 12.652 2.25 11.632C1.362 10.6 0.918 8.956 0.918 6.7C0.918 4.444 1.362 2.806 2.25 1.786ZM3.816 3.244C3.252 3.964 2.97 5.116 2.97 6.7C2.97 8.284 3.252 9.436 3.816 10.156C4.392 10.876 5.292 11.236 6.516 11.236C7.776 11.236 8.682 10.882 9.234 10.174C9.786 9.454 10.062 8.296 10.062 6.7C10.062 5.104 9.786 3.952 9.234 3.244C8.682 2.524 7.776 2.164 6.516 2.164C5.292 2.164 4.392 2.524 3.816 3.244ZM13.5654 9.31H15.5994C15.5994 9.982 15.8334 10.474 16.3014 10.786C16.7694 11.086 17.5134 11.236 18.5334 11.236C19.5414 11.236 20.2734 11.086 20.7294 10.786C21.1974 10.474 21.4314 9.988 21.4314 9.328C21.4314 8.656 21.1794 8.176 20.6754 7.888C20.1714 7.588 19.3554 7.438 18.2274 7.438H17.6154V5.656H18.3354C19.3794 5.656 20.1294 5.518 20.5854 5.242C21.0534 4.966 21.2874 4.516 21.2874 3.892C21.2874 3.28 21.0714 2.842 20.6394 2.578C20.2074 2.302 19.5234 2.164 18.5874 2.164C17.6394 2.164 16.9494 2.302 16.5174 2.578C16.0854 2.854 15.8694 3.298 15.8694 3.91H13.8354C13.8354 2.626 14.2074 1.696 14.9514 1.12C15.7074 0.531999 16.9194 0.237999 18.5874 0.237999C20.2554 0.237999 21.4614 0.507999 22.2054 1.048C22.9494 1.588 23.3214 2.458 23.3214 3.658C23.3214 5.074 22.7694 6.034 21.6654 6.538C22.8774 7.078 23.4834 8.086 23.4834 9.562C23.4834 10.822 23.0874 11.74 22.2954 12.316C21.5154 12.88 20.2614 13.162 18.5334 13.162C16.7934 13.162 15.5274 12.856 14.7354 12.244C13.9554 11.632 13.5654 10.654 13.5654 9.31Z" fill="#CDCED3"/>
</svg>
