<svg width="25" height="14" viewBox="0 0 25 14" fill="none" xmlns="http://www.w3.org/2000/svg">
<path d="M2.25 1.786C3.138 0.753999 4.56 0.237999 6.516 0.237999C8.472 0.237999 9.894 0.753999 10.782 1.786C11.67 2.806 12.114 4.444 12.114 6.7C12.114 8.956 11.67 10.6 10.782 11.632C9.894 12.652 8.472 13.162 6.516 13.162C4.56 13.162 3.138 12.652 2.25 11.632C1.362 10.6 0.918 8.956 0.918 6.7C0.918 4.444 1.362 2.806 2.25 1.786ZM3.816 3.244C3.252 3.964 2.97 5.116 2.97 6.7C2.97 8.284 3.252 9.436 3.816 10.156C4.392 10.876 5.292 11.236 6.516 11.236C7.776 11.236 8.682 10.882 9.234 10.174C9.786 9.454 10.062 8.296 10.062 6.7C10.062 5.104 9.786 3.952 9.234 3.244C8.682 2.524 7.776 2.164 6.516 2.164C5.292 2.164 4.392 2.524 3.816 3.244ZM13.9974 9.31H16.0494C16.0494 9.97 16.2894 10.456 16.7694 10.768C17.2614 11.08 18.0114 11.236 19.0194 11.236C20.1354 11.236 20.9514 11.05 21.4674 10.678C21.9834 10.306 22.2414 9.718 22.2414 8.914C22.2414 8.074 21.9594 7.468 21.3954 7.096C20.8434 6.712 19.9434 6.52 18.6954 6.52C17.8794 6.52 17.2794 6.604 16.8954 6.772C16.5234 6.928 16.3374 7.186 16.3374 7.546H14.4294V0.399999H23.4114V2.452H16.3374V5.296C16.9494 4.84 17.9574 4.612 19.3614 4.612C21.0534 4.612 22.2954 4.954 23.0874 5.638C23.8914 6.322 24.2934 7.396 24.2934 8.86C24.2934 10.36 23.8734 11.452 23.0334 12.136C22.1934 12.82 20.8554 13.162 19.0194 13.162C17.2674 13.162 15.9894 12.856 15.1854 12.244C14.3934 11.632 13.9974 10.654 13.9974 9.31Z" fill="#CDCED3"/>
</svg>
