<svg width="60" height="60" viewBox="0 0 60 60" fill="none" xmlns="http://www.w3.org/2000/svg">
<path d="M15.8021 33.2058V9.34293C15.8021 8.49272 15.4643 7.67734 14.8631 7.07615C14.2619 6.47496 13.4466 6.13722 12.5964 6.13722C12.1751 6.13609 11.7577 6.21823 11.3682 6.37894C10.9788 6.53964 10.6249 6.77573 10.327 7.07363C10.0291 7.37153 9.79305 7.72538 9.63235 8.11482C9.47165 8.50427 9.38951 8.92164 9.39064 9.34293V35.7715" stroke="#FF5710" stroke-width="2.3" stroke-miterlimit="10" stroke-linecap="round" stroke-linejoin="round"/>
<path d="M22.2169 33.2057V23.5885C22.2169 23.1668 22.1337 22.7493 21.972 22.3598C21.8104 21.9703 21.5735 21.6165 21.2749 21.3187C20.9763 21.0209 20.6219 20.785 20.232 20.6244C19.8421 20.4638 19.4243 20.3817 19.0026 20.3828V20.3828C18.5813 20.3817 18.1639 20.4638 17.7745 20.6245C17.385 20.7852 17.0312 21.0213 16.7333 21.3192C16.4354 21.6171 16.1993 21.971 16.0386 22.3604C15.8779 22.7499 15.7958 23.1672 15.7969 23.5885" stroke="#FF5710" stroke-width="2.3" stroke-miterlimit="10" stroke-linecap="round" stroke-linejoin="round"/>
<path d="M28.6263 33.2059V25.7145C28.624 24.865 28.2855 24.0509 27.6848 23.4502C27.0841 22.8495 26.2701 22.5111 25.4206 22.5088V22.5088C24.5704 22.5088 23.755 22.8465 23.1538 23.4477C22.5526 24.0489 22.2148 24.8643 22.2148 25.7145" stroke="#FF5710" stroke-width="2.3" stroke-miterlimit="10" stroke-linecap="round" stroke-linejoin="round"/>
<path d="M28.625 27.8659C28.625 27.0157 28.9627 26.2003 29.5639 25.5991C30.1651 24.9979 30.9805 24.6602 31.8307 24.6602C32.6809 24.6602 33.4963 24.9979 34.0975 25.5991C34.6987 26.2003 35.0364 27.0157 35.0364 27.8659V38.9059" stroke="#FF5710" stroke-width="2.3" stroke-miterlimit="10"/>
<path d="M21.5725 11.1429C21.5725 5.95721 17.7297 1.71436 12.9964 1.71436C8.26317 1.71436 4.42969 5.92893 4.42969 11.1429" stroke="#FF5710" stroke-width="2.3" stroke-miterlimit="10" stroke-linecap="round"/>
<path d="M9.39208 26.7944C7.77975 27.0536 6.28474 27.7981 5.10637 28.9287C3.06637 31.1059 3.04065 33.8573 2.97208 35.3401C2.8178 38.3916 3.87208 40.6287 5.10637 43.183C6.57266 46.1828 8.5136 48.9241 10.8526 51.3017C11.234 51.6893 11.4578 52.2075 11.4578 52.7513V55.4287C11.4578 56.5333 12.3532 57.4287 13.4578 57.4287H29.4721C30.5767 57.4287 31.4721 56.5333 31.4721 55.4287V52.1227C31.4721 51.753 31.5763 51.3915 31.7624 51.0721C33.9123 47.382 35.0444 43.1833 35.0378 38.9059" stroke="#FF5710" stroke-width="2.3" stroke-miterlimit="10" stroke-linejoin="round"/>
</svg>
