<svg width="56" height="59" viewBox="0 0 56 59" fill="none" xmlns="http://www.w3.org/2000/svg">
<path d="M28.24 22.4566C33.8889 22.4566 38.4683 17.8772 38.4683 12.2283C38.4683 6.57936 33.8889 2 28.24 2C22.5911 2 18.0117 6.57936 18.0117 12.2283C18.0117 17.8772 22.5911 22.4566 28.24 22.4566Z" stroke="#FF5710" stroke-width="2.3" stroke-miterlimit="10"/>
<path d="M25 12.6935L27.2531 15.0521L32.0729 10" stroke="#FF5710" stroke-width="2" stroke-miterlimit="10" stroke-linecap="round" stroke-linejoin="round"/>
<path d="M28.4207 27.6875H6.24934L1.98828 37.067H24.1597L28.4207 27.6875Z" stroke="#FF5710" stroke-width="2.3" stroke-miterlimit="10" stroke-linejoin="round"/>
<path d="M49.7369 27.6875H27.5742L31.8353 37.067H54.0066L49.7369 27.6875Z" stroke="#FF5710" stroke-width="2.3" stroke-miterlimit="10" stroke-linejoin="round"/>
<path d="M5.91797 37.0669V57.4282H27.9941H33.5131H50.0702V37.0669" stroke="#FF5710" stroke-width="2.3" stroke-miterlimit="10" stroke-linecap="round" stroke-linejoin="round"/>
<path d="M28 57.4286V49.5474" stroke="#FF5710" stroke-width="2.3" stroke-miterlimit="10"/>
<path d="M28 38.8081L28 49.9227" stroke="#FF5710" stroke-width="2.3" stroke-miterlimit="10"/>
<path d="M28 40.7567V28.5884" stroke="#FF5710" stroke-width="2.3" stroke-miterlimit="10"/>
</svg>
