<svg width="51" height="56" viewBox="0 0 51 56" fill="none" xmlns="http://www.w3.org/2000/svg">
<path d="M17.0929 54.0002C25.4284 54.0002 32.1857 47.2429 32.1857 38.9073C32.1857 30.5718 25.4284 23.8145 17.0929 23.8145C8.75731 23.8145 2 30.5718 2 38.9073C2 47.2429 8.75731 54.0002 17.0929 54.0002Z" stroke="#FF5710" stroke-width="2.3" stroke-miterlimit="10"/>
<path d="M17.0924 48.136C22.1895 48.136 26.3215 44.004 26.3215 38.9069C26.3215 33.8098 22.1895 29.6777 17.0924 29.6777C11.9953 29.6777 7.86328 33.8098 7.86328 38.9069C7.86328 44.004 11.9953 48.136 17.0924 48.136Z" stroke="#FF5710" stroke-width="2.3" stroke-miterlimit="10"/>
<path d="M17 35V39.3504H20.2628" stroke="#FF5710" stroke-width="2" stroke-miterlimit="10" stroke-linecap="round" stroke-linejoin="round"/>
<path d="M10.8047 24.7372V2H49.3899V21M32.619 40.5758H49.3899V21.2879" stroke="#FF5710" stroke-width="2.3" stroke-miterlimit="10" stroke-linecap="round" stroke-linejoin="round"/>
<path d="M35.9595 2H24.2227V17.9319L30.0957 12.9071L35.9595 17.9319V2Z" stroke="#FF5710" stroke-width="2.3" stroke-miterlimit="10" stroke-linejoin="round"/>
</svg>
