<svg width="55" height="54" viewBox="0 0 55 54" fill="none" xmlns="http://www.w3.org/2000/svg">
<path d="M27.5 2C13.4167 2 2 13.4167 2 27.5C2 39.2884 14 55.5 32.7657 52.4557C37.8241 51.6351 42.2539 48.8762 45.7108 45.3499C46.8712 44.1661 47.9172 42.8697 48.8307 41.4785C49.8631 39.9063 50.7263 38.2132 51.3945 36.4249C52.4325 33.6471 53 30.6398 53 27.5C53 13.4167 41.5833 2 27.5 2Z" stroke="#FF5710" stroke-width="2.3" stroke-miterlimit="10" stroke-linecap="round"/>
<path d="M45.7157 27.5C45.7157 32.3315 43.7963 36.9651 40.38 40.3815C36.9636 43.7979 32.33 45.7172 27.4985 45.7172C22.6669 45.7172 18.0333 43.7979 14.6169 40.3815C11.2006 36.9651 9.28125 32.3315 9.28125 27.5H45.7157Z" stroke="#FF5710" stroke-width="2.3" stroke-miterlimit="10"/>
<path d="M22.0336 21.1149C21.9727 19.7071 21.3707 18.3771 20.353 17.4025C19.3353 16.4279 17.9806 15.8838 16.5715 15.8838C15.1624 15.8838 13.8077 16.4279 12.79 17.4025C11.7723 18.3771 11.1702 19.7071 11.1094 21.1149" stroke="#FF5710" stroke-width="2.3" stroke-miterlimit="10" stroke-linecap="round"/>
<path d="M43.8992 21.1151C43.8992 19.6652 43.3232 18.2746 42.2979 17.2493C41.2726 16.224 39.882 15.6479 38.432 15.6479C36.9821 15.6479 35.5914 16.224 34.5661 17.2493C33.5409 18.2746 32.9648 19.6652 32.9648 21.1151" stroke="#FF5710" stroke-width="2.3" stroke-miterlimit="10" stroke-linecap="round"/>
<path d="M39.5668 41.2081C38.2312 39.237 36.433 37.6231 34.3295 36.5075C32.226 35.3919 29.8812 34.8086 27.5002 34.8086C25.1192 34.8086 22.7744 35.3919 20.6709 36.5075C18.5674 37.6231 16.7692 39.237 15.4336 41.2081" stroke="#FF5710" stroke-width="2.3" stroke-miterlimit="10"/>
</svg>
