<svg width="45" height="48" viewBox="0 0 45 48" fill="none" xmlns="http://www.w3.org/2000/svg">
<path fill-rule="evenodd" clip-rule="evenodd" d="M23.2296 2.25292C20.5777 3.05208 18.3662 4.37067 16.5737 6.22144C15.5683 7.25953 14.8345 8.28328 14.1697 9.57494C12.9979 11.8519 12.621 13.3556 12.6075 15.8076L12.5986 17.4153L12.3298 17.2212C11.914 16.921 11.1983 16.897 10.796 17.1699C10.2127 17.5655 9.26937 19.7937 8.89617 21.6576C8.66701 22.8024 8.61986 25.0842 8.79975 26.3221C9.15899 28.7939 10.1523 31.1235 11.7012 33.1269C11.931 33.424 12.1021 33.6829 12.0815 33.702C12.0609 33.7211 10.068 34.4647 7.6529 35.3545C5.23782 36.2442 3.0129 37.0992 2.70857 37.2543C2.0329 37.5988 1.01945 38.5715 0.683416 39.1981C-0.456594 41.3236 -0.151716 43.759 1.45855 45.3914C2.70275 46.6526 4.37912 47.1987 5.96387 46.859C6.33143 46.7802 9.039 45.8267 11.9808 44.7402C14.9226 43.6537 17.357 42.7648 17.3907 42.7648C17.4243 42.7648 17.4519 42.9458 17.4519 43.1672C17.4519 44.8119 18.7144 46.7034 20.3368 47.4896C23.5081 49.0264 27.1682 46.933 27.5726 43.3511C27.609 43.0286 27.6526 42.7648 27.6697 42.7648C27.6866 42.7648 30.1648 43.675 33.1767 44.7875C39.3496 47.0676 39.5582 47.1242 40.8451 46.867C43.291 46.3779 45 44.3157 45 41.8533C45 40.3369 44.5468 39.2114 43.5106 38.1544C42.7081 37.3358 42.4132 37.2004 37.4909 35.3917C33.8688 34.0606 33.4603 33.8901 33.5621 33.7517C33.6246 33.6668 33.8921 33.3065 34.1566 32.9512C34.7373 32.1708 35.4806 30.6958 35.7973 29.6954C36.044 28.916 35.7143 29.3302 35.7973 28.5L33.5791 27C33.5835 27.7374 33.5141 27.4664 33.3694 28.0624C32.7423 30.6463 31.1994 32.6659 28.6187 34.2804C28.2524 34.5096 27.9229 34.6971 27.8866 34.6971C27.8502 34.6971 27.8655 34.5389 27.9206 34.3454C28.0922 33.7433 28.0361 32.1991 27.8177 31.5076C27.608 30.8441 23.8437 23.6254 23.5204 23.2669C23.1927 22.9035 22.8261 22.7575 22.3717 22.8095C21.8393 22.8704 21.5395 23.1049 21.1891 23.7346C20.2045 25.5044 17.4194 30.8989 17.2489 31.3669C17.0799 31.8306 17.043 32.1305 17.0398 33.0696C17.0353 34.3703 17.1123 34.3231 16.1557 33.611C14.6865 32.5175 13.2389 30.7311 12.4661 29.0576C11.3455 26.6309 11.1291 23.4905 11.9131 21.03L12.0084 20.7308L12.7852 21.2446C14.4367 22.337 15.0364 22.4422 15.7106 21.7581C16.1947 21.267 16.24 20.8993 15.9411 19.8899C15.4976 18.3926 15.377 17.5139 15.385 15.8414C15.3943 13.9113 15.6065 12.9837 16.4266 11.2879C17.528 9.0104 18.9808 7.43768 21.1677 6.15558C22.0868 5.61674 22.2062 5.59939 22.1361 6.01487C21.8454 7.73731 21.7794 8.66414 21.827 10.3536C21.8818 12.3014 22.0471 13.3335 22.5478 14.8564C23.2685 17.0481 24.6898 18.9668 26.4189 20.0824C27.09 20.5154 27.447 20.5889 27.9437 20.3963C28.7425 20.0868 28.9975 19.3645 28.6742 18.3274C28.4542 17.6215 28.4745 16.2137 28.7143 15.5358C28.8194 15.2387 28.9677 14.9055 29.0437 14.7953L29.182 14.5949L29.225 14.8195C29.6663 17.1214 30.1805 18.312 31.5225 20.1394L33.5791 18.3274C33.11 17.1729 31.9383 14.5443 31.9479 12.7765C31.9562 11.26 31.9447 11.1472 31.7513 10.8534C31.5097 10.4862 31.0219 10.2132 30.6075 10.213C30.4389 10.2129 29.9444 10.4025 29.452 10.656C28.7587 11.0129 28.4384 11.2548 27.8055 11.899C26.9026 12.8181 26.4515 13.5493 26.0879 14.6836L25.8312 15.4844L25.6484 15.1235C25.3475 14.5298 24.9711 13.4068 24.7886 12.5581C24.5232 11.3241 24.5422 8.19313 24.8237 6.78383C25.0514 5.64404 25.3578 4.6611 25.6788 4.04055C26.1756 3.08032 25.5063 1.93772 24.4636 1.96596C24.2933 1.97065 23.738 2.09973 23.2296 2.25292ZM25.2215 32.6099C25.1568 32.302 24.6472 31.2208 23.8619 29.7252C23.1711 28.4096 22.5797 27.3036 22.5479 27.2677C22.5161 27.2318 21.8869 28.3505 21.1496 29.7537L19.8092 32.305L19.8105 33.1024C19.8116 33.7833 19.8478 33.9695 20.0588 34.3772C20.3348 34.9109 20.7767 35.3441 21.3602 35.6532C21.9256 35.9527 23.0611 35.954 23.6573 35.6559C24.8035 35.0828 25.4688 33.7873 25.2215 32.6099ZM17.4519 37.625L16.6646 37.2292C16.2316 37.0115 15.5522 36.6126 15.1548 36.3427L14.4322 35.8519L9.30921 37.7427C6.49163 38.7825 4.06148 39.7009 3.90895 39.7835C3.29013 40.1187 2.8599 40.807 2.78031 41.5892C2.64414 42.9282 3.68588 44.106 5.01513 44.1161C5.51755 44.1198 6.16281 43.9018 11.5124 41.9207L17.4519 39.7211V38.6731V37.625ZM41.2022 39.8267C41.0784 39.7445 39.1886 39.0166 37.0028 38.2094C34.817 37.402 32.589 36.5811 32.0517 36.385L31.0748 36.0283L30.4339 36.4518C29.785 36.8805 28.4279 37.5914 27.9057 37.7761L27.6207 37.8769V38.8199C27.6207 39.3386 27.6376 39.7629 27.6582 39.7629C27.6788 39.7629 30.317 40.7327 33.5207 41.9181C36.7245 43.1035 39.5103 44.1001 39.7115 44.1328C40.2048 44.2128 40.982 43.9718 41.421 43.6028C42.5905 42.6195 42.4778 40.675 41.2022 39.8267ZM24.8608 38.684L22.982 38.6773C21.9488 38.6735 20.9059 38.6263 20.6643 38.5721L20.2252 38.4737L20.2272 40.9241C20.2291 43.1861 20.2438 43.407 20.4176 43.7967C20.8239 44.7077 21.4959 45.1476 22.4901 45.1532C23.4639 45.1588 24.1245 44.752 24.5967 43.8561C24.7897 43.4901 24.8028 43.3339 24.8309 41.0762L24.8608 38.684Z" fill="white"/>
<path fill-rule="evenodd" clip-rule="evenodd" d="M32.9842 0.15196C32.5752 0.360498 32.2428 0.862004 32.2428 1.27092C32.2428 1.96436 31.7079 2.65789 31.1077 2.7427C29.3293 2.99411 28.8645 3.1761 28.0333 3.94702C27.1912 4.72808 26.6962 5.82997 26.6962 6.92398C26.6962 7.86264 27.3165 8.48647 28.1627 8.39904C28.8821 8.32465 29.3497 7.81648 29.4604 6.98889C29.4998 6.69358 29.6147 6.33776 29.7154 6.19817C29.9626 5.85605 30.4527 5.61646 30.9061 5.61637C31.4103 5.61608 32.2356 5.38916 32.8144 5.0915C33.8525 4.55772 34.7091 3.32751 34.9269 2.05779C35.0546 1.31313 34.9888 0.92495 34.6701 0.540425C34.2243 0.00280261 33.5716 -0.147574 32.9842 0.15196Z" fill="white"/>
<path fill-rule="evenodd" clip-rule="evenodd" d="M38.8402 22.1598C38.6272 21.9467 38.2819 21.9467 38.0689 22.1598L36.1598 24.0689C35.9467 24.2819 35.9467 24.6272 36.1598 24.8402C36.3728 25.0533 36.7181 25.0533 36.9311 24.8402L38.8402 22.9311C39.0533 22.7181 39.0533 22.3728 38.8402 22.1598Z" fill="white"/>
<path fill-rule="evenodd" clip-rule="evenodd" d="M36.1598 22.1598C36.3728 21.9467 36.7181 21.9467 36.9311 22.1598L38.8402 24.0689C39.0533 24.2819 39.0533 24.6272 38.8402 24.8402C38.6272 25.0533 38.2819 25.0533 38.0689 24.8402L36.1598 22.9311C35.9467 22.7181 35.9467 22.3728 36.1598 22.1598Z" fill="white"/>
<path fill-rule="evenodd" clip-rule="evenodd" d="M37.5 28.1875C40.0888 28.1875 42.1875 26.0888 42.1875 23.5C42.1875 20.9112 40.0888 18.8125 37.5 18.8125C34.9112 18.8125 32.8125 20.9112 32.8125 23.5C32.8125 26.0888 34.9112 28.1875 37.5 28.1875ZM37.5 31C41.6421 31 45 27.6421 45 23.5C45 19.3579 41.6421 16 37.5 16C33.3579 16 30 19.3579 30 23.5C30 27.6421 33.3579 31 37.5 31Z" fill="white"/>
</svg>
