<svg width="44" height="44" viewBox="0 0 44 44" fill="none" xmlns="http://www.w3.org/2000/svg">
<path fill-rule="evenodd" clip-rule="evenodd" d="M19.4664 0.0517428C15.3757 0.471327 11.5227 2.00615 8.30047 4.49972C7.32352 5.25572 5.55822 6.99321 4.75368 7.99064C2.20315 11.1526 0.66158 14.7825 0.110365 18.9241C-0.0532892 20.1538 -0.0304518 23.5579 0.149129 24.7001C0.502224 26.9463 1.13063 28.9089 2.15595 30.9686C4.30014 35.2754 7.78162 38.7576 12.0927 40.907C14.1345 41.925 16.1372 42.569 18.3317 42.9131C19.5098 43.0979 22.8927 43.1236 24.1434 42.9572C27.5921 42.4985 30.7302 41.3309 33.5178 39.4692C35.9267 37.8603 38.3351 35.3686 39.858 32.9097C44.602 25.2499 44.0946 15.4058 38.5917 8.34138C35.1006 3.85969 30.1916 1.00299 24.5482 0.169048C23.4954 0.0135681 20.5109 -0.0553654 19.4664 0.0517428ZM20.2669 4.58029V6.58509L19.7402 6.60447C18.5733 6.64745 17.5521 7.12181 16.6416 8.04356C15.9096 8.78456 15.6108 9.2965 15.3774 10.2092C15.1662 11.0352 15.1662 11.7286 15.3774 12.5545C15.6108 13.4672 15.9096 13.9792 16.6416 14.7202C17.5676 15.6577 18.638 16.1432 19.779 16.1432H20.2669V18.2078V20.2724L17.2964 20.2726C14.6365 20.2727 14.2952 20.2881 14.0326 20.4201C13.4112 20.7322 13.2026 21.4239 13.4894 22.2211C13.8098 23.1123 13.558 24.1361 12.8692 24.7423C12.4797 25.0852 11.8597 25.3287 11.3764 25.3287C10.9109 25.3287 10.2841 25.0888 9.90752 24.7664C9.18009 24.1438 8.96301 23.1714 9.30667 22.0754C9.4951 21.4746 9.44015 21.0544 9.12919 20.7169C8.73329 20.2873 8.61059 20.2724 5.4801 20.2724H2.57006V19.8999C2.57006 19.695 2.66234 18.984 2.77518 18.3198C4.09165 10.5713 10.0993 4.39 17.7809 2.88063C19.0552 2.63026 19.2305 2.60515 19.8245 2.58821L20.2669 2.57557V4.58029ZM25.3153 2.87583C32.8012 4.39152 38.676 10.2663 40.1917 17.7521C40.3081 18.3275 40.429 19.1299 40.4601 19.5353L40.5168 20.2724H38.4928H36.4689L36.4574 19.7457C36.4168 17.8974 35.0387 16.0946 33.1764 15.454C32.3763 15.1787 30.9986 15.1774 30.203 15.4512C28.3359 16.0939 26.9243 17.9403 26.9243 19.74V20.2724H24.8597H22.7951V17.2766C22.7951 14.0271 22.7904 13.991 22.3222 13.6228C21.9215 13.3075 21.5349 13.2567 20.9827 13.4467C19.9395 13.8056 18.9255 13.5802 18.3011 12.8507C17.9787 12.4741 17.7388 11.8473 17.7388 11.3819C17.7388 10.5669 18.297 9.69485 19.0403 9.34875C19.5551 9.109 20.2984 9.08346 20.8904 9.28521C21.4315 9.46959 22.055 9.40732 22.3452 9.13976C22.781 8.73795 22.7951 8.62326 22.7951 5.47322V2.55071L23.5322 2.60734C23.9376 2.63852 24.74 2.75936 25.3153 2.87583ZM32.4192 17.8753C32.9473 18.0552 33.4816 18.5365 33.7187 19.0458C33.9675 19.58 33.9801 20.2808 33.7539 21.0022C33.5706 21.5866 33.6177 21.9351 33.9342 22.3375C34.2847 22.783 34.4231 22.8006 37.5943 22.8006H40.5168L40.4601 23.5377C40.429 23.9431 40.3092 24.7401 40.1941 25.3087C38.7812 32.2869 33.6288 37.8475 26.7045 39.8671C25.8421 40.1186 23.7165 40.4974 23.1676 40.4974H22.7951V38.4749V36.4524H23.283C25.1105 36.4524 26.972 35.0465 27.6135 33.1819C27.8901 32.3778 27.8901 31.0044 27.6135 30.2004C26.9726 28.3373 25.2135 26.9885 23.3217 26.9097L22.7951 26.8877L22.7951 24.8441V22.8006H25.7472C28.9506 22.8006 29.0862 22.7835 29.437 22.3375C29.7535 21.9351 29.8006 21.5866 29.6174 21.0022C29.5279 20.7167 29.4545 20.2556 29.4544 19.9775C29.4535 18.4493 30.963 17.3791 32.4192 17.8753ZM6.61632 23.2851C6.62172 25.3881 8.14146 27.1966 10.2808 27.6458C13.3144 28.2826 16.1377 26.1951 16.1377 23.3151V22.8006H18.2023H20.2669L20.2671 25.7711C20.2672 28.431 20.2826 28.7723 20.4146 29.0349C20.7267 29.6562 21.4184 29.8649 22.2156 29.5781C23.1023 29.2593 24.1308 29.5099 24.7302 30.1907C26.0236 31.6602 25.0211 33.9204 23.0744 33.9235C22.7877 33.924 22.4464 33.8819 22.316 33.8301C21.6304 33.5578 21.0898 33.5991 20.6985 33.9535C20.2837 34.3291 20.2669 34.4708 20.2669 37.6V40.5226L19.4993 40.4682C16.3188 40.2424 12.5001 38.6642 9.69094 36.4146C8.88144 35.7663 7.38394 34.2749 6.72528 33.4608C4.41264 30.6029 2.82911 26.8061 2.5993 23.5682L2.54486 22.8006H4.57992H6.61506L6.61632 23.2851Z" fill="white"/>
</svg>
