<svg width="44" height="42" viewBox="0 0 44 42" fill="none" xmlns="http://www.w3.org/2000/svg">
<path fill-rule="evenodd" clip-rule="evenodd" d="M24.0049 0.0279798C23.1247 0.138119 21.7283 0.449838 20.9292 0.714723C18.7138 1.44916 15.6881 3.23532 14.0312 4.78671C13.7302 5.06858 13.6081 5.11936 13.022 5.2066C11.5144 5.431 9.95743 6.06773 8.84381 6.91556C7.50365 7.93573 6.02438 9.92176 6.02798 10.6958C6.02995 11.1052 6.34808 11.6317 6.71013 11.8248C7.39262 12.1886 8.06826 11.9265 8.56121 11.1066C9.56294 9.44054 10.7449 8.46584 12.3663 7.96867C13.4094 7.64889 13.4677 7.66141 14.0303 8.32594C15.3873 9.92862 17.581 11.4382 19.5798 12.1449C21.026 12.6561 21.8941 12.7919 23.7053 12.7899C25.993 12.7874 27.2145 12.5417 30.0833 11.5064C31.9386 10.8369 32.6704 10.6722 33.7646 10.678C34.4192 10.6814 34.8495 10.7345 35.3484 10.8733C36.3666 11.1567 36.598 11.169 37.0047 10.9611C37.4106 10.7536 37.7027 10.2704 37.7027 9.80621C37.7027 9.42613 36.8916 7.79608 36.0973 6.57974C33.8408 3.12441 30.8282 0.891941 27.4721 0.188386C26.8077 0.0490813 24.6388 -0.0512795 24.0049 0.0279798ZM27.3638 2.79957C29.2768 3.29468 31.0598 4.44472 32.5347 6.13507C33.1923 6.88872 33.9758 7.9407 33.9205 7.99603C33.9029 8.01379 33.4739 8.07049 32.9673 8.12213C31.8233 8.2387 30.8473 8.49097 29.1416 9.11081C27.443 9.72807 26.1802 10.0527 24.9572 10.1864C22.2112 10.4865 19.8029 9.82826 17.6508 8.18912L17.0581 7.73775L21.7943 7.69486C26.1153 7.65575 26.5547 7.63868 26.8078 7.50006C27.1267 7.3255 27.4293 6.79376 27.4293 6.40819C27.4293 5.98255 27.1265 5.48838 26.7467 5.29418C26.4214 5.12794 26.2495 5.12151 22.1081 5.12151H17.8074L18.2308 4.85199C19.9964 3.72821 22.1686 2.88398 23.9382 2.63393C24.7845 2.51427 26.6008 2.60211 27.3638 2.79957ZM40.8376 13.7023C40.3465 13.8496 39.9285 14.408 39.9285 14.9167C39.9285 15.0873 40.115 15.5729 40.3993 16.1433C40.9513 17.2504 41.1182 17.8335 41.186 18.892C41.24 19.7352 41.0728 20.8244 40.7907 21.4667C40.6426 21.8039 40.6209 21.8173 40.0479 21.9215C37.1321 22.4518 34.2878 24.0451 32.5365 26.1291C30.9149 28.0588 29.8889 30.3454 29.314 33.3112C28.7799 36.0658 28.6374 36.627 28.2854 37.362C27.8834 38.2015 27.6202 38.564 26.8002 39.4079C26.2143 40.0109 26.1987 40.0384 26.1676 40.523C26.1268 41.1597 26.3321 41.5181 26.8758 41.7591C27.3894 41.9867 29.4388 42.0709 30.9394 41.926C36.2193 41.4161 39.9464 39.0926 41.895 35.0963C42.3732 34.1156 42.8817 32.5444 43.1009 31.3697C43.473 29.3764 43.4137 25.8319 42.9734 23.7532C42.862 23.2274 42.8653 23.1983 43.1055 22.6258C43.5814 21.4908 43.7311 20.6611 43.7259 19.1892C43.7218 18.0328 43.6916 17.7481 43.4942 17.0038C43.24 16.0446 42.5476 14.5472 42.1472 14.0903C41.9993 13.9215 41.7456 13.7509 41.5695 13.7019C41.2097 13.6018 41.1726 13.6018 40.8376 13.7023ZM3.73549 14.8091C3.06747 15.2293 1.38744 18.2776 0.730459 20.2614C0.168766 21.9578 -0.00245618 23.0135 2.65351e-05 24.7648C0.00182436 25.9928 0.0373529 26.4298 0.195134 27.1666C0.751262 29.7622 2.2664 32.1974 4.50299 34.0898C6.29722 35.608 8.55461 36.8915 10.8742 37.7123C11.681 37.9977 11.7631 38.0485 12.0614 38.4471C13.7482 40.7009 16.6712 42.1089 19.4239 41.9934C20.1932 41.9611 20.4315 41.8528 20.7892 41.3728C21.0315 41.0476 21.0302 40.3905 20.7866 40.0611C20.4148 39.5583 20.1649 39.4632 19.0674 39.4064C18.5106 39.3776 17.8238 39.2917 17.5413 39.2155C16.3975 38.9069 14.9975 38.0272 14.3411 37.2044L14.0516 36.8416L14.3572 35.8426C14.824 34.3164 14.9445 33.6038 14.9932 32.0847C15.0572 30.0863 14.805 28.6131 14.1108 26.9309C13.2083 24.7434 11.7745 22.916 9.28068 20.7743C7.39245 19.1528 6.82305 18.526 6.33695 17.5343C6.12403 17.0999 5.88852 16.4936 5.81361 16.1869C5.62218 15.4036 5.53546 15.2113 5.24995 14.9372C4.90887 14.6098 4.15387 14.546 3.73549 14.8091ZM4.4744 19.4807C5.0884 20.4116 5.75026 21.1152 7.18236 22.3594C7.98282 23.0549 8.98926 23.9927 9.41886 24.4435C11.0294 26.1337 12.0738 28.1599 12.3658 30.1603C12.4799 30.9424 12.4366 33.1562 12.3004 33.5054L12.2202 33.7111L12.0446 33.4197C11.9481 33.2593 10.8944 31.4347 9.70334 29.365C7.33312 25.2463 7.3588 25.2799 6.58308 25.2803C5.8339 25.2807 5.34326 25.7688 5.34232 26.5147C5.34172 26.9069 5.47356 27.1642 7.32062 30.3747C8.40907 32.2665 9.38016 33.9477 9.47861 34.1105L9.65763 34.4067L8.89089 33.9929C6.33832 32.6155 4.07673 30.3323 3.21823 28.266C2.69583 27.0087 2.56544 26.3209 2.5627 24.8077C2.55996 23.2685 2.6728 22.5701 3.16215 21.096C3.49595 20.0908 4.0335 18.8792 4.11123 18.9571C4.14 18.9858 4.30343 19.2215 4.4744 19.4807ZM38.7462 25.2151C38.1201 26.248 34.4007 32.7547 34.3026 32.989C34.1176 33.4305 34.2338 33.9187 34.6146 34.3003C35.0174 34.7039 35.4253 34.7908 35.9588 34.5868C36.4329 34.4053 36.3295 34.5629 38.7735 30.2975C39.8007 28.5047 40.6776 26.9993 40.7221 26.9521C40.8789 26.7857 40.7267 30.1338 40.5352 31.0646C39.7205 35.0231 37.6026 37.4962 33.9923 38.7047C32.9331 39.0592 30.1689 39.5488 30.1689 39.382C30.1689 39.3607 30.3194 39.0435 30.5033 38.6769C30.9727 37.7415 31.3139 36.5642 31.6639 34.6722C31.8297 33.7758 32.0455 32.7529 32.1433 32.3991C32.5716 30.8507 33.3442 29.2549 34.2101 28.1304C35.0675 27.0168 36.5954 25.8535 38.0174 25.2314C38.8736 24.8568 38.9646 24.8549 38.7462 25.2151Z" fill="white"/>
</svg>
