<svg width="43" height="42" viewBox="0 0 43 42" fill="none" xmlns="http://www.w3.org/2000/svg">
<path fill-rule="evenodd" clip-rule="evenodd" d="M5.01147 0.827868C5.12784 0.520607 5.40153 0.231482 5.70354 0.0968089C5.90666 0.00628827 8.60004 -0.00987906 21.1058 0.00472899L36.2618 0.0223735L36.4884 0.191597C36.6426 0.306774 36.7546 0.390177 36.8364 0.496729C37.0533 0.779201 37.0583 1.22436 37.0779 2.85551L37.1024 4.89744L39.1443 4.9219C40.7755 4.9415 41.2206 4.94653 41.5031 5.16342C41.6097 5.24524 41.6931 5.35721 41.8082 5.51147C41.9751 5.73494 41.9775 5.8125 41.9775 11.1015C41.9775 16.3905 41.9751 16.4681 41.8082 16.6916C41.4496 17.172 41.2499 17.2544 40.3714 17.2848L39.5565 17.313V25.956V34.599L40.4124 34.627C41.3713 34.6583 41.5894 34.755 41.8666 35.2718C42.0057 35.5313 42.0185 35.7849 42.0185 38.2884C42.0185 40.8658 42.0091 41.0402 41.8533 41.3456C41.7469 41.5541 41.5726 41.7284 41.3641 41.8348C41.0421 41.999 40.9229 42 21.0092 42C1.09544 42 0.976197 41.999 0.654246 41.8348C0.445712 41.7284 0.2714 41.5541 0.16504 41.3456C0.00927568 41.0402 -0.00016211 40.866 2.02589e-06 38.2897C8.40936e-05 35.8509 0.0155128 35.5275 0.14362 35.2763C0.404432 34.7647 0.643823 34.6584 1.6059 34.627L2.46187 34.599V25.956V17.313L1.64694 17.2848C0.768402 17.2544 0.568731 17.172 0.210095 16.6916C0.0432517 16.4681 0.0408717 16.3905 0.0408717 11.1015C0.0408717 5.8125 0.0432517 5.73494 0.210095 5.51147C0.325213 5.35727 0.408552 5.24534 0.515037 5.16353C0.797609 4.94644 1.24317 4.94151 2.87803 4.9219L4.9239 4.89736V2.97812C4.9239 1.81785 4.95853 0.967547 5.01147 0.827868ZM34.6324 4.9054V3.67439V2.44337H21.0092H7.38593V3.67439V4.9054H21.0092H34.6324ZM39.5565 14.8356V11.1015V7.36743H21.0092H2.46187V11.1015V14.8356H21.0092H39.5565ZM9.9306 11.0918C9.93118 10.6409 10.107 10.3099 10.475 10.0673C10.7017 9.91785 11.0574 9.9126 21.0092 9.9126C30.9609 9.9126 31.3166 9.91785 31.5433 10.0673C32.3019 10.5675 32.2781 11.6989 31.499 12.1684C31.2305 12.3302 31.0811 12.3325 21.0092 12.3325C10.9372 12.3325 10.7879 12.3302 10.5194 12.1684C10.1291 11.9333 9.92995 11.5691 9.9306 11.0918ZM9.84796 34.6139V25.9558V17.2976H7.38593H4.9239V25.9558V34.6139H7.38593H9.84796ZM37.0944 34.6139V25.9558V17.2976H34.6324H32.1704V25.9558V34.6139H34.6324H37.0944ZM39.5565 39.538V38.307V37.0759H21.0092H2.46187V38.307V39.538H21.0092H39.5565ZM29.6263 34.6139V25.9558V17.2976H21.0092H12.3921V25.9558V34.6139H27.939H29.6263Z" fill="white"/>
</svg>
