<svg width="555" height="994" viewBox="0 0 555 994" fill="none" xmlns="http://www.w3.org/2000/svg">
<g clip-path="url(#clip0_4662_7956)">
<rect width="555" height="994" fill="none"/>
<path d="M231.306 -77C231.306 -77 -12.1185 115.006 -63.4551 328.071C-114.792 541.136 -24.8466 613.397 2.62489 657.166C30.2024 700.935 125.663 775.054 173.924 809.945C222.184 844.836 345.223 934.543 338.328 1047.58C608.906 892.425 588.753 631.049 480.671 522.142C480.671 522.142 525.113 673.063 469.64 729.633C492.126 625.991 435.698 495.612 372.27 410.758C308.842 325.903 183.152 149.898 231.306 -77Z" fill="#181818"/>
<path d="M-68.3534 305C-68.3534 305 -280.488 466.657 -275.927 717.607C-271.367 968.557 20.7433 1196.38 327.491 1065.9C347.643 971.241 223.756 871.212 188.86 845.301C149.827 816.501 -183.225 620.365 -68.3534 305Z" fill="#181818"/>
</g>
<defs>
<clipPath id="clip0_4662_7956">
<rect width="555" height="994" fill="none"/>
</clipPath>
</defs>
</svg>
