<svg width="48" height="47" viewBox="0 0 48 47" fill="none" xmlns="http://www.w3.org/2000/svg">
<g clip-path="url(#clip0_213_3876)">
<path d="M40.7844 15.7061C40.7839 15.7061 40.7833 15.7061 40.7828 15.7061H0.687238C0.308135 15.7057 0.000401348 16.0062 3.9239e-07 16.3774C3.9239e-07 16.3779 3.9239e-07 16.3785 3.9239e-07 16.379V35.2239C-0.000400563 35.5951 0.306531 35.8964 0.685634 35.8968C0.686136 35.8968 0.686737 35.8968 0.687238 35.8968H27.9522C28.3317 35.8968 28.6395 35.5955 28.6395 35.2239C28.6395 34.8523 28.3317 34.551 27.9522 34.551H1.37448V17.0519H40.0956V18.7346C40.0952 19.1058 40.4021 19.4071 40.7812 19.4075C40.7817 19.4075 40.7823 19.4075 40.7828 19.4075C41.1619 19.4079 41.4696 19.1074 41.47 18.7362C41.47 18.7357 41.47 18.7351 41.47 18.7346V16.379C41.4704 16.0078 41.1635 15.7065 40.7844 15.7061Z" fill="#FF5710"/>
<path d="M36.1242 12.5817L4.04778 5.51482C3.86975 5.47585 3.68321 5.50746 3.52894 5.60276C3.37487 5.69885 3.26591 5.85069 3.22582 6.0252L1.62199 13.092C1.5396 13.455 1.77336 13.8146 2.14404 13.8953C2.51472 13.976 2.882 13.7471 2.96439 13.3841L4.41826 6.97608L35.8227 13.8945C35.8724 13.9058 35.9232 13.9114 35.9743 13.911C36.3538 13.9103 36.6609 13.6085 36.6603 13.2369C36.6597 12.9227 36.4372 12.6509 36.1242 12.5817Z" fill="#FF5710"/>
<path d="M32.2251 8.68785L12.9792 0.835803C12.6447 0.699276 12.2593 0.839533 12.0971 1.15695L10.4933 4.29777C10.3122 4.62579 10.4368 5.03557 10.7719 5.21293C11.1069 5.39029 11.5254 5.26819 11.7066 4.94007C11.7137 4.92721 11.7204 4.91406 11.7266 4.90071V4.90228L13.0426 2.32367L31.6942 9.93309C32.0454 10.0766 32.449 9.91424 32.5956 9.57032C32.7421 9.2266 32.5763 8.83144 32.2251 8.68785Z" fill="#FF5710"/>
<path d="M32.7122 18.8467H26.3474C25.9679 18.8467 25.6602 19.148 25.6602 19.5196C25.6602 19.8912 25.9679 20.1925 26.3474 20.1925H32.7122C33.0917 20.1925 33.3994 19.8912 33.3994 19.5196C33.3994 19.148 33.0917 18.8467 32.7122 18.8467Z" fill="#FF5710"/>
<path d="M19.9318 18.8911C16.0344 18.8911 12.875 21.9847 12.875 25.8009C12.879 29.6154 16.0361 32.7068 19.9318 32.7107C23.8292 32.7107 26.9886 29.6171 26.9886 25.8009C26.9886 21.9847 23.8292 18.8911 19.9318 18.8911ZM19.9318 31.4544C16.743 31.4544 14.1581 28.9233 14.1581 25.8009C14.1616 22.68 16.7445 20.1509 19.9318 20.1474C23.1206 20.1474 25.7056 22.6785 25.7056 25.8009C25.7056 28.9233 23.1206 31.4544 19.9318 31.4544Z" fill="#FF5710"/>
<path d="M39.1765 21.0898C34.9264 21.0898 30.3555 22.0729 30.3555 24.2307V43.0756C30.3555 45.2333 34.9264 46.2164 39.1765 46.2164C43.4266 46.2164 47.9975 45.2333 47.9975 43.0756V24.2307C47.9975 22.0729 43.4266 21.0898 39.1765 21.0898ZM46.3937 43.0638C46.2726 43.4996 43.8677 44.646 39.1765 44.646C34.4853 44.646 32.0804 43.4996 31.9593 43.0756V41.8412C33.6658 42.683 36.4845 43.0756 39.1765 43.0756C41.8685 43.0756 44.688 42.679 46.3937 41.8404V43.0638ZM46.3937 39.923C46.2726 40.3588 43.8677 41.5052 39.1765 41.5052C34.4853 41.5052 32.0804 40.3588 31.9593 39.9347V38.7004C33.6658 39.5421 36.4845 39.9347 39.1765 39.9347C41.8685 39.9347 44.688 39.5382 46.3937 38.6996V39.923ZM46.3937 36.7822C46.2726 37.2179 43.8677 38.3643 39.1765 38.3643C34.4853 38.3643 32.0804 37.2179 31.9593 36.7939V35.5596C33.6658 36.4013 36.4845 36.7939 39.1765 36.7939C41.8685 36.7939 44.688 36.3974 46.3937 35.5588V36.7822ZM46.3937 33.6413C46.2726 34.0771 43.8677 35.2235 39.1765 35.2235C34.4853 35.2235 32.0804 34.0771 31.9593 33.6531V32.4188C33.6658 33.2605 36.4845 33.6531 39.1765 33.6531C41.8685 33.6531 44.688 33.2566 46.3937 32.418V33.6413ZM46.3937 30.5005C46.2726 30.9363 43.8677 32.0827 39.1765 32.0827C34.4853 32.0827 32.0804 30.9363 31.9593 30.5123V29.278C33.6658 30.1158 36.4845 30.5123 39.1765 30.5123C41.8685 30.5123 44.688 30.1158 46.3937 29.2772V30.5005ZM46.3937 27.3597C46.2726 27.7955 43.8677 28.9419 39.1765 28.9419C34.4853 28.9419 32.0804 27.7955 31.9593 27.3715V26.1371C33.6658 26.975 36.4845 27.3715 39.1765 27.3715C41.8685 27.3715 44.688 26.975 46.3937 26.1364V27.3597ZM39.1765 25.8011C34.4925 25.8011 32.0884 24.6578 31.9593 24.2448V24.2401C32.0884 23.8027 34.4925 22.6603 39.1765 22.6603C43.8276 22.6603 46.2333 23.7862 46.3937 24.2307C46.2333 24.6751 43.8276 25.8011 39.1765 25.8011Z" fill="#FF5710"/>
<path d="M13.518 31.4092H7.45636L4.58231 28.3312V23.2273L7.75628 20.1925H13.518C13.8975 20.1925 14.2052 19.8912 14.2052 19.5196C14.2052 19.148 13.8975 18.8467 13.518 18.8467H7.47721C7.29758 18.8463 7.12487 18.9148 6.99606 19.0375L3.41393 22.4586C3.28011 22.6117 3.20673 22.8068 3.20703 23.0083V28.5926C3.20703 28.7606 3.27108 28.9224 3.38666 29.0465L6.64483 32.536C6.77504 32.6755 6.95928 32.7551 7.15244 32.755H13.518C13.8975 32.755 14.2052 32.4537 14.2052 32.0821C14.2052 31.7105 13.8976 31.4092 13.518 31.4092Z" fill="#FF5710"/>
</g>
<defs>
<clipPath id="clip0_213_3876">
<rect width="48" height="47" fill="white"/>
</clipPath>
</defs>
</svg>
