<svg width="17" height="17" viewBox="0 0 17 17" fill="none" xmlns="http://www.w3.org/2000/svg">
<path d="M8.50215 4.69982C6.40364 4.69982 4.70472 6.40056 4.70472 8.49719C4.70472 10.5957 6.40549 12.2946 8.50215 12.2946C10.6007 12.2946 12.2996 10.5938 12.2996 8.49719C12.2996 6.39871 10.5988 4.69982 8.50215 4.69982ZM8.50215 10.962C7.13994 10.962 6.03734 9.85877 6.03734 8.49719C6.03734 7.13561 7.14055 6.03241 8.50215 6.03241C9.86375 6.03241 10.967 7.13561 10.967 8.49719C10.9676 9.85877 9.86437 10.962 8.50215 10.962Z" fill="#8A8B90"/>
<path d="M11.551 1.14628C10.1894 1.08276 6.81687 1.08585 5.45403 1.14628C4.25647 1.2024 3.20012 1.49161 2.3485 2.34321C0.925233 3.76645 1.10715 5.68425 1.10715 8.49682C1.10715 11.3754 0.946816 13.2488 2.3485 14.6504C3.77732 16.0786 5.7229 15.8918 8.50222 15.8918C11.3537 15.8918 12.3379 15.8936 13.3461 15.5033C14.717 14.9711 15.7518 13.7458 15.8529 11.5449C15.917 10.1828 15.9133 6.81088 15.8529 5.44807C15.7308 2.8501 14.3365 1.27454 11.551 1.14628ZM13.7063 13.7088C12.7733 14.6418 11.4789 14.5585 8.48433 14.5585C5.401 14.5585 4.16458 14.6042 3.2624 13.6995C2.22332 12.6654 2.4114 11.0048 2.4114 8.48695C2.4114 5.07993 2.06175 2.62625 5.48117 2.45112C6.2668 2.42337 6.49805 2.41412 8.4757 2.41412L8.50345 2.43262C11.7897 2.43262 14.368 2.08853 14.5227 5.50727C14.5579 6.28734 14.5659 6.52167 14.5659 8.4962C14.5653 11.5437 14.6233 12.7875 13.7063 13.7088Z" fill="#8A8B90"/>
<path d="M12.4499 5.43735C12.94 5.43735 13.3373 5.04007 13.3373 4.54999C13.3373 4.05991 12.94 3.66262 12.4499 3.66262C11.9599 3.66262 11.5626 4.05991 11.5626 4.54999C11.5626 5.04007 11.9599 5.43735 12.4499 5.43735Z" fill="#8A8B90"/>
</svg>
