<svg width="17" height="17" viewBox="0 0 17 17" fill="none" xmlns="http://www.w3.org/2000/svg">
<path d="M15.6833 9.60035C16.1619 5.57194 15.4534 3.02871 14.1754 1.87841L14.1761 1.87774C12.1134 -0.0866651 5.14741 -0.377416 2.67971 1.96597C1.57151 3.11226 1.18117 4.7946 1.1384 6.87732C1.09562 8.96069 1.04482 12.8634 4.68154 13.9222H4.68489L4.68154 15.539C4.68154 15.539 4.65681 16.194 5.07523 16.3257C5.5538 16.4808 5.77035 16.1767 7.25886 14.3987C9.74796 14.6146 11.6596 14.12 11.8768 14.0478C12.3794 13.8794 15.2234 13.5031 15.6833 9.60035ZM7.50417 13.2611C7.50417 13.2611 5.92876 15.2255 5.43883 15.7355C5.27842 15.9013 5.10263 15.8859 5.1053 15.5571C5.1053 15.3412 5.11734 12.8728 5.11734 12.8728C2.03404 11.9892 2.21584 8.66593 2.24926 6.92744C2.28268 5.18829 2.60084 3.76394 3.53926 2.8048C5.70418 0.774893 11.8113 1.22873 13.3673 2.69117C15.2695 4.37753 14.5925 9.14183 14.5965 9.30425C14.2055 12.562 11.9009 12.7685 11.4771 12.9096C11.296 12.9697 9.61495 13.4022 7.50417 13.2611Z" fill="#8A8B90"/>
<path d="M8.37659 3.18652C8.11926 3.18652 8.11926 3.58756 8.37659 3.5909C10.3731 3.60627 12.0173 4.99787 12.0354 7.55046C12.0354 7.81982 12.4297 7.81648 12.4264 7.54712H12.4257C12.4043 4.79668 10.609 3.2019 8.37659 3.18652Z" fill="#8A8B90"/>
<path d="M10.999 7.12661C10.9929 7.39263 11.3866 7.40533 11.39 7.13597C11.4227 5.61938 10.4876 4.37016 8.73042 4.23848C8.47309 4.21977 8.44635 4.62415 8.70302 4.64286C10.227 4.75849 11.0297 5.79851 10.999 7.12661Z" fill="#8A8B90"/>
<path d="M10.5816 8.8528C10.2514 8.66164 9.91523 8.78061 9.77621 8.96843L9.48545 9.34473C9.33774 9.53589 9.06169 9.51049 9.06169 9.51049C7.04715 8.97779 6.50843 6.86968 6.50843 6.86968C6.50843 6.86968 6.4837 6.58427 6.66818 6.43121L7.03178 6.13043C7.21358 5.98606 7.32855 5.6385 7.1434 5.29695C6.64879 4.40331 6.3166 4.09518 6.1475 3.85857C5.9697 3.63599 5.70235 3.58586 5.4243 3.73625H5.41828C4.84012 4.07446 4.20715 4.70743 4.40967 5.35911C4.75523 6.04622 5.39021 8.23654 7.4141 9.89148C8.36523 10.6742 9.87045 11.4762 10.5094 11.6614L10.5154 11.6707C11.1451 11.8806 11.7573 11.2229 12.0842 10.6274V10.6227C12.2292 10.3346 12.1811 10.0619 11.9692 9.88346C11.5936 9.51718 11.0268 9.1128 10.5816 8.8528Z" fill="#8A8B90"/>
<path d="M9.0079 5.7304C9.65022 5.76783 9.96168 6.10336 9.9951 6.79248C10.0071 7.06184 10.3981 7.04312 10.3861 6.77376C10.3433 5.8741 9.87413 5.37281 9.02929 5.32602C8.77196 5.31065 8.7479 5.71502 9.0079 5.7304Z" fill="#8A8B90"/>
</svg>
