<svg width="17" height="17" viewBox="0 0 17 17" fill="none" xmlns="http://www.w3.org/2000/svg">
<path d="M13.241 9.57523C12.9884 9.25867 13.0607 9.11784 13.241 8.83488C13.2442 8.83165 15.3292 5.97231 15.544 5.00262L15.5453 5.00197C15.6521 4.64859 15.5453 4.38889 15.0291 4.38889H13.321C12.8862 4.38889 12.6857 4.61177 12.5783 4.86113C12.5783 4.86113 11.7086 6.92714 10.4784 8.26637C10.0813 8.65334 9.89771 8.77738 9.68095 8.77738C9.57419 8.77738 9.4082 8.65334 9.4082 8.29996V5.00197C9.4082 4.57817 9.28647 4.38889 8.9265 4.38889H6.24068C5.96794 4.38889 5.80585 4.58657 5.80585 4.77069C5.80585 5.17252 6.421 5.2649 6.48479 6.39546V8.84844C6.48479 9.38594 6.3865 9.48478 6.16843 9.48478C5.58778 9.48478 4.17848 7.41038 3.34331 5.03621C3.17472 4.57559 3.01003 4.38953 2.57194 4.38953H0.863197C0.375637 4.38953 0.277344 4.61241 0.277344 4.86178C0.277344 5.30237 0.85799 7.49307 2.97748 10.3873C4.39004 12.3629 6.37933 13.4333 8.18897 13.4333C9.27671 13.4333 9.4095 13.1956 9.4095 12.7867C9.4095 10.8989 9.31121 10.7206 9.85605 10.7206C10.1086 10.7206 10.5435 10.8447 11.5589 11.7976C12.7196 12.9275 12.9103 13.4333 13.5599 13.4333H15.268C15.7549 13.4333 16.0017 13.1956 15.8597 12.7266C15.5349 11.7401 13.3399 9.71089 13.241 9.57523Z" fill="#8A8B90"/>
</svg>
