<svg width="17" height="17" viewBox="0 0 17 17" fill="none" xmlns="http://www.w3.org/2000/svg">
<path fill-rule="evenodd" clip-rule="evenodd" d="M13.801 3.26009C12.4036 1.86774 10.5452 1.10061 8.56529 1.09979C4.48558 1.09979 1.16529 4.40411 1.16365 8.46539C1.1631 9.76365 1.50388 11.031 2.15162 12.148L1.10156 15.9651L5.02529 14.9407C6.10644 15.5277 7.3236 15.837 8.56229 15.8373H8.56539C12.6446 15.8373 15.9653 12.5327 15.9669 8.47128C15.9677 6.50298 15.1985 4.65235 13.801 3.26009ZM8.56529 14.5933H8.56274C7.45889 14.5929 6.37629 14.2976 5.43162 13.7399L5.20708 13.6072L2.87868 14.2151L3.50016 11.9558L3.35384 11.7242C2.73801 10.7493 2.41281 9.62265 2.41336 8.46584C2.41464 5.09021 5.17444 2.34389 8.56776 2.34389C10.2109 2.34443 11.7556 2.98209 12.917 4.13936C14.0785 5.29662 14.7178 6.83487 14.7172 8.47083C14.7158 11.8467 11.9562 14.5933 8.56529 14.5933ZM11.9397 10.0079C11.7549 9.91571 10.8456 9.47059 10.676 9.40907C10.5066 9.34765 10.3832 9.31707 10.26 9.50126C10.1366 9.68544 9.78228 10.1001 9.67434 10.2228C9.5664 10.3457 9.45864 10.3611 9.27366 10.2689C9.08868 10.1768 8.49282 9.9824 7.78637 9.35536C7.23663 8.86732 6.86549 8.2646 6.75755 8.08042C6.64979 7.89605 6.75664 7.80605 6.83869 7.70479C7.03889 7.45737 7.23937 7.19797 7.30099 7.07521C7.36271 6.95236 7.33181 6.84485 7.2855 6.75276C7.23937 6.66067 6.8695 5.75472 6.71543 5.38608C6.56519 5.02734 6.41285 5.07579 6.29925 5.07016C6.19149 5.06481 6.06815 5.06372 5.9448 5.06372C5.82154 5.06372 5.62115 5.10972 5.45158 5.29408C5.28211 5.47836 4.80439 5.92357 4.80439 6.82952C4.80439 7.73546 5.46708 8.61065 5.55953 8.7335C5.65197 8.85634 6.86367 10.7154 8.71882 11.5126C9.16007 11.7024 9.50449 11.8155 9.77316 11.9004C10.2162 12.0404 10.6193 12.0207 10.938 11.9733C11.2934 11.9204 12.0321 11.528 12.1863 11.0981C12.3404 10.6681 12.3404 10.2997 12.2941 10.2228C12.248 10.1461 12.1246 10.1001 11.9397 10.0079Z" fill="#8A8B90"/>
</svg>
